<svg xmlns="http://www.w3.org/2000/svg" viewBox="0 0 1500 1500"><path d="M1220.85,610.13a370.67,370.67,0,0,0-653.3-55.57l.17-178.36L250,592.27l33.94,49.92L506.67,491.54l-.49,523.53H859.27s30.45.39,40.59,0c62.34-2.37,120-31.23,164.62-75.81a261.51,261.51,0,1,0-369.83,0q7.56,7.54,15.61,14.39H642.79a309.49,309.49,0,1,1,455.62,19.54c-52.85,52.86-121.25,89.24-195.23,89.76-15.35.11-24,.11-45.66.11H271v60.74H852.36c16.27-.28,105.53-.28,171.42-28.16a370.74,370.74,0,0,0,197.07-485.51ZM679,754.35c0-110.59,90-200.56,200.56-200.56A200.67,200.67,0,0,1,1053,653.65l-32.05,50.87h19.64l-50.82,81-50.83-81h19.64L902.19,615.1l-56.33,89.42h19.63l-53.17,84.72h19.61l-55.36,88.63H879.36v37.51H925V877.87h112.44A200.5,200.5,0,0,1,899.3,953.93H859.71C758.41,943.92,679,858.24,679,754.35Zm328,34.89-17.25,27.63-17.26-27.63H1007Z" style="fill:#f74646"/><polygon points="271.02 953.93 271.02 1015.07 458.19 1015.07 458.6 582.03 311.04 682.03 345.53 732.74 397.55 697.37 397.31 953.93 271.02 953.93" style="fill:#f74646"/></svg>