<svg xmlns="http://www.w3.org/2000/svg" viewBox="0 0 1500 1500"><path d="M772.64,991.45,790.42,953l-2.7-9.75-12.23-41.11-.28-2a7.9,7.9,0,0,1,7.89-7.89h91.84a98.84,98.84,0,0,1,.88-12C879.29,854.56,882.66,849,887,844c2.22-2.54,4.31-4.93,6.26-22.75l4.24-36,1.67-1.29c.51-.41,13.15-11,6.11-36.29-4.82-17.33-4.91-23.38,3.93-27.52a12.84,12.84,0,0,0,6.67-6c23.62-40.63,16.22-67.73,10.55-79.33A37.79,37.79,0,0,1,913,650c-12.94,8.31-24.1,10.36-33.16,6.12-12-5.63-19.15-21.22-22.52-49.05-3.52-29.07-43.71-58.16-63-72.14-2.87-2.07-5.31-3.84-7.13-5.24-7.09-5.45-26-7.62-49.9-10.34-19.65-2.25-44.11-5.05-71.85-10.6-27.07-5.41-45.52-15.28-54.81-29.32a35.53,35.53,0,0,1-6.16-18.81c-7.35-3.2-8.94-10.59-10.17-16.84a48.77,48.77,0,0,0-3.71-12.56c-1-2.11-2-2.18-2.65-2.22-5.25-.36-16.31,7.18-27,14.47-11.67,8-24.9,17-39.42,23-5.59,2.33-10,3.32-13.72,3.26l-1.4-10.26-.74-5.44-1.94-14.22.25,5c-.44,0-44,2.55-45.63,26.28-.48,7.09-.23,14.51,0,22.36.78,23.44,1.59,47.67-17.51,64.35-8.11,7.09-16.36,12.12-23.64,16.55-14.71,9-21.7,13.77-19.95,24.7,1.26,7.82,4.07,14.11,7.06,20.76,5.08,11.3,10.84,24.11,10.38,47.08-.73,36.74,5.64,56.62,20.66,64.48,17.23,9,76.71,49.29,82.8,72.72,5,19.2,26.37,34.44,36.18,38s12.47,26.62,12.64,50.16h4.73a7.9,7.9,0,0,1,7.89,7.89v56.64H634V900.18a7.9,7.9,0,0,1,7.89-7.89h74.8a7.9,7.9,0,0,1,7.89,7.89v93Z" style="fill:#f74646"/><circle cx="700.66" cy="824.13" r="57.97" style="fill:#26529a"/><path d="M724.37,827.33,717.27,816h2.62l-7.53-12-7.53,12h2.63l-6.8,10.82L693.87,816h2.62l-7.52-12-7.53,12h2.62L677,827.33h2.62l-7.4,11.85h13.74v5H692v-5h17.29v5h6.1v-5h13.74l-7.4-11.85Zm-26,0H703l-2.31,3.7Z" style="fill:#fff"/><polygon points="666.55 808.3 658.01 816.84 654.73 820.13 658.01 823.41 666.55 831.95 669.84 828.67 661.3 820.13 669.84 811.59 666.55 808.3" style="fill:#fff"/><polygon points="743.31 816.84 734.77 808.3 731.49 811.59 740.03 820.13 731.49 828.67 734.77 831.95 743.31 823.41 746.6 820.13 743.31 816.84" style="fill:#fff"/><path d="M396.1,953.66V1070a1,1,0,0,1-1.05,1H320.23a1,1,0,0,1-1.05-1V953.66a.08.08,0,0,0-.08-.07H251.05a1,1,0,0,1-1.05-1.05V900.18a1,1,0,0,1,1.05-1H464a1,1,0,0,1,1.05,1v52.36a1,1,0,0,1-1.05,1.05H396.17A.07.07,0,0,0,396.1,953.66Z" style="fill:#26529a"/><path d="M641.9,1071h74.8a1,1,0,0,0,1-1V900.18a1,1,0,0,0-1-1H641.9a1,1,0,0,0-1,1v63.4a.08.08,0,0,1-.08.07h-68a.07.07,0,0,1-.07-.07v-63.4a1,1,0,0,0-1.05-1H497.09a1,1,0,0,0-1,1V1070a1,1,0,0,0,1,1h74.56a1,1,0,0,0,1.05-1v-58.5a.07.07,0,0,1,.07-.08h68a.08.08,0,0,1,.08.08V1070A1,1,0,0,0,641.9,1071Z" style="fill:#26529a"/><path d="M1121.8,953.66V1070a1,1,0,0,1-1,1h-74.82a1,1,0,0,1-1-1V953.66a.07.07,0,0,0-.07-.07H976.75a1,1,0,0,1-1-1.05V900.18a1,1,0,0,1,1-1h212.91a1,1,0,0,1,1,1v52.36a1,1,0,0,1-1,1.05h-67.78A.08.08,0,0,0,1121.8,953.66Z" style="fill:#26529a"/><path d="M743.47,1071h66.18a.08.08,0,0,0,.07,0l13.38-29.59a.07.07,0,0,1,.07,0h71.15a.07.07,0,0,1,.07,0l11.57,29a1.07,1.07,0,0,0,1,.66h82a.08.08,0,0,0,.07-.11l-81-171.75a.08.08,0,0,0-.07,0H783.1a1,1,0,0,0-1.05,1l12.24,41.17,3.39,12.24-54.27,117.33A.08.08,0,0,0,743.47,1071ZM860.73,954.78a.08.08,0,0,1,.07,0,.06.06,0,0,1,.06,0l18.23,47a.07.07,0,0,1-.07.1H840.26a.07.07,0,0,1-.06-.1Z" style="fill:#26529a"/><path d="M1250,915.35a17.11,17.11,0,0,1-17.44,17.24,17.16,17.16,0,1,1,0-34.3A17.09,17.09,0,0,1,1250,915.35Zm-30.66,0a13.24,13.24,0,0,0,10.16,13.24c8.61,2,16.55-5,16.15-13.86-.34-7.25-5.75-13-13.09-13C1225,901.73,1219.34,907.86,1219.34,915.35Zm10.35,8.94h-3.64a.14.14,0,0,1-.14-.14v-16.8a.15.15,0,0,1,.11-.15,36.76,36.76,0,0,1,6.42-.5c3.2,0,4.68.52,5.92,1.27h0a4.73,4.73,0,0,1,1.64,3.73c0,1.88-1.45,3.32-3.53,3.93v.23c1.68.61,2.61,1.85,3.13,4.14a16.06,16.06,0,0,0,1.12,4.07.14.14,0,0,1-.13.21h-3.93a.16.16,0,0,1-.12-.06,16.15,16.15,0,0,1-1.31-4.1c-.32-1.88-1.36-2.69-3.53-2.69H1230a.14.14,0,0,0-.14.14v6.57A.15.15,0,0,1,1229.69,924.29Zm.27-9.81a.14.14,0,0,0,.14.15h1.74c2.16,0,3.93-.75,3.93-2.52,0-1.56-1.13-2.6-3.65-2.6a9.17,9.17,0,0,0-2.06.2.15.15,0,0,0-.1.14Z" style="fill:#26529a"/></svg>