<svg xmlns="http://www.w3.org/2000/svg" viewBox="0 0 1500 1500"><path d="M372.52,526.79l34.53,22.67-25.26-33,7.92-8.82,35.31,22-25.63-32.73,7.27-8.1,35.63,49-7.73,8.61-35.72-21.49,25.09,33.34-7.63,8.5-52.63-30Z" style="fill:#26529a"/><path d="M432.14,467.35,470.63,512l-9.77,8.42-38.48-44.59Z" style="fill:#26529a"/><path d="M482.09,451.24c-4.23-3.33-7.6-3.7-11-1.33-3,2-3.85,5.33-2,7.95s4,2.9,12.84.71c6-1.45,8.33-1.78,11.65-1.48a15.78,15.78,0,0,1,12,7.17c6.42,9.32,3.76,20.28-6.51,27.34-9,6.18-17.36,5.64-26.06-1.67l7.51-9.05c4.9,4.15,8.73,4.71,12.8,1.92,3.71-2.57,4.73-6.39,2.57-9.51-1.89-2.76-4.62-3.14-10.9-1.5-7.61,2-9.77,2.33-13.53,2a16,16,0,0,1-11.53-7.08c-6.12-8.88-4.05-19.12,5.35-25.59,4.3-2.95,8.8-4.35,13.13-4,3.58.22,6.1,1.38,10.22,4.55Z" style="fill:#26529a"/><path d="M555.24,434.79c5.09,12.37,1.86,23.19-8.61,28.51-12.6,6.38-24.75.17-33.45-17s-6.55-30.7,6.2-37.17c6.52-3.31,12.8-3.23,18.43.26,3.73,2.26,6.3,5.21,9.82,11l-10.17,6.12c-2.62-4.4-3.84-6.06-5.79-7.35a7,7,0,0,0-7.48-.66c-5.59,2.83-5.1,9.43,1.56,22.58,6,11.89,10.78,15.6,16.37,12.77,4.18-2.11,4.85-6.61,2.06-14.31Z" style="fill:#26529a"/><path d="M592.67,385.4c6.21,3.38,11,10.16,14.7,21.12,6.46,18.9,2.87,31.05-10.42,35.59s-23.57-2.87-30-21.59c-6.61-19.31-3-31.27,10.58-35.93A18.84,18.84,0,0,1,592.67,385.4Zm-12.94,30.39c4.83,14.12,8.3,18.26,13.82,16.38s5.71-7.29.91-21.33c-4.74-13.88-8.31-18.07-13.66-16.24C575.27,396.48,575,401.83,579.73,415.79Z" style="fill:#26529a"/><path d="M635.23,370.09l21.45,33.19L650,367.35l9.89-1.85,10.8,57.92-11.37,2.1L634,386.87l7.8,41.93-9.89,1.85-10.8-57.92Z" style="fill:#26529a"/><path d="M711.36,378.41c-1.83-5-4.48-7.13-8.64-6.92-3.61.17-6.06,2.5-5.9,5.68.15,3.36,1.89,4.59,10.52,7.35,5.84,1.93,8,2.88,10.67,4.88a15.71,15.71,0,0,1,6.43,12.41C725,413.1,717,421,704.56,421.61c-10.85.53-17.72-4.35-21.26-15.14l11.15-3.73c2,6.1,4.92,8.6,9.86,8.36,4.5-.21,7.36-2.92,7.19-6.72-.17-3.34-2.29-5.09-8.49-7-7.52-2.28-9.51-3.16-12.55-5.4a16,16,0,0,1-6.07-12.07c-.52-10.77,6.63-18.36,18-18.91,5.19-.26,9.77.93,13.25,3.5,2.94,2.07,4.46,4.39,6.28,9.23Z" style="fill:#26529a"/><path d="M756.71,362.4l-3.22,58.81-12.88-.71,3.23-58.81Z" style="fill:#26529a"/><path d="M795.15,366.69l8.78,38.54,6-36.05,9.93,1.66-9.7,58.08L798.75,427l-10.54-45-7,42.05-9.93-1.65,9.7-58.09Z" style="fill:#26529a"/><path d="M885.09,390.35c8.13,3.18,12.46,6.2,15.31,10.81,3.88,6.07,3.62,15.44-.5,26-4.47,11.45-11.5,19-19.31,20.82-4.78,1.07-8,.65-15.43-2.23l-14.39-5.63,21.39-54.86Zm-18.62,45.06,2,.79c4.37,1.71,6.73,1.68,9.8-.34s6.1-6.63,8.89-13.79,3.4-12.11,2.11-15.84c-1-3-2.66-4.37-6.77-6l-2.07-.8Z" style="fill:#26529a"/><path d="M963.14,427.9l-4.93,8.89-20-11.09-6.61,11.9,15.64,8.67-4.94,8.9-15.63-8.66-7,12.7,20,11.09-5.09,9.22-31.34-17.36,28.59-51.63Z" style="fill:#26529a"/><path d="M990.27,446.56l-27.9,38.86,15.41,11.08-6.44,9-25.89-18.59L979.8,439Z" style="fill:#26529a"/><path d="M1030.77,479.14l-32.15,35.52,14.1,12.75-7.42,8.18-23.66-21.4,39.57-43.71Z" style="fill:#26529a"/><path d="M1063.6,537.93c2.84-4.53,2.86-7.92.17-11.07-2.37-2.77-5.71-3.27-8.13-1.19s-2.47,4.31.64,12.82c2,5.8,2.62,8.11,2.67,11.42a15.72,15.72,0,0,1-5.86,12.7c-8.6,7.35-19.76,5.87-27.87-3.6-7.06-8.25-7.41-16.69-1-26.1l9.77,6.54c-3.61,5.3-3.78,9.17-.57,12.93,2.93,3.42,6.83,4,9.71,1.57,2.56-2.19,2.64-4.94.37-11-2.82-7.35-3.33-9.46-3.42-13.24a16,16,0,0,1,5.83-12.2c8.2-7,18.59-6,26,2.66,3.4,4,5.25,8.3,5.35,12.63.16,3.59-.74,6.21-3.47,10.63Z" style="fill:#26529a"/><path d="M455.56,1111.65c-1.34,17-11.22,27.39-26.16,27.39-18,0-28.17-14-28.17-38.52,0-24.69,10.21-38.63,28.39-38.63,9.33,0,16.41,3.73,20.79,10.92,2.92,4.71,4.14,9.53,4.82,18.07L440.18,1092c-.44-6.51-.9-9.09-2.34-11.68-1.91-3.37-4.63-5.06-8.09-5.06-8,0-11.24,7.76-11.24,26.51,0,17,3.27,23.9,11.24,23.9,5.94,0,9.31-4.71,10.54-15Z" style="fill:#26529a"/><path d="M515,1069.08c6.07,6.64,9,16.74,9,31.44,0,25.4-9.31,38.52-27.16,38.52s-27.17-13.12-27.17-38.28q0-38.91,27.49-38.87C504.31,1061.89,510.73,1064.48,515,1069.08Zm-28.06,31.22c0,19,2.47,25.37,9.88,25.37s9.88-6.4,9.88-25.26c0-18.62-2.59-25.15-9.77-25.15C489.5,1075.26,486.92,1081.55,486.92,1100.3Z" style="fill:#26529a"/><path d="M559.67,1063l19.11,46.46V1063h12.8v74.88h-14.7l-22.7-54.22v54.22h-12.8V1063Z" style="fill:#26529a"/><path d="M656.17,1063v12.9h-28v19.54h21.56v12.91H628.21v29.53H611.83V1063Z" style="fill:#26529a"/><path d="M713.68,1063v12.9H684.61v17.28h22.68v12.93H684.61v18.4h29.07v13.37H668.23V1063Z" style="fill:#26529a"/><path d="M751.9,1063c10.1,0,13.37.79,17.75,3.92,5.17,3.92,8.08,10.56,8.08,18.75,0,9.53-3.05,15-10.56,19.55l13.8,32.66H763l-10-29.53h-8.2v29.53H728.44V1063Zm-7.08,33.23H752c6.29,0,9.66-3.83,9.66-10.88,0-3.6-1.11-6.65-3.26-8.44-1.45-1.23-3.49-1.8-7.08-1.8h-6.51Z" style="fill:#26529a"/><path d="M841.78,1063v12.9h-29.1v17.28h22.68v12.93H812.68v18.4h29.1v13.37H796.3V1063Z" style="fill:#26529a"/><path d="M874.12,1063l19.11,46.46V1063H906v74.88h-14.7l-22.7-54.22v54.22H855.83V1063Z" style="fill:#26529a"/><path d="M978,1111.65c-1.34,17-11.22,27.39-26.16,27.39-18,0-28.17-14-28.17-38.52,0-24.69,10.2-38.63,28.39-38.63,9.33,0,16.41,3.73,20.79,10.92,2.91,4.71,4.14,9.53,4.82,18.07L962.64,1092c-.44-6.51-.9-9.09-2.34-11.68-1.91-3.37-4.63-5.06-8.09-5.06-8,0-11.24,7.76-11.24,26.51,0,17,3.27,23.9,11.24,23.9,5.94,0,9.31-4.71,10.54-15Z" style="fill:#26529a"/><path d="M1039.67,1063v12.9H1010.6v17.28h22.67v12.93H1010.6v18.4h29.07v13.37H994.21V1063Z" style="fill:#26529a"/><path d="M396.13,877.19V993.53a1,1,0,0,1-1.05,1.05H320.24a1,1,0,0,1-1.05-1.05V877.19a.07.07,0,0,0-.07-.07H251.05a1,1,0,0,1-1.05-1V823.7a1,1,0,0,1,1.05-1.05H464a1,1,0,0,1,1.05,1.05v52.37a1,1,0,0,1-1.05,1H396.2A.07.07,0,0,0,396.13,877.19Z" style="fill:#26529a"/><path d="M640.92,993.53V935a.08.08,0,0,0-.07-.08h-68a.08.08,0,0,0-.07.08v58.51a1,1,0,0,1-1,1.05H497.14a1,1,0,0,1-1.05-1.05V823.7a1,1,0,0,1,1.05-1.05h74.57a1,1,0,0,1,1,1.05v63.41a.08.08,0,0,0,.07.08h68a.08.08,0,0,0,.07-.08V823.7a1,1,0,0,1,1.05-1.05h74.82a1,1,0,0,1,1.05,1.05V993.53a1,1,0,0,1-1.05,1.05H642A1,1,0,0,1,640.92,993.53Z" style="fill:#26529a"/><path d="M1122,877.19V993.53a1,1,0,0,1-1,1.05h-74.83a1,1,0,0,1-1-1.05V877.19a.08.08,0,0,0-.08-.07H976.9a1.06,1.06,0,0,1-1.06-1V823.7a1.06,1.06,0,0,1,1.06-1.05h212.95a1,1,0,0,1,1.05,1.05v52.37a1,1,0,0,1-1.05,1h-67.8A.08.08,0,0,0,1122,877.19Z" style="fill:#26529a"/><path d="M989.18,994.47l-81-171.78a.05.05,0,0,0-.06,0H783.2a1,1,0,0,0-1.05,1.05l12.24,41.17,3.4,12.25L743.5,994.48a.08.08,0,0,0,.07.1h66.19a.08.08,0,0,0,.07,0l13.38-29.6a.08.08,0,0,1,.07-.05h71.17a.06.06,0,0,1,.06.05l11.58,29a1.05,1.05,0,0,0,1,.66h82A.07.07,0,0,0,989.18,994.47Zm-110-69.08H840.38a.08.08,0,0,1-.07-.1l20.54-47a.07.07,0,0,1,.13,0l18.23,47A.07.07,0,0,1,879.14,925.39Z" style="fill:#26529a"/><path d="M1250,838.88a17.11,17.11,0,0,1-17.44,17.24,17.16,17.16,0,1,1,0-34.31A17.09,17.09,0,0,1,1250,838.88Zm-30.67,0a13.24,13.24,0,0,0,10.16,13.24c8.62,2,16.56-5,16.15-13.87-.33-7.25-5.74-13-13.08-13C1225,825.25,1219.33,831.38,1219.33,838.88Zm10.36,8.93h-3.64a.15.15,0,0,1-.15-.14v-16.8a.16.16,0,0,1,.12-.15,37.77,37.77,0,0,1,6.42-.49c3.2,0,4.68.51,5.92,1.26l0,0a4.69,4.69,0,0,1,1.64,3.72c0,1.88-1.45,3.33-3.53,3.93v.24c1.68.6,2.6,1.85,3.12,4.13a16.21,16.21,0,0,0,1.13,4.07.14.14,0,0,1-.13.21h-3.93a.17.17,0,0,1-.12,0,16.26,16.26,0,0,1-1.31-4.11c-.32-1.88-1.36-2.69-3.53-2.69H1230a.14.14,0,0,0-.14.14v6.57A.15.15,0,0,1,1229.69,847.81Zm.26-9.8a.15.15,0,0,0,.15.14h1.73c2.17,0,3.94-.75,3.94-2.51,0-1.57-1.13-2.61-3.65-2.61a9.17,9.17,0,0,0-2.06.2.16.16,0,0,0-.11.14Z" style="fill:#26529a"/><path d="M845.42,673.08,808,613.4h13.83l-39.68-63-39.69,63h13.83l-35.8,57-35.8-57h13.83l-39.69-63-39.69,63h13.84l-37.46,59.68h13.81l-39,62.44h72.42v26.42h32.17V735.52H766v26.42h32.17V735.52h72.42l-39-62.44Zm-137.13,0h24.32l-12.16,19.46Z" style="fill:#f74646"/><polygon points="540.67 572.77 495.66 617.78 478.34 635.1 495.66 652.41 540.67 697.42 557.98 680.11 512.97 635.1 557.98 590.08 540.67 572.77" style="fill:#f74646"/><polygon points="945.24 617.78 900.23 572.77 882.91 590.08 927.93 635.1 882.91 680.11 900.23 697.42 945.24 652.41 962.55 635.1 945.24 617.78" style="fill:#f74646"/></svg>