<svg xmlns="http://www.w3.org/2000/svg" viewBox="0 0 1500 1500"><path d="M396.1,831.8V948.12a1,1,0,0,1-1.05,1H320.23a1,1,0,0,1-1.05-1V831.8a.08.08,0,0,0-.08-.07H251.05a1,1,0,0,1-1.05-1.05V778.32a1,1,0,0,1,1.05-1.05H464a1,1,0,0,1,1.05,1.05v52.36a1,1,0,0,1-1.05,1.05H396.17A.07.07,0,0,0,396.1,831.8Z" style="fill:#26529a"/><path d="M640.85,948.12v-58.5a.08.08,0,0,0-.08-.08h-68a.08.08,0,0,0-.07.08v58.5a1,1,0,0,1-1.05,1H497.09a1,1,0,0,1-1-1V778.32a1,1,0,0,1,1-1.05h74.56a1,1,0,0,1,1.05,1.05v63.4a.07.07,0,0,0,.07.07h68a.07.07,0,0,0,.08-.07v-63.4a1,1,0,0,1,1-1.05h74.8a1,1,0,0,1,1,1.05v169.8a1,1,0,0,1-1,1H641.9A1,1,0,0,1,640.85,948.12Z" style="fill:#26529a"/><path d="M1121.8,831.8V948.12a1,1,0,0,1-1,1h-74.82a1,1,0,0,1-1-1V831.8a.07.07,0,0,0-.07-.07H976.75a1,1,0,0,1-1-1.05V778.32a1,1,0,0,1,1-1.05h212.91a1,1,0,0,1,1,1.05v52.36a1,1,0,0,1-1,1.05h-67.78A.08.08,0,0,0,1121.8,831.8Z" style="fill:#26529a"/><path d="M989,949.06l-81-171.75a.1.1,0,0,0-.07,0H783.1a1,1,0,0,0-1.05,1.05l12.24,41.17,3.39,12.24L743.41,949.06a.08.08,0,0,0,.06.11h66.18a.08.08,0,0,0,.07,0l13.38-29.59a.07.07,0,0,1,.07,0h71.15a.08.08,0,0,1,.07,0l11.57,29a1.05,1.05,0,0,0,1,.66h82A.08.08,0,0,0,989,949.06ZM879,880H840.26a.07.07,0,0,1-.06-.1l20.53-47a.07.07,0,0,1,.13,0l18.23,47A.07.07,0,0,1,879,880Z" style="fill:#26529a"/><path d="M1250,793.49a17.11,17.11,0,0,1-17.44,17.24,17.16,17.16,0,1,1,0-34.3A17.09,17.09,0,0,1,1250,793.49Zm-30.66,0a13.26,13.26,0,0,0,10.16,13.25c8.61,2,16.55-5,16.15-13.87-.34-7.25-5.75-13-13.09-13C1225,779.87,1219.34,786,1219.34,793.49Zm10.35,8.94h-3.64a.14.14,0,0,1-.14-.14v-16.8a.15.15,0,0,1,.11-.15,38,38,0,0,1,6.42-.49c3.2,0,4.68.51,5.92,1.26l0,0a4.69,4.69,0,0,1,1.64,3.72c0,1.88-1.45,3.33-3.53,3.93V794c1.68.61,2.61,1.86,3.13,4.14a16.06,16.06,0,0,0,1.12,4.07.14.14,0,0,1-.13.21h-3.93a.16.16,0,0,1-.12-.06,16.15,16.15,0,0,1-1.31-4.1c-.32-1.88-1.36-2.69-3.53-2.69H1230a.14.14,0,0,0-.14.14v6.57A.15.15,0,0,1,1229.69,802.43Zm.27-9.8a.14.14,0,0,0,.14.14h1.74c2.16,0,3.93-.75,3.93-2.52,0-1.56-1.13-2.6-3.65-2.6a9.17,9.17,0,0,0-2.06.2.15.15,0,0,0-.1.14Z" style="fill:#26529a"/><path d="M963.12,546.88,890.53,431.23h26.8l-76.9-122.09L763.52,431.23h26.8L720.94,541.77,651.56,431.23h26.8l-76.9-122.09L524.55,431.23h26.8L478.76,546.88h26.77L430,667.88H570.28v51.21h62.35V667.88H809.26v51.21H871.6V667.88h140.33l-75.57-121Zm-265.74,0H744.5L720.94,584.6Z" style="fill:#f74646"/><polygon points="372.55 352.49 285.32 439.72 251.77 473.27 285.32 506.82 372.55 594.06 406.1 560.51 318.87 473.27 406.1 386.04 372.55 352.49" style="fill:#f74646"/><polygon points="1156.56 439.72 1069.33 352.49 1035.78 386.04 1123.01 473.27 1035.78 560.51 1069.33 594.06 1156.56 506.82 1190.12 473.27 1156.56 439.72" style="fill:#f74646"/><circle cx="547.04" cy="1098.86" r="92" style="fill:#f74646"/><path d="M547.05,1030.8l-25.54,40.54h8.9l-24.1,38.4h8.89l-25.1,40.18h46.6v17h20.69v-17H604l-25.09-40.18h8.89l-24.11-38.4h8.9L547,1030.8Z" style="fill:#fff"/><path d="M665.23,1053.7h29.36l-3.26,18.53c9.1-15.44,17.75-21.1,31.79-21.1,10.22,0,17.8,3.35,21,9.78,3.3,5.92,3.31,13.13.19,30.89l-15.61,88.81H696l15.15-86.24c1.35-7.72,1.34-10.55.38-12.35-1.13-2.32-4-3.61-7.54-3.61-7.66,0-11.23,4.38-13.27,16l-15.15,86.23H642.93Z" style="fill:#26529a"/><path d="M777.52,1008.92H810.2L780,1180.61H747.35Z" style="fill:#26529a"/><path d="M821.73,1053.71h32.68l-22.29,126.9H799.44Zm40.78-46.07-6.15,35H823.68l6.15-35Z" style="fill:#26529a"/><path d="M873.81,1053.72h29.36l-3.25,18.53c9.09-15.44,17.75-21.1,31.79-21.1,10.21,0,17.8,3.35,21,9.78,3.31,5.92,3.32,13.13.19,30.89l-15.6,88.81H904.62l15.15-86.24c1.36-7.72,1.35-10.55.39-12.35-1.13-2.32-4-3.61-7.54-3.61-7.66,0-11.24,4.38-13.27,16l-15.15,86.23H851.52Z" style="fill:#26529a"/><path d="M994.16,1123l-.82,4.64c-3.89,22.13-1.51,30.37,8.45,30.37,7.92,0,12.14-5.14,16.94-20.85l26.66,2.32c-3.12,13.39-8.67,23.17-17.57,31.66-8.59,8.24-19,12.1-31.74,12.1q-45.18,0-33.79-64.87c7.64-43.5,27.63-67.19,56.74-67.18,18.38,0,29.47,9.53,33.15,27.8,1.91,9.53.92,22.4-2.88,44Zm28.42-20.84c3.19-19.57,1.31-27.8-6.86-27.81-8.42,0-13.56,7.47-18.16,27.8Z" style="fill:#26529a"/></svg>