<svg xmlns="http://www.w3.org/2000/svg" viewBox="0 0 1500 1500"><rect x="250" y="335.97" width="1000" height="828.05" style="fill:none;stroke:#f74646;stroke-miterlimit:10;stroke-width:7px"/><path d="M584.6,494.57V714.62a2,2,0,0,1-2,2H441.06a2,2,0,0,1-2-2v-220a.14.14,0,0,0-.14-.14H310.18a2,2,0,0,1-2-2V393.39a2,2,0,0,1,2-2H713a2,2,0,0,1,2,2v99.05a2,2,0,0,1-2,2H584.74A.14.14,0,0,0,584.6,494.57Z" style="fill:#f74646"/><path d="M1047.51,715.21v-111a.14.14,0,0,0-.14-.14H918.69a.14.14,0,0,0-.14.14v111a2,2,0,0,1-2,2H775.74a2,2,0,0,1-2-2V393.39a2,2,0,0,1,2-2H916.56a2,2,0,0,1,2,2V513.44a.13.13,0,0,0,.14.13h128.68a.13.13,0,0,0,.14-.13V393.39a2,2,0,0,1,2-2h140.82a2,2,0,0,1,2,2V715.21a2,2,0,0,1-2,2H1049.5A2,2,0,0,1,1047.51,715.21Z" style="fill:#f74646"/><path d="M1058,885.65V1105.7a2,2,0,0,1-2,2H914.48a2,2,0,0,1-2-2V885.65a.14.14,0,0,0-.14-.14H783.6a2,2,0,0,1-2-2v-99a2,2,0,0,1,2-2h402.8a2,2,0,0,1,2,2v99a2,2,0,0,1-2,2H1058.15A.13.13,0,0,0,1058,885.65Z" style="fill:#f74646"/><path d="M775.17,1107.49,622,782.56a.13.13,0,0,0-.13-.08H385.56a2,2,0,0,0-2,2l23.15,77.88,6.43,23.16-102.68,222a.14.14,0,0,0,.12.2H435.8a.13.13,0,0,0,.12-.08l25.31-56a.16.16,0,0,1,.13-.08H596a.13.13,0,0,1,.13.09l21.9,54.81a2,2,0,0,0,1.85,1.25H775A.14.14,0,0,0,775.17,1107.49ZM567,976.82H493.71a.15.15,0,0,1-.13-.2l38.85-88.84a.13.13,0,0,1,.25,0l34.48,88.85A.14.14,0,0,1,567,976.82Z" style="fill:#f74646"/></svg>