<svg xmlns="http://www.w3.org/2000/svg" viewBox="0 0 1500 1500"><path d="M746.3,1004.61c2.05.13,4,.26,5.73.44a74.39,74.39,0,0,1,11.46,2.18L790.42,949l-2.7-9.76-12.23-41.11-.28-1.95a7.9,7.9,0,0,1,7.89-7.88h59.61a5,5,0,0,0,.1-.95c0-6.91,2.94-16.52,3.07-16.93l.72-2.33,19.6,8.16c22.67-.15,27.3-11.49,31-20.61,1.42-3.5,2.66-6.53,4.8-8.43a42.23,42.23,0,0,1,7.48-4.75c4.66-2.56,9.94-5.45,10.55-8.9.3-1.73-.6-3.8-2.68-6.16-5.51-6.25-5.56-12.71-3.77-16.68,1.5-3.33,4.36-5.39,7.45-5.39,1.92,0,5.54.82,8.13,6.34a56.1,56.1,0,0,1,2.25,5.72c.93,2.66,1.43,3.92,2,3.92,2.86,0,12.15-6.8,24.95-16.4a70.09,70.09,0,0,1,14.66-8.52c-.48-6.35-1.84-27.29.94-33.55s5.71-26,5-39.69c-.71-13.56-12.5-29.61-20.3-40.23-7-9.51-7.37-39.77-7.14-72.59,0-3.42,0-6.6,0-9.41,0-5.54-1.64-9.69-4.88-12.35-6.58-5.39-17.67-3.38-18.2-3.29v0l-3.49,1.4a7,7,0,0,1-2.62.52c-3.71,0-7.06-3.1-10.84-6.59-4.54-4.19-10.18-9.39-18.1-10.84-15.84-2.88-19.88-2.18-43.16,7.38C838.66,582,834,583,831.3,581.42c-2.1-1.23-2.37-3.51-2.63-5.71a16.63,16.63,0,0,0-1.17-4.94,7.13,7.13,0,0,0-1.26-2.23,28.15,28.15,0,0,0-3.18,1.2c-4.23,1.73-11.3,4.63-25,6.74-23.74,3.66-27.07-4.59-28.76-14.91a31.23,31.23,0,0,0-1-4.89,4.92,4.92,0,0,0-2.65-3.11c-3-1.38-7.67-.05-9.2.57-15.76,8.28-34,2.7-43.13-6.79-1.49-1.55-3.72-3.31-5.71-3.06s-3.3,2.54-3.32,2.57l-.39.72-.77.31c-7.93,3.06-14.77,2.7-20.29-1.09-10.14-6.95-12.33-23.54-12.33-27.27V435.85L546.2,433l-15,251-2.18-.09c-5.17-.21-126.91-5.22-149.68-8.17-11.33-1.46-13,.86-13.13,1.13-.39.68.12,1.94.65,2.82l0-.07h.1l.53,1.1c9.27,19.26,53.77,54.45,65.19,62.82,9.4,6.89,9.23,14.37,9,24.72-.07,3-.14,6.49,0,10.27.58,12.71,21,32.59,57.45,56,6.09,3.91,11.36,5.89,15.65,5.89,8.24,0,11.85-7.44,14.75-13.42,1.38-2.83,2.46-5.07,3.95-6.35a15.28,15.28,0,0,0,2.53-3.61c4.09-6.89,11-18.8,41.24-16.9,37.86,2.32,57.41,38.8,60.51,55.09a131.64,131.64,0,0,0,8.65,27.29,67.67,67.67,0,0,1,9.09,5.89H716.7a7.9,7.9,0,0,1,7.89,7.88V1001C731.87,1003.67,739.63,1004.18,746.3,1004.61Z" style="fill:#f74646"/><circle cx="781.58" cy="767.06" r="57.97" style="fill:#26529a"/><path d="M396.1,949.67V1066a1,1,0,0,1-1.05,1H320.23a1,1,0,0,1-1.05-1V949.67a.08.08,0,0,0-.08-.07H251.05a1,1,0,0,1-1.05-1.05V896.19a1,1,0,0,1,1.05-1.05H464a1,1,0,0,1,1.05,1.05v52.36A1,1,0,0,1,464,949.6H396.17A.07.07,0,0,0,396.1,949.67Z" style="fill:#26529a"/><path d="M640.85,1066v-58.5a.07.07,0,0,0-.08-.07h-68a.07.07,0,0,0-.07.07V1066a1,1,0,0,1-1.05,1H497.09a1,1,0,0,1-1-1V896.19a1,1,0,0,1,1-1.05h74.56a1,1,0,0,1,1.05,1.05V959.6a.07.07,0,0,0,.07.07h68a.07.07,0,0,0,.08-.07V896.19a1,1,0,0,1,1-1.05h74.8a1,1,0,0,1,1,1.05V1066a1,1,0,0,1-1,1H641.9A1,1,0,0,1,640.85,1066Z" style="fill:#26529a"/><path d="M1121.8,949.67V1066a1,1,0,0,1-1,1h-74.82a1,1,0,0,1-1-1V949.67a.07.07,0,0,0-.07-.07H976.75a1,1,0,0,1-1-1.05V896.19a1,1,0,0,1,1-1.05h212.91a1,1,0,0,1,1,1.05v52.36a1,1,0,0,1-1,1.05h-67.78A.08.08,0,0,0,1121.8,949.67Z" style="fill:#26529a"/><path d="M989,1066.94l-81-171.75s0-.05-.07-.05H783.1a1,1,0,0,0-1.05,1.05l12.24,41.17,3.39,12.24-54.27,117.34a.07.07,0,0,0,.06.1h66.18a.07.07,0,0,0,.07,0l13.38-29.59a.08.08,0,0,1,.07-.05h71.15a.08.08,0,0,1,.07.05l11.57,29a1.05,1.05,0,0,0,1,.66h82A.07.07,0,0,0,989,1066.94ZM879,997.86H840.26a.07.07,0,0,1-.06-.1l20.53-47a.07.07,0,0,1,.13,0l18.23,47S879.07,997.86,879,997.86Z" style="fill:#26529a"/><path d="M1250,911.37a17.11,17.11,0,0,1-17.44,17.24,17.16,17.16,0,1,1,0-34.31A17.09,17.09,0,0,1,1250,911.37Zm-30.66,0a13.24,13.24,0,0,0,10.16,13.24c8.61,2,16.55-5,16.15-13.86-.34-7.25-5.75-13-13.09-13C1225,897.75,1219.34,903.88,1219.34,911.37Zm10.35,8.94h-3.64a.15.15,0,0,1-.14-.15v-16.8a.13.13,0,0,1,.11-.14,36.76,36.76,0,0,1,6.42-.5c3.2,0,4.68.52,5.92,1.27h0a4.71,4.71,0,0,1,1.64,3.72c0,1.88-1.45,3.33-3.53,3.94v.23c1.68.61,2.61,1.85,3.13,4.14a16.2,16.2,0,0,0,1.12,4.07.15.15,0,0,1-.13.21h-3.93a.16.16,0,0,1-.12-.06,16.26,16.26,0,0,1-1.31-4.11c-.32-1.88-1.36-2.69-3.53-2.69H1230a.15.15,0,0,0-.14.15v6.56A.15.15,0,0,1,1229.69,920.31Zm.27-9.81a.15.15,0,0,0,.14.15h1.74c2.16,0,3.93-.76,3.93-2.52,0-1.56-1.13-2.6-3.65-2.6a8.61,8.61,0,0,0-2.06.2.13.13,0,0,0-.1.14Z" style="fill:#26529a"/><path d="M805.29,770.27,798.19,759h2.62l-7.53-12-7.53,12h2.63l-6.8,10.82L774.79,759h2.62l-7.52-12-7.53,12H765l-7.11,11.32h2.62l-7.4,11.85h13.74v5h6.11v-5h17.29v5h6.1v-5h13.74l-7.4-11.85Zm-26,0h4.61L781.58,774Z" style="fill:#fff"/><polygon points="747.48 751.24 738.93 759.78 735.65 763.07 738.93 766.35 747.48 774.89 750.76 771.61 742.22 763.07 750.76 754.52 747.48 751.24" style="fill:#fff"/><polygon points="824.23 759.78 815.69 751.24 812.41 754.52 820.95 763.07 812.41 771.61 815.69 774.89 824.23 766.35 827.52 763.07 824.23 759.78" style="fill:#fff"/></svg>