<svg xmlns="http://www.w3.org/2000/svg" viewBox="0 0 1500 1500"><path d="M584.6,494.57V714.62a2,2,0,0,1-2,2H441.06a2,2,0,0,1-2-2v-220a.14.14,0,0,0-.14-.14H310.18a2,2,0,0,1-2-2V393.39a2,2,0,0,1,2-2H713a2,2,0,0,1,2,2v99.05a2,2,0,0,1-2,2H584.74A.14.14,0,0,0,584.6,494.57Z" style="fill:#26529a"/><path d="M1047.51,715.21v-111a.14.14,0,0,0-.14-.14H918.69a.14.14,0,0,0-.14.14v111a2,2,0,0,1-2,2H775.74a2,2,0,0,1-2-2V393.39a2,2,0,0,1,2-2H916.56a2,2,0,0,1,2,2V513.44a.13.13,0,0,0,.14.13h128.68a.13.13,0,0,0,.14-.13V393.39a2,2,0,0,1,2-2h140.82a2,2,0,0,1,2,2V715.21a2,2,0,0,1-2,2H1049.5A2,2,0,0,1,1047.51,715.21Z" style="fill:#26529a"/><path d="M1058,885.65V1105.7a2,2,0,0,1-2,2H914.48a2,2,0,0,1-2-2V885.65a.14.14,0,0,0-.14-.14H783.6a2,2,0,0,1-2-2v-99a2,2,0,0,1,2-2h402.8a2,2,0,0,1,2,2v99a2,2,0,0,1-2,2H1058.15A.13.13,0,0,0,1058,885.65Z" style="fill:#26529a"/><path d="M775.17,1107.49,622,782.56a.13.13,0,0,0-.13-.08H385.56a2,2,0,0,0-2,2l23.15,77.88,6.43,23.16-102.68,222a.14.14,0,0,0,.12.2H435.8a.13.13,0,0,0,.12-.08l25.31-56a.16.16,0,0,1,.13-.08H596a.13.13,0,0,1,.13.09l21.9,54.81a2,2,0,0,0,1.85,1.25H775A.14.14,0,0,0,775.17,1107.49ZM567,976.82H493.71a.15.15,0,0,1-.13-.2l38.85-88.84a.13.13,0,0,1,.25,0l34.48,88.85A.14.14,0,0,1,567,976.82Z" style="fill:#26529a"/><path d="M1221.35,1107.29c0,18.28-14.34,32.62-33,32.62-18.49,0-33.27-14.34-33.27-32.62,0-17.89,14.78-32.28,33.27-32.28C1207,1075,1221.35,1089.4,1221.35,1107.29Zm-58,0c0,12.3,7.8,22.42,19.21,25,16.3,3.77,31.32-9.52,30.55-26.23-.63-13.71-10.87-24.59-24.76-24.59C1174,1081.52,1163.35,1093.12,1163.35,1107.29Zm19.59,16.91H1176a.27.27,0,0,1-.27-.27v-31.78a.26.26,0,0,1,.22-.27,69.24,69.24,0,0,1,12.14-1c6.06,0,8.85,1,11.2,2.4l0,0a8.92,8.92,0,0,1,3.1,7.05c0,3.56-2.73,6.29-6.67,7.44v.44c3.17,1.15,4.92,3.5,5.91,7.82s1.45,6.46,2.12,7.7a.28.28,0,0,1-.25.4h-7.42a.28.28,0,0,1-.23-.11c-.94-1.26-1.53-4.15-2.49-7.77-.6-3.55-2.57-5.09-6.67-5.09h-3.29a.28.28,0,0,0-.27.28v12.42A.27.27,0,0,1,1182.94,1124.2Zm.49-18.55a.28.28,0,0,0,.27.28H1187c4.1,0,7.44-1.43,7.44-4.76,0-3-2.14-4.93-6.9-4.93a16.75,16.75,0,0,0-3.9.38.27.27,0,0,0-.2.27Z" style="fill:#26529a"/><rect x="250" y="335.97" width="1000" height="828.05" style="fill:none;stroke:#26529a;stroke-miterlimit:10;stroke-width:7px"/></svg>