<svg xmlns="http://www.w3.org/2000/svg" viewBox="0 0 1500 1500"><path d="M455.52,994.86c-1.33,16.95-11.21,27.38-26.15,27.38-18,0-28.17-14-28.17-38.51,0-24.69,10.2-38.62,28.38-38.62,9.34,0,16.41,3.73,20.79,10.91,2.92,4.71,4.14,9.53,4.82,18.07l-15.05,1.12c-.43-6.51-.9-9.09-2.34-11.68-1.9-3.37-4.62-5.06-8.08-5.06-8,0-11.24,7.76-11.24,26.51,0,16.95,3.27,23.89,11.24,23.89,5.93,0,9.31-4.7,10.53-15Z" style="fill:#26529a"/><path d="M514.93,952.29c6.07,6.64,9,16.74,9,31.44,0,25.39-9.31,38.51-27.16,38.51s-27.16-13.12-27.16-38.27q0-38.9,27.49-38.86C504.26,945.11,510.68,947.7,514.93,952.29Zm-28.06,31.22c0,19,2.48,25.36,9.88,25.36s9.88-6.39,9.88-25.25c0-18.62-2.59-25.15-9.77-25.15C489.46,958.47,486.87,964.76,486.87,983.51Z" style="fill:#26529a"/><path d="M559.61,946.25l19.11,46.46V946.25h12.79v74.87h-14.7l-22.69-54.21v54.21H541.33V946.25Z" style="fill:#26529a"/><path d="M656.09,946.25v12.9h-28v19.54h21.55v12.9H628.14v29.53H611.76V946.25Z" style="fill:#26529a"/><path d="M713.59,946.25v12.9H684.53v17.28H707.2v12.93H684.53v18.4h29.06v13.36H668.15V946.25Z" style="fill:#26529a"/><path d="M751.8,946.25c10.1,0,13.37.79,17.75,3.92,5.17,3.92,8.08,10.56,8.08,18.75,0,9.53-3,15.05-10.56,19.54l13.8,32.66h-18l-10-29.53h-8.19v29.53H728.34V946.25Zm-7.07,33.23h7.18c6.29,0,9.66-3.84,9.66-10.88,0-3.6-1.11-6.64-3.26-8.44-1.44-1.23-3.49-1.8-7.08-1.8h-6.5Z" style="fill:#26529a"/><path d="M841.67,946.25v12.9h-29.1v17.28h22.67v12.93H812.57v18.4h29.1v13.36H796.19V946.25Z" style="fill:#26529a"/><path d="M874,946.25l19.1,46.46V946.25h12.79v74.87H891.2l-22.7-54.21v54.21H855.71V946.25Z" style="fill:#26529a"/><path d="M977.88,994.86c-1.34,16.95-11.22,27.38-26.16,27.38-18,0-28.17-14-28.17-38.51,0-24.69,10.21-38.62,28.39-38.62,9.33,0,16.41,3.73,20.79,10.91,2.91,4.71,4.14,9.53,4.82,18.07l-15,1.12c-.44-6.51-.9-9.09-2.34-11.68-1.91-3.37-4.63-5.06-8.08-5.06-8,0-11.24,7.76-11.24,26.51,0,16.95,3.26,23.89,11.24,23.89,5.93,0,9.3-4.7,10.53-15Z" style="fill:#26529a"/><path d="M1039.52,946.25v12.9h-29.07v17.28h22.67v12.93h-22.67v18.4h29.07v13.36H994.07V946.25Z" style="fill:#26529a"/><path d="M396.1,760.44V876.76a1,1,0,0,1-1.05,1H320.23a1,1,0,0,1-1.05-1V760.44a.08.08,0,0,0-.08-.07H251.05a1,1,0,0,1-1.05-1V707a1,1,0,0,1,1.05-1.05H464A1,1,0,0,1,465,707v52.36a1,1,0,0,1-1.05,1H396.17A.07.07,0,0,0,396.1,760.44Z" style="fill:#26529a"/><path d="M640.85,876.76v-58.5a.08.08,0,0,0-.08-.08h-68a.08.08,0,0,0-.07.08v58.5a1,1,0,0,1-1.05,1H497.09a1,1,0,0,1-1-1V707a1,1,0,0,1,1-1.05h74.56A1,1,0,0,1,572.7,707v63.4a.07.07,0,0,0,.07.07h68a.07.07,0,0,0,.08-.07V707a1,1,0,0,1,1-1.05h74.8a1,1,0,0,1,1,1.05v169.8a1,1,0,0,1-1,1H641.9A1,1,0,0,1,640.85,876.76Z" style="fill:#26529a"/><path d="M1121.8,760.44V876.76a1,1,0,0,1-1,1h-74.82a1,1,0,0,1-1-1V760.44a.07.07,0,0,0-.07-.07H976.75a1,1,0,0,1-1-1V707a1,1,0,0,1,1-1.05h212.91a1,1,0,0,1,1,1.05v52.36a1,1,0,0,1-1,1h-67.78A.08.08,0,0,0,1121.8,760.44Z" style="fill:#26529a"/><path d="M989,877.7,908.06,706a.1.1,0,0,0-.07,0H783.1a1,1,0,0,0-1.05,1.05l12.24,41.17,3.39,12.24L743.41,877.7a.08.08,0,0,0,.06.11h66.18a.08.08,0,0,0,.07,0l13.38-29.59a.07.07,0,0,1,.07,0h71.15a.08.08,0,0,1,.07,0l11.57,29a1.05,1.05,0,0,0,1,.66h82A.08.08,0,0,0,989,877.7ZM879,808.63H840.26a.07.07,0,0,1-.06-.1l20.53-47a.07.07,0,0,1,.13,0l18.23,47A.07.07,0,0,1,879,808.63Z" style="fill:#26529a"/><path d="M1250,722.13a17.11,17.11,0,0,1-17.44,17.24,17.16,17.16,0,1,1,0-34.3A17.09,17.09,0,0,1,1250,722.13Zm-30.66,0a13.26,13.26,0,0,0,10.16,13.25c8.61,2,16.55-5,16.15-13.87-.34-7.25-5.75-13-13.09-13C1225,708.51,1219.34,714.64,1219.34,722.13Zm10.35,8.94h-3.64a.14.14,0,0,1-.14-.14v-16.8a.15.15,0,0,1,.11-.15,38,38,0,0,1,6.42-.49c3.2,0,4.68.51,5.92,1.26l0,0a4.69,4.69,0,0,1,1.64,3.72c0,1.88-1.45,3.33-3.53,3.93v.23c1.68.61,2.61,1.86,3.13,4.14a15.92,15.92,0,0,0,1.12,4.07.14.14,0,0,1-.13.21h-3.93a.16.16,0,0,1-.12-.06,16.15,16.15,0,0,1-1.31-4.1c-.32-1.88-1.36-2.69-3.53-2.69H1230a.14.14,0,0,0-.14.14v6.57A.15.15,0,0,1,1229.69,731.07Zm.27-9.8a.14.14,0,0,0,.14.14h1.74c2.16,0,3.93-.75,3.93-2.52,0-1.56-1.13-2.6-3.65-2.6a9.17,9.17,0,0,0-2.06.2.15.15,0,0,0-.1.14Z" style="fill:#26529a"/><path d="M461.17,505.57,443,578.12h-16.7l-11.93-48-11.51,48H386.25l-18.67-72.55h17.35l10,44.27c0,.22.23,1,.58,2.34.14.5.34,1.24.59,2.23L408,505.57h15.67l12.2,48.84c.25-.92.6-2.44,1.06-4.57l10.29-44.27Z" style="fill:#26529a"/><path d="M486.1,505.57v72.55h-17V505.57Z" style="fill:#26529a"/><path d="M849.12,577l-30.3-48.26H830l-32.1-51-32.1,51H777l-29,46.13-28.95-46.13h11.18l-32.09-51-32.1,51h11.19L647,577h11.17l-31.54,50.5h58.57v21.37h26V627.48H784.9v21.37h26V627.48h58.57L837.94,577Zm-110.91,0h19.67L748,592.72Z" style="fill:#f74646"/><polygon points="602.65 495.86 566.24 532.26 552.24 546.26 566.24 560.27 602.65 596.67 616.65 582.67 580.24 546.26 616.65 509.86 602.65 495.86" style="fill:#f74646"/><polygon points="929.85 532.26 893.44 495.86 879.44 509.86 915.84 546.26 879.44 582.67 893.44 596.67 929.85 560.27 943.85 546.26 929.85 532.26" style="fill:#f74646"/><path d="M1062.06,579.08h-55.84V564.56c2.35-1.67,3.8-2.79,4.47-3.23l9-6.48a185.64,185.64,0,0,0,19.2-16.08c3.69-3.8,5.59-7.71,5.59-11.62,0-5.92-4.13-9.94-10.28-9.94-7.37,0-11.5,4.69-12.62,14.3l-15.41-3.46c3.46-16.53,13.07-24.57,28.93-24.57,8.15,0,13.62,1.67,18.54,5.69a21.67,21.67,0,0,1,8.6,17.76c0,9.38-4.25,16.19-15.64,24.9-4.36,3.35-8.71,6.15-19,12.4h35.63Z" style="fill:#26529a"/><path d="M1075,518.67c12.07-3.47,21.56-9.16,25.13-15.19h12.62v62h15.66v13.62h-49.3V565.46h16.55V522.91c-9.38,5.69-15.18,8.82-20.66,11.05Z" style="fill:#26529a"/></svg>