<svg xmlns="http://www.w3.org/2000/svg" viewBox="0 0 1500 1500"><path d="M416.36,469.39C414.77,489.58,403,502,385.21,502c-21.4,0-33.55-16.69-33.55-45.87,0-29.4,12.15-46,33.81-46,11.12,0,19.54,4.45,24.76,13,3.47,5.61,4.93,11.35,5.74,21.53L398,446c-.51-7.75-1.07-10.83-2.78-13.91-2.27-4-5.51-6-9.63-6-9.5,0-13.39,9.24-13.39,31.57,0,20.2,3.89,28.46,13.39,28.46,7.07,0,11.08-5.6,12.54-17.89Z" style="fill:#26529a"/><path d="M487.12,418.69c7.23,7.91,10.7,19.94,10.7,37.44,0,30.25-11.09,45.87-32.35,45.87s-32.35-15.62-32.35-45.58q0-46.34,32.74-46.29C474.41,410.13,482.06,413.21,487.12,418.69ZM453.7,455.87c0,22.6,2.95,30.21,11.77,30.21s11.76-7.61,11.76-30.08c0-22.17-3.07-29.95-11.63-29.95C456.78,426.05,453.7,433.54,453.7,455.87Z" style="fill:#26529a"/><path d="M540.35,411.5l22.75,55.33V411.5h15.24v89.17H560.83l-27-64.57v64.57H518.56V411.5Z" style="fill:#26529a"/><path d="M655.26,411.5v15.36H622v23.28h25.67V465.5H622v35.17H602.46V411.5Z" style="fill:#26529a"/><path d="M723.75,411.5v15.36H689.13v20.58h27v15.4h-27v21.92h34.62v15.91H669.62V411.5Z" style="fill:#26529a"/><path d="M769.26,411.5c12,0,15.92.94,21.14,4.66,6.16,4.67,9.63,12.58,9.63,22.34,0,11.34-3.63,17.92-12.58,23.27l16.43,38.9H782.49l-11.9-35.17h-9.75v35.17H741.32V411.5Zm-8.42,39.58h8.55c7.49,0,11.51-4.58,11.51-13,0-4.28-1.33-7.91-3.89-10.05-1.72-1.46-4.15-2.14-8.43-2.14h-7.74Z" style="fill:#26529a"/><path d="M876.3,411.5v15.36H841.65v20.58h27v15.4h-27v21.92H876.3v15.91H822.13V411.5Z" style="fill:#26529a"/><path d="M914.81,411.5l22.75,55.33V411.5H952.8v89.17H935.3l-27-64.57v64.57H893V411.5Z" style="fill:#26529a"/><path d="M1038.54,469.39C1037,489.58,1025.18,502,1007.39,502c-21.4,0-33.55-16.69-33.55-45.87,0-29.4,12.15-46,33.81-46,11.12,0,19.54,4.45,24.76,13,3.47,5.61,4.93,11.35,5.74,21.53L1020.22,446c-.51-7.75-1.07-10.83-2.78-13.91-2.27-4-5.51-6-9.63-6-9.5,0-13.39,9.24-13.39,31.57,0,20.2,3.89,28.46,13.39,28.46,7.07,0,11.08-5.6,12.54-17.89Z" style="fill:#26529a"/><path d="M1112,411.5v15.36h-34.62v20.58h27v15.4h-27v21.92H1112v15.91h-54.13V411.5Z" style="fill:#26529a"/><path d="M345.58,190.17V328.72a1.25,1.25,0,0,1-1.25,1.25H255.21a1.25,1.25,0,0,1-1.25-1.25V190.17a.09.09,0,0,0-.08-.08H172.82a1.25,1.25,0,0,1-1.25-1.25V126.47a1.25,1.25,0,0,1,1.25-1.25H426.41a1.26,1.26,0,0,1,1.26,1.25v62.37a1.26,1.26,0,0,1-1.26,1.25H345.67A.09.09,0,0,0,345.58,190.17Z" style="fill:#26529a"/><path d="M637.1,328.72V259A.08.08,0,0,0,637,259H556a.09.09,0,0,0-.09.09v69.68a1.25,1.25,0,0,1-1.25,1.25h-88.8a1.25,1.25,0,0,1-1.25-1.25V126.47a1.25,1.25,0,0,1,1.25-1.25h88.8a1.25,1.25,0,0,1,1.25,1.25V202a.09.09,0,0,0,.09.09h81a.08.08,0,0,0,.08-.09V126.47a1.25,1.25,0,0,1,1.26-1.25h89.1a1.25,1.25,0,0,1,1.25,1.25V328.72a1.25,1.25,0,0,1-1.25,1.25h-89.1A1.25,1.25,0,0,1,637.1,328.72Z" style="fill:#26529a"/><path d="M1210,190.17V328.72a1.25,1.25,0,0,1-1.25,1.25H1119.6a1.25,1.25,0,0,1-1.25-1.25V190.17a.09.09,0,0,0-.09-.08H1037.2a1.25,1.25,0,0,1-1.25-1.25V126.47a1.25,1.25,0,0,1,1.25-1.25h253.6a1.25,1.25,0,0,1,1.25,1.25v62.37a1.25,1.25,0,0,1-1.25,1.25h-80.74A.09.09,0,0,0,1210,190.17Z" style="fill:#26529a"/><path d="M1051.84,329.85,955.38,125.27a.1.1,0,0,0-.08,0H806.54a1.25,1.25,0,0,0-1.25,1.25l14.58,49,4,14.58L759.27,329.85a.08.08,0,0,0,.07.12h78.83a.09.09,0,0,0,.08-.05l15.94-35.25a.08.08,0,0,1,.07-.05H939a.1.1,0,0,1,.08.05l13.78,34.51a1.25,1.25,0,0,0,1.17.79h97.71A.09.09,0,0,0,1051.84,329.85Zm-131-82.28H874.63a.08.08,0,0,1-.08-.12L899,191.52a.09.09,0,0,1,.16,0l21.7,55.94S920.85,247.57,920.79,247.57Z" style="fill:#26529a"/><path d="M1362.43,144.55a20.37,20.37,0,0,1-20.77,20.53,20.59,20.59,0,0,1-21-20.53c0-11.27,9.31-20.33,21-20.33A20.35,20.35,0,0,1,1362.43,144.55Zm-36.51,0c0,7.74,4.91,14.11,12.09,15.77,10.26,2.37,19.72-6,19.24-16.51-.4-8.64-6.85-15.49-15.59-15.49C1332.6,128.32,1325.92,135.63,1325.92,144.55Zm12.33,10.64h-4.34a.16.16,0,0,1-.17-.17V135a.17.17,0,0,1,.14-.17,44,44,0,0,1,7.64-.59c3.82,0,5.57.61,7,1.51h0a5.63,5.63,0,0,1,2,4.44c0,2.24-1.72,4-4.2,4.68v.28c2,.72,3.1,2.2,3.72,4.93a19.52,19.52,0,0,0,1.33,4.84.17.17,0,0,1-.15.25h-4.68a.18.18,0,0,1-.14-.06c-.59-.8-1-2.62-1.57-4.9-.37-2.24-1.61-3.2-4.2-3.2h-2.07a.18.18,0,0,0-.17.17V155A.17.17,0,0,1,1338.25,155.19Zm.31-11.68a.18.18,0,0,0,.17.18h2.07c2.58,0,4.68-.9,4.68-3,0-1.86-1.34-3.1-4.34-3.1a10.25,10.25,0,0,0-2.45.24.17.17,0,0,0-.13.17Z" style="fill:#26529a"/><path d="M602.26,662.41V684.2h25.19V662.41h6.8v52.08h-6.8V690.07H602.26v24.42h-6.73V662.41Z"/><path d="M649.47,697c.15,9.19,6,13,12.83,13a24.63,24.63,0,0,0,10.35-1.93l1.16,4.86a30.33,30.33,0,0,1-12.44,2.32c-11.51,0-18.39-7.57-18.39-18.85s6.64-20.17,17.54-20.17c12.21,0,15.45,10.74,15.45,17.62a25.31,25.31,0,0,1-.23,3.17Zm19.93-4.87c.08-4.33-1.77-11-9.42-11-6.88,0-9.89,6.33-10.43,11Z"/><path d="M705.11,714.49l-.55-4.72h-.23a13.9,13.9,0,0,1-11.43,5.57c-7.58,0-11.44-5.33-11.44-10.74,0-9,8-14,22.49-13.91v-.77c0-3.09-.85-8.66-8.5-8.66a18.65,18.65,0,0,0-9.74,2.78l-1.54-4.48a23.19,23.19,0,0,1,12.28-3.32c11.44,0,14.22,7.8,14.22,15.3v14a52,52,0,0,0,.62,9Zm-1-19.09c-7.42-.15-15.84,1.16-15.84,8.43,0,4.4,2.94,6.49,6.41,6.49a9.31,9.31,0,0,0,9-6.26,6.9,6.9,0,0,0,.39-2.17Z"/><path d="M753.94,659.63v45.2c0,3.32.08,7.11.31,9.66h-6.1l-.31-6.49h-.16c-2.08,4.17-6.64,7.34-12.75,7.34-9,0-16-7.65-16-19-.08-12.44,7.65-20.09,16.77-20.09,5.71,0,9.58,2.7,11.28,5.72h.15V659.63Zm-6.8,32.68a12.11,12.11,0,0,0-.31-2.86,10,10,0,0,0-9.81-7.88c-7,0-11.21,6.18-11.21,14.45,0,7.57,3.71,13.83,11.05,13.83a10.21,10.21,0,0,0,10-8.11,12,12,0,0,0,.31-2.94Z"/><path d="M772.79,666.58a4.21,4.21,0,0,1-8.42,0,4.15,4.15,0,0,1,4.25-4.25A4,4,0,0,1,772.79,666.58Zm-7.57,47.91v-37.4H772v37.4Z"/><path d="M783.3,687.21c0-3.86-.07-7-.3-10.12h6l.39,6.18h.15a13.77,13.77,0,0,1,12.37-7c5.17,0,13.21,3.09,13.21,15.92v22.33h-6.8V692.93c0-6-2.24-11-8.65-11A10,10,0,0,0,790.1,692v22.49h-6.8Z"/><path d="M858.41,677.09c-.15,2.7-.31,5.72-.31,10.28v21.71c0,8.58-1.7,13.83-5.33,17.08s-8.89,4.48-13.6,4.48c-4.48,0-9.43-1.08-12.44-3.09l1.7-5.18a21,21,0,0,0,11,2.94c7,0,12.06-3.64,12.06-13.06v-4.17h-.16c-2.08,3.47-6.1,6.25-11.9,6.25-9.27,0-15.91-7.88-15.91-18.23,0-12.67,8.26-19.86,16.84-19.86,6.49,0,10,3.4,11.67,6.49h.15l.31-5.64Zm-7,14.76a9.62,9.62,0,0,0-.39-3.09,9.79,9.79,0,0,0-9.5-7.19c-6.49,0-11.13,5.49-11.13,14.14,0,7.34,3.71,13.45,11,13.45a10,10,0,0,0,9.43-7,11.71,11.71,0,0,0,.54-3.63Z"/><path d="M868.46,707.53a17.75,17.75,0,0,0,9,2.71c5,0,7.26-2.47,7.26-5.57s-1.93-5-6.95-6.87c-6.72-2.4-9.89-6.11-9.89-10.59,0-6,4.87-11,12.9-11a18.65,18.65,0,0,1,9.2,2.32l-1.7,4.94a14.62,14.62,0,0,0-7.65-2.16c-4,0-6.26,2.32-6.26,5.1,0,3.09,2.24,4.48,7.11,6.34,6.49,2.47,9.81,5.71,9.81,11.28,0,6.56-5.1,11.2-14,11.2a21.25,21.25,0,0,1-10.51-2.55Z"/><path d="M898.36,683.27A4.57,4.57,0,0,1,903,678.4c2.7,0,4.48,2,4.56,4.87a4.6,4.6,0,1,1-9.2,0Zm0,27.28a4.57,4.57,0,0,1,4.64-4.87c2.7,0,4.48,2,4.56,4.87a4.6,4.6,0,1,1-9.2,0Z"/><path d="M355.8,778.08h11.36v8.58H355.8v20.56H345.21V755.68h25.35v9H355.8Z"/><path d="M372.1,769.12H381v9.2c1.85-7,4.17-10,8-10a16.39,16.39,0,0,1,2.55.31V779a11.18,11.18,0,0,0-1.47-.08c-5.56,0-8,3.25-8,10.59v17.7h-9.9Z"/><path d="M409.89,807.22c-.54-1.09-.62-1.78-.62-4.64-1.93,3.48-4.79,5.41-8.11,5.41-5,0-8.12-4-8.12-10.66,0-5.34,2.25-9.35,6.42-11.67,2.24-1.24,4.56-1.78,9.19-2.09-.07-6.64-.54-8-2.7-8-1.86,0-2.78,1.62-3.09,5.64l-8.73-1c.92-7.73,5.17-11.82,12.21-11.82,4.48,0,8.19,1.62,10,4.4,1.39,2,1.78,4.48,1.78,10.82V802.5a14.9,14.9,0,0,0,.46,4.72Zm-1.24-18.39c-4.09.69-5.71,2.85-5.71,7.57,0,3.24.77,4.71,2.47,4.71a2.92,2.92,0,0,0,2.7-2.32c.39-1.62.54-3.4.54-8.19Z"/><path d="M423.8,769.12h8.89v5.56c1.93-4.63,4.25-6.33,8.5-6.33,3.09,0,5.56,1,6.87,2.94,1.32,1.77,1.7,3.94,1.7,9.27v26.66h-9.89V781.33c0-2.32-.15-3.17-.54-3.71a2.9,2.9,0,0,0-2.47-1.08c-2.32,0-3.17,1.31-3.17,4.79v25.89H423.8Z"/><path d="M455.4,755.68h9.89v26.89l7.65-13.45h9.28l-9,13.52,9.66,24.58H472.63l-5.17-16.54-2.17,3.63v12.91H455.4Z"/><path d="M485.77,755.68h9.89v51.54h-9.89Z"/><path d="M511.42,755.29V765.8h-9.89V755.29Zm-9.89,13.83h9.89v38.1h-9.89Z"/><path d="M517.3,769.12h8.88v5.56c1.94-4.63,4.25-6.33,8.5-6.33,3.09,0,5.57,1,6.88,2.94,1.31,1.77,1.7,3.94,1.7,9.27v26.66h-9.89V781.33c0-2.32-.16-3.17-.54-3.71a2.91,2.91,0,0,0-2.47-1.08c-2.32,0-3.17,1.31-3.17,4.79v25.89H517.3Z"/><path d="M580.12,807.22h-4.56L574.32,801c-2.39,5.18-5.1,7-10.27,7-10.51,0-15.77-8.73-15.77-25.89,0-17.69,5.88-27.2,16.85-27.2,8.88,0,13.83,5.8,14.91,17.54L571.31,774c-1.16-8-2.39-9.89-6.18-9.89-4.64,0-6,3.94-6,18.47,0,12.13,1.54,16.22,6.1,16.22,3.94,0,5.64-3,5.64-10.2h-6.41V780h15.61Z"/><path d="M611.88,788.13c0,13.14-4.64,19.86-13.68,19.86-3.79,0-7-1.24-8.89-3.56-2.93-3.47-4.56-9.27-4.56-16.38,0-12.82,4.87-19.7,13.84-19.7C607.16,768.35,611.88,775.46,611.88,788.13ZM595,787.05c0,12.13.47,14,3.32,14s3.25-2,3.25-13.21c0-10.35-.54-12.52-3.17-12.52C595.57,775.3,595,777.08,595,787.05Z"/><path d="M619.14,757.45l8.58-.69v12.36h6v8h-6v16.07c0,4.87.77,6,4,6a14.19,14.19,0,0,0,2.47-.23l-.08,7.88a21.89,21.89,0,0,1-6.41,1c-3.25,0-6.34-1.16-7.81-3-1.7-2.08-2.08-4.25-2.08-11.28V777.08h-4.1v-8h4.56Z"/><path d="M637.07,755.68H647v18.39c1.54-4.1,3.71-5.72,7.73-5.72,3,0,5.4,1.08,6.8,3,1.08,1.55,1.54,4.1,1.54,8.27v27.59h-9.89V780.79c0-3.4-.62-4.33-3-4.33s-3.17,1.08-3.17,4.72v26h-9.89Z"/><path d="M678.56,755.29V765.8h-9.89V755.29Zm-9.89,13.83h9.89v38.1h-9.89Z"/><path d="M700.74,783.42c-.23-3.56-.39-4.56-.85-5.57-.62-1.62-1.55-2.31-2.86-2.31-2.86,0-3.71,2.85-3.71,12.51s.77,12.29,3.71,12.29c2.63,0,3.63-2,4.17-8l8.27.62c-.31,5-.93,7.49-2.39,9.81a11.54,11.54,0,0,1-10.2,5.18c-3.71,0-7.11-1.24-9.12-3.32-3-3.17-4.72-8.89-4.72-16.31,0-12.9,5-20,13.91-20,7.88,0,12.37,5.18,12.67,14.53Z"/><path d="M743,755.68v32.76c0,7.88,1.16,10,5.56,10a4.05,4.05,0,0,0,3.79-2.24c.77-1.39,1-3.4,1-8.34V755.68h9V787.9c0,9.12-1.24,13.83-4.41,16.77-2.39,2.24-5.8,3.32-10.51,3.32-11,0-15-5.1-15-19.16V755.68Z"/><path d="M769.74,755.68H783c7,0,9.43.69,12,3.32,2.86,3,4.25,7,4.25,12,0,6.95-1.93,10.89-6.72,13.9l7.8,22.34H789.22L783.34,787H780.1v20.25H769.74ZM783,778.47c3.87,0,5.72-2.47,5.72-7.49,0-4.79-1.85-7.19-5.72-7.19H780.1v14.68Z"/><path d="M801.5,755.68h11.21l2.86,24.41c.46,4.18.77,7.5,1,13.37.31-4.63.85-9.42,1.7-14.83l3.71-23h9.5l4.1,24.11c.46,2.85.62,4.4,1.31,13.67.39-7.34.7-11.51,1.16-14.83l3.09-23h9.12l-9.35,51.54h-9.27L827.23,782A73.29,73.29,0,0,1,826,770.36c-.39,4.09-.93,8.73-1.39,11.59l-4.41,25.27h-9.27Z"/><path d="M893.76,775.54c-.3-8.35-1.85-11.44-5.87-11.44-4.4,0-5.72,4.17-5.72,18.23,0,12.75,1.24,16.46,5.57,16.46,3.94,0,5.33-2.31,6-10.27l9,.69c-.39,5.64-1.24,9-3,12.06-2.78,4.63-6.64,6.72-12.28,6.72Q871,808,871,781.56c0-17.31,5.87-26.66,16.77-26.66,6.26,0,10.81,2.86,13.13,8.12,1.24,2.86,1.86,6.1,2.24,11.74Z"/><path d="M933.25,788.13c0,13.14-4.64,19.86-13.68,19.86-3.78,0-7-1.24-8.88-3.56-2.94-3.47-4.56-9.27-4.56-16.38,0-12.82,4.87-19.7,13.83-19.7C928.54,768.35,933.25,775.46,933.25,788.13Zm-16.85-1.08c0,12.13.47,14,3.33,14s3.24-2,3.24-13.21c0-10.35-.54-12.52-3.17-12.52C917,775.3,916.4,777.08,916.4,787.05Z"/><path d="M937.81,769.12h8.88v5.64c1.78-4.71,3.87-6.41,7.89-6.41s6.18,1.54,7.88,6c1.39-4.33,3.47-6,7.42-6,3.32,0,5.87,1.23,7.1,3.55.93,1.55,1.32,4.1,1.32,8.5v26.82h-9.66V780.4c0-2.93-.7-3.86-2.86-3.86-2.32,0-2.94,1.24-2.94,5.64v25h-9.65V781c0-3.55-.55-4.48-2.71-4.48-2.32,0-3,1.16-3,4.94v25.74h-9.66Z"/><path d="M983.94,769.12h8.58v4.25c2.16-3.4,4.17-4.71,7.1-4.71,6.34,0,10,6.88,10,18.77,0,6.73-1.08,12.37-3.09,16.08a7.9,7.9,0,0,1-7,4.17c-2.47,0-4.1-.93-5.95-3.09v15.53h-9.66Zm9.66,25.19c0,5,.54,6.41,2.63,6.41,2.39,0,3.16-3,3.16-12.74s-.61-12.14-3.16-12.14c-1.86,0-2.63,1.39-2.63,4.79Z"/><path d="M1033.7,755.68h9.89c7.88,0,11.36.85,14.76,3.55,4.79,3.94,7.27,11.36,7.27,21.56,0,11.13-2.63,18.93-7.81,23.18-2.78,2.24-5.87,3.25-10.28,3.25H1033.7Zm13.45,42.49c2.62,0,4.32-.69,5.25-2.08,1.39-2.24,2-7,2-14.53,0-6.88-.69-12-1.85-14.29-1-1.78-2.71-2.63-5.41-2.63h-3.09v33.53Z"/><path d="M1079.37,789.91v1.39c0,6.64,1.16,9.12,4.17,9.12,2.4,0,3.4-1.55,4-6.26l8.19.69a14.8,14.8,0,0,1-3.63,9.51c-2.16,2.47-5.1,3.63-9,3.63q-13.68,0-13.68-19.47c0-13.06,4.79-20.17,13.6-20.17,5.56,0,9.43,2.86,11.51,8.34,1.08,2.86,1.47,6.73,1.47,13.22Zm7.5-6.26c-.08-5.87-1.09-8.35-3.56-8.35s-3.71,2.24-4,8.35Z"/><path d="M1099.85,769.12h8.88v5.64c1.78-4.71,3.87-6.41,7.89-6.41,4.17,0,6.18,1.54,7.88,6,1.39-4.33,3.47-6,7.42-6,3.32,0,5.87,1.23,7.1,3.55.93,1.55,1.32,4.1,1.32,8.5v26.82h-9.66V780.4c0-2.93-.7-3.86-2.86-3.86-2.32,0-2.94,1.24-2.94,5.64v25h-9.66V781c0-3.55-.54-4.48-2.7-4.48-2.32,0-3,1.16-3,4.94v25.74h-9.66Z"/><path d="M1155.79,755.29V765.8h-9.89V755.29Zm-9.89,13.83h9.89v38.1h-9.89Z"/><path d="M664.65,848.56a65.11,65.11,0,0,1,12.29-1.08c6.72,0,11,1.16,14.29,3.78a10.91,10.91,0,0,1,4.33,9.2c0,5-3.32,9.42-8.81,11.43v.16c5,1.24,10.74,5.33,10.74,13.06a14,14,0,0,1-4.4,10.43c-3.63,3.32-9.51,4.87-18,4.87a78.4,78.4,0,0,1-10.43-.62Zm6.73,21.32h6.1c7.11,0,11.28-3.7,11.28-8.73,0-6.1-4.63-8.5-11.43-8.5a28.81,28.81,0,0,0-6,.47Zm0,25a34.85,34.85,0,0,0,5.64.31c7,0,13.36-2.55,13.36-10.12,0-7.11-6.1-10-13.44-10h-5.56Z"/><path d="M740.46,880.93c0,13.84-9.58,19.86-18.63,19.86-10.12,0-17.92-7.41-17.92-19.24,0-12.51,8.19-19.86,18.54-19.86C733.19,861.69,740.46,869.5,740.46,880.93Zm-29.67.39c0,8.19,4.71,14.37,11.35,14.37s11.36-6.1,11.36-14.52c0-6.34-3.17-14.38-11.2-14.38S710.79,874.21,710.79,881.32Z"/><path d="M781.33,845.08v45.2c0,3.33.08,7.11.31,9.66h-6.1l-.31-6.49h-.16c-2.08,4.17-6.64,7.34-12.74,7.34-9.05,0-16-7.65-16-19-.08-12.45,7.65-20.1,16.77-20.1,5.72,0,9.58,2.71,11.28,5.72h.15V845.08Zm-6.8,32.69a11.61,11.61,0,0,0-.31-2.86,10,10,0,0,0-9.81-7.88c-7,0-11.2,6.18-11.2,14.45,0,7.57,3.71,13.83,11,13.83a10.21,10.21,0,0,0,10-8.12,11.36,11.36,0,0,0,.31-2.93Z"/><path d="M795.09,862.54l8.19,22.1c.85,2.48,1.78,5.41,2.39,7.65h.16c.7-2.24,1.47-5.1,2.39-7.8l7.42-22h7.19l-10.2,26.66c-4.87,12.83-8.19,19.4-12.83,23.42a18.46,18.46,0,0,1-8.34,4.4l-1.7-5.72a18,18,0,0,0,6-3.32,20.66,20.66,0,0,0,5.71-7.57,5,5,0,0,0,.55-1.63,6,6,0,0,0-.47-1.77l-13.83-34.47Z"/><path d="M829.24,868.73a4.57,4.57,0,0,1,4.64-4.87c2.7,0,4.48,2,4.56,4.87a4.6,4.6,0,1,1-9.2,0Zm0,27.27a4.57,4.57,0,0,1,4.64-4.87c2.7,0,4.48,2,4.56,4.87a4.6,4.6,0,1,1-9.2,0Z"/><path d="M611.43,965q0,13.25-6.69,20.83t-18.62,7.58q-12.2,0-18.81-7.45t-6.62-21q0-13.47,6.64-20.89t18.86-7.41q11.88,0,18.56,7.55T611.43,965Zm-43.95,0q0,11.21,4.77,17t13.87,5.79q9.17,0,13.84-5.77t4.68-17q0-11.13-4.66-16.88t-13.79-5.75q-9.16,0-13.94,5.79T567.48,965Z"/><path d="M642,993.42a17.75,17.75,0,0,1-7.37-1.49,13.85,13.85,0,0,1-5.61-4.58h-.45a55.71,55.71,0,0,1,.45,6.87v17h-6.26V951.32h5.09l.87,5.66h.3a14.59,14.59,0,0,1,5.62-4.91,17.22,17.22,0,0,1,7.36-1.51q8.24,0,12.7,5.62T659.2,972q0,10.18-4.55,15.82T642,993.42Zm-.9-37.54q-6.35,0-9.17,3.51t-2.91,11.17V972q0,8.71,2.91,12.47t9.32,3.75a9.69,9.69,0,0,0,8.39-4.34q3-4.33,3-12t-3-11.87A10,10,0,0,0,641.13,955.88Z"/><path d="M687.61,993.42q-9.17,0-14.47-5.58t-5.3-15.51q0-10,4.92-15.88A16.37,16.37,0,0,1,686,950.56q7.77,0,12.3,5.11t4.53,13.49v4H674.33q.2,7.29,3.68,11.06t9.83,3.77a33.3,33.3,0,0,0,13.2-2.79v5.59a32.93,32.93,0,0,1-6.28,2A35,35,0,0,1,687.61,993.42Zm-1.7-37.61a10.24,10.24,0,0,0-7.94,3.24,15,15,0,0,0-3.49,9H696.1q0-5.92-2.64-9.07A9.3,9.3,0,0,0,685.91,955.81Z"/><path d="M741.79,992.67V965.92c0-3.37-.76-5.89-2.3-7.55s-3.94-2.49-7.2-2.49q-6.49,0-9.51,3.51t-3,11.58v21.7H713.5V951.32h5.09l1,5.66h.3a12.78,12.78,0,0,1,5.39-4.74,17.57,17.57,0,0,1,7.74-1.68q7.47,0,11.24,3.61t3.78,11.52v27Z"/><path d="M813.07,978q0,7.29-5.29,11.36t-14.33,4.07q-9.81,0-15.1-2.52v-6.19a39.28,39.28,0,0,0,7.4,2.26,38.48,38.48,0,0,0,7.92.83q6.42,0,9.66-2.43a8,8,0,0,0,3.25-6.77,8.75,8.75,0,0,0-1.15-4.7,10.7,10.7,0,0,0-3.85-3.38,54.42,54.42,0,0,0-8.21-3.51q-7.7-2.75-11-6.52a14.43,14.43,0,0,1-3.3-9.85,12.25,12.25,0,0,1,4.79-10.15q4.8-3.78,12.68-3.78a37.4,37.4,0,0,1,15.13,3l-2,5.59a34.22,34.22,0,0,0-13.28-2.87q-5.1,0-8,2.19a7.21,7.21,0,0,0-2.87,6.07,9.26,9.26,0,0,0,1.06,4.7,9.93,9.93,0,0,0,3.56,3.36,44.9,44.9,0,0,0,7.68,3.38q8.68,3.09,11.94,6.64A13,13,0,0,1,813.07,978Z"/><path d="M848.84,992.67l-1.25-5.89h-.3a17.33,17.33,0,0,1-6.17,5.27,19,19,0,0,1-7.68,1.37q-6.15,0-9.64-3.17t-3.49-9q0-12.53,20-13.13l7-.23v-2.56c0-3.25-.69-5.65-2.09-7.19s-3.63-2.32-6.7-2.32A27.18,27.18,0,0,0,826.88,959l-1.93-4.8a29.82,29.82,0,0,1,6.7-2.6,29,29,0,0,1,7.3-.94q7.39,0,11,3.28t3.57,10.53v28.22Zm-14.15-4.41q5.85,0,9.18-3.21t3.34-9v-3.74l-6.26.27q-7.47.25-10.77,2.32a7,7,0,0,0-3.3,6.39,6.44,6.44,0,0,0,2,5.17A8.5,8.5,0,0,0,834.69,988.26Z"/><path d="M894.68,992.67V965.92q0-5.05-2.3-7.55t-7.21-2.49q-6.49,0-9.51,3.51t-3,11.58v21.7h-6.26V951.32h5.09l1,5.66h.3a12.87,12.87,0,0,1,5.4-4.74,17.51,17.51,0,0,1,7.74-1.68q7.47,0,11.24,3.61t3.77,11.52v27Z"/><path d="M940.48,981.39a10.33,10.33,0,0,1-4.3,8.9q-4.3,3.13-12.07,3.13-8.24,0-12.83-2.6V985a31,31,0,0,0,6.39,2.38,26.73,26.73,0,0,0,6.59.87,15,15,0,0,0,7.55-1.57,5.38,5.38,0,0,0,.54-8.9q-2.08-1.72-8.17-4.06A44.35,44.35,0,0,1,916,970a11,11,0,0,1-3.62-3.64,9.39,9.39,0,0,1-1.19-4.86,9.28,9.28,0,0,1,4.11-8q4.11-2.93,11.28-2.93a33.1,33.1,0,0,1,13.06,2.72l-2.23,5.09a30,30,0,0,0-11.28-2.56q-4.46,0-6.72,1.39a4.32,4.32,0,0,0-2.26,3.85,4.66,4.66,0,0,0,.85,2.83,8.33,8.33,0,0,0,2.73,2.23,61.39,61.39,0,0,0,7.25,3q7.35,2.69,9.94,5.4A9.53,9.53,0,0,1,940.48,981.39Z"/><rect x="351.92" y="1125.57" width="86" height="86" style="fill:#1f2964;stroke:#000;stroke-miterlimit:10;stroke-width:4px"/><path d="M497.85,1161.27l-1.61,8.3h6.91v3.15h-7.5l-2,10.49h-3.35l2.06-10.49h-7.4l-2,10.49h-3.32l2-10.49h-6.4v-3.15h7l1.66-8.3h-6.76v-3.1h7.3l2-10.65h3.39l-2,10.65h7.45l2.05-10.65h3.27l-2.05,10.65h6.44v3.1Zm-12.36,8.3h7.4l1.61-8.3h-7.39Z"/><path d="M523.65,1183.21H519.7v-25.44q0-3.16.19-6c-.34.34-.72.7-1.14,1.07s-2.36,2-5.81,4.76l-2.15-2.78,9.45-7.3h3.41Z"/><path d="M551.14,1159.61h-6.81v23.6h-4.05v-23.6h-4.79v-1.84l4.79-1.46v-1.49q0-9.85,8.62-9.86a17.76,17.76,0,0,1,5,.85l-1,3.25a13.26,13.26,0,0,0-4-.76,3.89,3.89,0,0,0-3.39,1.53,8.51,8.51,0,0,0-1.1,4.89v1.74h6.81Z"/><path d="M577.63,1183.21H554.17v-3.49l9.4-9.45a68.08,68.08,0,0,0,5.66-6.2,15.6,15.6,0,0,0,2.06-3.61,10.44,10.44,0,0,0,.68-3.78,6,6,0,0,0-1.73-4.53,6.63,6.63,0,0,0-4.81-1.68,12.08,12.08,0,0,0-4.22.74,16.85,16.85,0,0,0-4.43,2.66l-2.15-2.76a16.49,16.49,0,0,1,10.75-4.1q5,0,7.88,2.57a8.85,8.85,0,0,1,2.86,6.92,13.36,13.36,0,0,1-1.91,6.72,42.52,42.52,0,0,1-7.12,8.4l-7.82,7.64v.19h18.36Z"/><path d="M606.22,1162.75q0,21-16.21,21a16.26,16.26,0,0,1-4.49-.49v-3.49a14.12,14.12,0,0,0,4.44.64q5.87,0,8.85-3.63t3.26-11.12h-.29a8.77,8.77,0,0,1-3.57,3.09,11.42,11.42,0,0,1-5,1.06,10,10,0,0,1-7.52-2.83c-1.86-1.89-2.78-4.52-2.78-7.91,0-3.71,1-6.64,3.11-8.79a10.85,10.85,0,0,1,8.19-3.22,11,11,0,0,1,6.36,1.87,11.85,11.85,0,0,1,4.19,5.44A22.3,22.3,0,0,1,606.22,1162.75Zm-12-12.28a6.69,6.69,0,0,0-5.4,2.25,9.37,9.37,0,0,0-1.9,6.25,8.14,8.14,0,0,0,1.76,5.53,6.72,6.72,0,0,0,5.34,2,9.25,9.25,0,0,0,4.09-.9,7.38,7.38,0,0,0,2.95-2.46,5.77,5.77,0,0,0,1.07-3.28,11.15,11.15,0,0,0-1-4.73,8.26,8.26,0,0,0-2.8-3.42A7,7,0,0,0,594.21,1150.47Z"/><path d="M611.76,1168q0-10.53,4.09-15.74T628,1147a16.15,16.15,0,0,1,4.35.46V1151a14.17,14.17,0,0,0-4.3-.61q-5.75,0-8.77,3.58t-3.32,11.24h.3q2.68-4.2,8.49-4.2a10,10,0,0,1,7.58,2.91,10.93,10.93,0,0,1,2.77,7.88q0,5.57-3,8.76a10.81,10.81,0,0,1-8.21,3.18,10.56,10.56,0,0,1-8.79-4.16Q611.77,1175.37,611.76,1168Zm12,12.3a6.78,6.78,0,0,0,5.38-2.18,9.31,9.31,0,0,0,1.92-6.32,8.11,8.11,0,0,0-1.78-5.56,6.72,6.72,0,0,0-5.32-2,9,9,0,0,0-4,.9,7.57,7.57,0,0,0-2.92,2.49,5.81,5.81,0,0,0-1.09,3.3,11.32,11.32,0,0,0,1,4.69,8.3,8.3,0,0,0,2.77,3.44A6.89,6.89,0,0,0,623.75,1180.26Z"/><path d="M665.08,1175h-5.29v8.2H655.9V1175H638.55v-3.54l16.94-24.14h4.3v24h5.29Zm-9.18-3.69v-11.86c0-2.33.09-5,.25-7.89H656a37.12,37.12,0,0,1-2.19,3.89l-11.16,15.86Z"/><rect x="351.92" y="1272.07" width="86" height="86" style="fill:#26529a;stroke:#000;stroke-miterlimit:10;stroke-width:4px"/><path d="M497.85,1307.77l-1.61,8.3h6.91v3.15h-7.5l-2,10.49h-3.35l2.06-10.49h-7.4l-2,10.49h-3.32l2-10.49h-6.4v-3.15h7l1.66-8.3h-6.76v-3.1h7.3l2-10.65h3.39l-2,10.65h7.45l2.05-10.65h3.27l-2.05,10.65h6.44v3.1Zm-12.36,8.3h7.4l1.61-8.3h-7.39Z"/><path d="M532.1,1329.71H508.64v-3.49l9.4-9.45a68.08,68.08,0,0,0,5.66-6.2,15.54,15.54,0,0,0,2-3.61,10.24,10.24,0,0,0,.69-3.78,6,6,0,0,0-1.74-4.53,6.61,6.61,0,0,0-4.81-1.68,12.07,12.07,0,0,0-4.21.74,16.85,16.85,0,0,0-4.43,2.66l-2.15-2.76a16.48,16.48,0,0,1,10.74-4.1q5,0,7.89,2.57a8.89,8.89,0,0,1,2.86,6.92,13.36,13.36,0,0,1-1.91,6.72,42.64,42.64,0,0,1-7.13,8.4l-7.81,7.64v.19H532.1Z"/><path d="M537.64,1314.46q0-10.53,4.09-15.74t12.1-5.21a16,16,0,0,1,4.34.46v3.49a14.06,14.06,0,0,0-4.29-.61q-5.75,0-8.77,3.58t-3.32,11.24h.3q2.68-4.2,8.49-4.2a10,10,0,0,1,7.58,2.91,10.93,10.93,0,0,1,2.77,7.88q0,5.57-3,8.76a10.81,10.81,0,0,1-8.21,3.18,10.56,10.56,0,0,1-8.79-4.16Q537.64,1321.87,537.64,1314.46Zm12,12.3a6.78,6.78,0,0,0,5.38-2.18,9.31,9.31,0,0,0,1.92-6.32,8.16,8.16,0,0,0-1.78-5.56,6.73,6.73,0,0,0-5.32-2,9,9,0,0,0-4,.9,7.57,7.57,0,0,0-2.92,2.49,5.81,5.81,0,0,0-1.09,3.3,11.32,11.32,0,0,0,1,4.69,8.23,8.23,0,0,0,2.77,3.44A6.89,6.89,0,0,0,549.63,1326.76Z"/><path d="M577,1307.91q5.64,0,8.88,2.8a9.59,9.59,0,0,1,3.23,7.65,11,11,0,0,1-3.53,8.69q-3.52,3.15-9.72,3.15-6,0-9.21-1.93v-3.9a14.23,14.23,0,0,0,4.25,1.72,21.2,21.2,0,0,0,5,.62,9.94,9.94,0,0,0,6.67-2,7.24,7.24,0,0,0,2.38-5.85q0-7.49-9.15-7.48a36.56,36.56,0,0,0-6.2.71l-2.1-1.34,1.34-16.7h17.75v3.74H572.29l-.91,10.71A28.8,28.8,0,0,1,577,1307.91Z"/><path d="M617.87,1329.71H594.41v-3.49l9.39-9.45a67.13,67.13,0,0,0,5.67-6.2,15.91,15.91,0,0,0,2-3.61,10.44,10.44,0,0,0,.68-3.78,6,6,0,0,0-1.73-4.53,6.63,6.63,0,0,0-4.81-1.68,12.07,12.07,0,0,0-4.21.74,16.54,16.54,0,0,0-4.43,2.66l-2.15-2.76a16.48,16.48,0,0,1,10.74-4.1q5,0,7.89,2.57a8.88,8.88,0,0,1,2.85,6.92,13.35,13.35,0,0,1-1.9,6.72,43,43,0,0,1-7.13,8.4l-7.81,7.64v.19h18.36Z"/><path d="M646.46,1309.25q0,21-16.21,21a16.39,16.39,0,0,1-4.5-.49v-3.49a14.18,14.18,0,0,0,4.45.64q5.85,0,8.85-3.63t3.26-11.12H642a8.68,8.68,0,0,1-3.56,3.09,11.44,11.44,0,0,1-5,1.06,10.07,10.07,0,0,1-7.52-2.83c-1.85-1.89-2.78-4.52-2.78-7.91q0-5.57,3.11-8.79a11.91,11.91,0,0,1,14.55-1.35,11.78,11.78,0,0,1,4.19,5.44A22.1,22.1,0,0,1,646.46,1309.25Zm-12-12.28a6.68,6.68,0,0,0-5.39,2.25,9.38,9.38,0,0,0-1.91,6.25,8.14,8.14,0,0,0,1.76,5.53,6.74,6.74,0,0,0,5.35,2,9.32,9.32,0,0,0,4.09-.9,7.42,7.42,0,0,0,2.94-2.46,5.7,5.7,0,0,0,1.07-3.28,11.15,11.15,0,0,0-1-4.73,8.24,8.24,0,0,0-2.79-3.42A7.06,7.06,0,0,0,634.44,1297Z"/><path d="M669.89,1329.71l-.8-3.8h-.2a11.19,11.19,0,0,1-4,3.4,12.08,12.08,0,0,1-5,.89,8.94,8.94,0,0,1-6.24-2,7.49,7.49,0,0,1-2.25-5.83q0-8.11,13-8.5l4.54-.15V1312a6.8,6.8,0,0,0-1.35-4.65,5.59,5.59,0,0,0-4.34-1.5,17.64,17.64,0,0,0-7.57,2.05l-1.24-3.1a19,19,0,0,1,4.33-1.68,18.66,18.66,0,0,1,4.73-.61c3.19,0,5.55.7,7.09,2.12s2.31,3.69,2.31,6.81v18.26Zm-9.15-2.85a8.19,8.19,0,0,0,5.94-2.08,7.67,7.67,0,0,0,2.16-5.81v-2.42l-4.05.18q-4.83.16-7,1.5a4.53,4.53,0,0,0-2.14,4.14,4.19,4.19,0,0,0,1.33,3.34A5.51,5.51,0,0,0,660.74,1326.86Z"/><rect x="833.92" y="1272" width="86" height="86" style="fill:#fff;stroke:#000;stroke-miterlimit:10;stroke-width:4px"/><path d="M979.85,1307.7l-1.61,8.3h6.91v3.15h-7.5l-2,10.5h-3.35l2.06-10.5h-7.4l-2,10.5h-3.32l1.95-10.5h-6.4V1316h7l1.66-8.3h-6.76v-3.1h7.3l2-10.64h3.39l-2,10.64h7.45l2-10.64h3.27l-2,10.64h6.44v3.1Zm-12.36,8.3h7.4l1.61-8.3h-7.39Z"/><path d="M1004.55,1306h-6.81v23.61h-4V1306h-4.78v-1.83l4.78-1.47v-1.49q0-9.86,8.62-9.86a17.82,17.82,0,0,1,5,.86l-1,3.24a13.52,13.52,0,0,0-4-.75,3.92,3.92,0,0,0-3.4,1.52,8.55,8.55,0,0,0-1.1,4.9v1.73h6.81Zm17,0h-6.81v23.61h-4.06V1306h-4.78v-1.83l4.78-1.47v-1.49q0-9.86,8.62-9.86a17.7,17.7,0,0,1,5,.86l-1.05,3.24a13.46,13.46,0,0,0-4-.75,3.9,3.9,0,0,0-3.39,1.52,8.47,8.47,0,0,0-1.1,4.9v1.73h6.81Z"/><path d="M1038.47,1306h-6.82v23.61h-4.05V1306h-4.78v-1.83l4.78-1.47v-1.49q0-9.86,8.62-9.86a17.7,17.7,0,0,1,5,.86l-1,3.24a13.52,13.52,0,0,0-4-.75,3.94,3.94,0,0,0-3.4,1.52,8.55,8.55,0,0,0-1.1,4.9v1.73h6.82Zm16.94,0h-6.81v23.61h-4.06V1306h-4.78v-1.83l4.78-1.47v-1.49q0-9.86,8.62-9.86a17.7,17.7,0,0,1,5,.86l-1.05,3.24a13.46,13.46,0,0,0-4-.75,3.9,3.9,0,0,0-3.39,1.52,8.47,8.47,0,0,0-1.1,4.9v1.73h6.81Z"/><path d="M1072.38,1306h-6.81v23.61h-4.06V1306h-4.78v-1.83l4.78-1.47v-1.49q0-9.86,8.62-9.86a17.7,17.7,0,0,1,5,.86l-1,3.24a13.52,13.52,0,0,0-4-.75,3.94,3.94,0,0,0-3.4,1.52,8.56,8.56,0,0,0-1.09,4.9v1.73h6.81Zm16.94,0h-6.81v23.61h-4V1306h-4.79v-1.83l4.79-1.47v-1.49q0-9.86,8.61-9.86a17.7,17.7,0,0,1,5,.86l-1,3.24a13.46,13.46,0,0,0-4-.75,3.9,3.9,0,0,0-3.39,1.52,8.55,8.55,0,0,0-1.1,4.9v1.73h6.81Z"/><rect x="833.92" y="1125.57" width="86" height="86" style="fill:#f74646;stroke:#000;stroke-miterlimit:10;stroke-width:4px"/><path d="M979.85,1161.27l-1.61,8.3h6.91v3.15h-7.5l-2,10.49h-3.35l2.06-10.49h-7.4l-2,10.49h-3.32l1.95-10.49h-6.4v-3.15h7l1.66-8.3h-6.76v-3.1h7.3l2-10.65h3.39l-2,10.65h7.45l2-10.65h3.27l-2,10.65h6.44v3.1Zm-12.36,8.3h7.4l1.61-8.3h-7.39Z"/><path d="M1004.55,1159.61h-6.81v23.6h-4v-23.6h-4.78v-1.84l4.78-1.46v-1.49q0-9.85,8.62-9.86a17.76,17.76,0,0,1,5,.85l-1,3.25a13.25,13.25,0,0,0-4-.76,3.91,3.91,0,0,0-3.4,1.53,8.51,8.51,0,0,0-1.1,4.89v1.74h6.81Z"/><path d="M1012.1,1183.21l14.79-32h-19.45v-3.74h23.75v3.25l-14.6,32.44Z"/><path d="M1061.32,1175H1056v8.2h-3.88V1175h-17.36v-3.54l16.94-24.14h4.3v24h5.3Zm-9.18-3.69v-11.86q0-3.49.24-7.89h-.19a37,37,0,0,1-2.2,3.89l-11.16,15.86Z"/><path d="M1065.17,1168q0-10.53,4.09-15.74t12.1-5.21a16.15,16.15,0,0,1,4.35.46V1151a14.17,14.17,0,0,0-4.3-.61q-5.75,0-8.76,3.58t-3.32,11.24h.29q2.69-4.2,8.49-4.2a10,10,0,0,1,7.59,2.91,11,11,0,0,1,2.77,7.88c0,3.71-1,6.63-3,8.76a10.85,10.85,0,0,1-8.22,3.18,10.58,10.58,0,0,1-8.79-4.16Q1065.18,1175.37,1065.17,1168Zm12,12.3a6.78,6.78,0,0,0,5.38-2.18,9.31,9.31,0,0,0,1.92-6.32,8.11,8.11,0,0,0-1.78-5.56,6.72,6.72,0,0,0-5.32-2,9,9,0,0,0-4,.9,7.64,7.64,0,0,0-2.92,2.49,5.79,5.79,0,0,0-1.08,3.3,11.32,11.32,0,0,0,1,4.69,8.3,8.3,0,0,0,2.77,3.44A6.89,6.89,0,0,0,1077.16,1180.26Z"/><path d="M1118.5,1175h-5.3v8.2h-3.88V1175H1092v-3.54l16.94-24.14h4.3v24h5.3Zm-9.18-3.69v-11.86q0-3.49.24-7.89h-.2a37.12,37.12,0,0,1-2.19,3.89L1096,1171.32Z"/><path d="M1122.35,1168q0-10.53,4.09-15.74t12.1-5.21a16,16,0,0,1,4.34.46V1151a14.06,14.06,0,0,0-4.29-.61q-5.74,0-8.77,3.58t-3.32,11.24h.3q2.68-4.2,8.49-4.2a10,10,0,0,1,7.58,2.91,10.93,10.93,0,0,1,2.77,7.88q0,5.57-3,8.76a10.81,10.81,0,0,1-8.21,3.18,10.56,10.56,0,0,1-8.79-4.16Q1122.35,1175.37,1122.35,1168Zm12,12.3a6.78,6.78,0,0,0,5.38-2.18,9.31,9.31,0,0,0,1.92-6.32,8.16,8.16,0,0,0-1.78-5.56,6.73,6.73,0,0,0-5.32-2,9,9,0,0,0-4,.9,7.57,7.57,0,0,0-2.92,2.49,5.81,5.81,0,0,0-1.09,3.3,11.32,11.32,0,0,0,1,4.69,8.23,8.23,0,0,0,2.77,3.44A6.89,6.89,0,0,0,1134.34,1180.26Z"/></svg>