<svg xmlns="http://www.w3.org/2000/svg" viewBox="0 0 1500 1500"><path d="M1250,1009.12a17,17,0,1,1-16.94-16.57A16.62,16.62,0,0,1,1250,1009.12Zm-29.77,0a12.86,12.86,0,0,0,9.86,12.86c8.36,1.93,16.08-4.89,15.68-13.46-.32-7-5.58-12.63-12.71-12.63C1225.68,995.89,1220.23,1001.85,1220.23,1009.12Zm10,8.68h-3.53a.14.14,0,0,1-.14-.14v-16.31a.13.13,0,0,1,.11-.14,35.73,35.73,0,0,1,6.23-.49c3.11,0,4.54.51,5.75,1.23l0,0a4.56,4.56,0,0,1,1.59,3.61c0,1.83-1.4,3.23-3.43,3.82v.23c1.63.59,2.53,1.79,3,4a15.82,15.82,0,0,0,1.09,4,.14.14,0,0,1-.13.2h-3.81a.14.14,0,0,1-.12-.06,15.75,15.75,0,0,1-1.27-4c-.31-1.83-1.32-2.62-3.43-2.62h-1.68a.15.15,0,0,0-.15.14v6.38A.14.14,0,0,1,1230.28,1017.8Zm.26-9.52a.14.14,0,0,0,.14.14h1.68c2.11,0,3.82-.73,3.82-2.44,0-1.52-1.09-2.53-3.54-2.53a8.15,8.15,0,0,0-2,.2.13.13,0,0,0-.1.13Z" style="fill:#26529a"/><path d="M441.39,1019.13V1121.7a.93.93,0,0,1-.93.93h-66a.92.92,0,0,1-.93-.93V1019.13a.07.07,0,0,0-.06-.07h-60a.93.93,0,0,1-.93-.92V972a.93.93,0,0,1,.93-.92H501.23a.93.93,0,0,1,.93.92v46.18a.93.93,0,0,1-.93.92H441.45A.07.07,0,0,0,441.39,1019.13Z" style="fill:#26529a"/><path d="M657.23,1121.7v-51.59a.07.07,0,0,0-.07-.06h-60a.06.06,0,0,0-.06.06v51.59a.93.93,0,0,1-.93.93H530.45a.93.93,0,0,1-.93-.93V972a.93.93,0,0,1,.93-.92H596.2a.93.93,0,0,1,.93.92v55.92a.06.06,0,0,0,.06.06h60a.07.07,0,0,0,.07-.06V972a.92.92,0,0,1,.92-.92h66a.93.93,0,0,1,.93.92V1121.7a.93.93,0,0,1-.93.93h-66A.92.92,0,0,1,657.23,1121.7Z" style="fill:#26529a"/><path d="M1081.37,1019.13V1121.7a.92.92,0,0,1-.92.93h-66a.92.92,0,0,1-.92-.93V1019.13a.07.07,0,0,0-.07-.07h-60a.93.93,0,0,1-.93-.92V972a.93.93,0,0,1,.93-.92h187.76a.93.93,0,0,1,.93.92v46.18a.93.93,0,0,1-.93.92h-59.78A.07.07,0,0,0,1081.37,1019.13Z" style="fill:#26529a"/><path d="M964.29,1122.54,892.87,971.07a.06.06,0,0,0-.06,0H782.67a.92.92,0,0,0-.92.92l10.79,36.31,3,10.79-47.87,103.48a.06.06,0,0,0,.06.09h58.36a.05.05,0,0,0,.06,0l11.8-26.1a.07.07,0,0,1,.06,0h62.75a.05.05,0,0,1,.06,0L891,1122.05a.92.92,0,0,0,.86.58h72.34A.06.06,0,0,0,964.29,1122.54Zm-97-60.92H833.09a.06.06,0,0,1-.06-.09l18.11-41.41a.07.07,0,0,1,.12,0l16.07,41.42A.06.06,0,0,1,867.27,1061.62Z" style="fill:#26529a"/><path d="M493.79,1225.86c-1.18,15-9.89,24.14-23.07,24.14-15.84,0-24.84-12.36-24.84-34,0-21.77,9-34.06,25-34.06,8.23,0,14.47,3.29,18.33,9.63,2.57,4.15,3.65,8.4,4.25,15.93l-13.27,1c-.39-5.74-.79-8-2.07-10.3-1.68-3-4.08-4.46-7.12-4.46-7,0-9.92,6.84-9.92,23.37,0,15,2.88,21.08,9.92,21.08,5.23,0,8.2-4.16,9.28-13.25Z" style="fill:#26529a"/><path d="M546.18,1188.32c5.35,5.86,7.92,14.76,7.92,27.72,0,22.39-8.21,34-24,34s-23.95-11.57-23.95-33.74q0-34.32,24.24-34.28C536.77,1182,542.44,1184.26,546.18,1188.32Zm-24.74,27.53c0,16.73,2.18,22.37,8.71,22.37s8.71-5.64,8.71-22.28c0-16.41-2.28-22.17-8.62-22.17C523.72,1193.77,521.44,1199.31,521.44,1215.85Z" style="fill:#26529a"/><path d="M585.59,1183l16.85,41v-41h11.28v66h-13l-20-47.81V1249H569.46v-66Z" style="fill:#26529a"/><path d="M670.67,1183v11.38H646v17.23h19V1223H646v26H631.57v-66Z" style="fill:#26529a"/><path d="M721.38,1183v11.38H695.75v15.24h20V1221h-20v16.22h25.63V1249H681.3v-66Z" style="fill:#26529a"/><path d="M755.08,1183c8.9,0,11.78.7,15.64,3.46,4.56,3.45,7.13,9.31,7.13,16.53,0,8.4-2.69,13.28-9.31,17.24l12.17,28.8H764.87l-8.81-26h-7.22v26H734.39v-66Zm-6.24,29.31h6.33c5.55,0,8.52-3.39,8.52-9.6,0-3.17-1-5.86-2.88-7.44-1.27-1.08-3.07-1.59-6.24-1.59h-5.73Z" style="fill:#26529a"/><path d="M834.33,1183v11.38H808.67v15.24h20V1221h-20v16.22h25.66V1249H794.22v-66Z" style="fill:#26529a"/><path d="M862.84,1183l16.85,41v-41H891v66H878l-20-47.81V1249H846.71v-66Z" style="fill:#26529a"/><path d="M954.45,1225.86c-1.18,15-9.89,24.14-23.07,24.14-15.84,0-24.84-12.36-24.84-34,0-21.77,9-34.06,25-34.06,8.24,0,14.48,3.29,18.34,9.63,2.57,4.15,3.65,8.4,4.25,15.93l-13.27,1c-.39-5.74-.8-8-2.07-10.3-1.68-3-4.08-4.46-7.13-4.46-7,0-9.91,6.84-9.91,23.37,0,15,2.88,21.08,9.91,21.08,5.24,0,8.21-4.16,9.29-13.25Z" style="fill:#26529a"/><path d="M1008.81,1183v11.38H983.17v15.24h20V1221h-20v16.22h25.64V1249H968.73v-66Z" style="fill:#26529a"/><path d="M572.85,757.27h.21l-.21-.32Z" style="fill:none"/><path d="M1146.8,455.4a325.46,325.46,0,0,0-573.62-48.79L573.33,250l-279,189.72,29.81,43.83L519.72,351.27,519.29,811h310s26.73.34,35.64,0c54.73-2.08,105.4-27.43,144.54-66.57a229.61,229.61,0,1,0-324.72,0q6.63,6.63,13.7,12.64H639.24a271.74,271.74,0,1,1,400,17.16c-46.41,46.4-106.46,78.35-171.42,78.81-13.48.09-21.06.09-40.08.09h-515v53.34H823.25c14.29-.25,92.66-.25,150.52-24.73a325.55,325.55,0,0,0,173-426.3ZM572.85,757.27V757l.21.32ZM671,582c0-97.1,79-176.1,176.1-176.1a176.21,176.21,0,0,1,152.24,87.68l-28.14,44.67h17.24l-44.63,71.1-44.62-71.1h17.24L867,459.76l-49.47,78.52h17.24l-46.69,74.39h17.22L756.7,690.49H847v32.93h40.09V690.49h98.74a176.06,176.06,0,0,1-121.32,66.78H829.7C740.76,748.49,671,673.25,671,582Zm288,30.64-15.16,24.25L928.7,612.67H959Z" style="fill:#f74646"/><polygon points="312.81 757.27 312.81 810.96 477.15 810.96 477.51 430.73 347.95 518.53 378.23 563.06 423.91 532 423.69 757.27 312.81 757.27" style="fill:#f74646"/></svg>