<svg xmlns="http://www.w3.org/2000/svg" viewBox="0 0 2048 1259"><defs><style>.cls-1{font-size:12px;font-family:MyriadPro-Regular, Myriad Pro;}.cls-2{letter-spacing:-0.01em;}.cls-3{letter-spacing:-0.01em;}.cls-4{letter-spacing:0em;}.cls-5{fill:#bb4627;}</style></defs><title>ThatConference-Trees - Orange Red</title><g id="Full_Logo_Navy_Textured" data-name="Full Logo Navy Textured"><text class="cls-1" transform="translate(879 603)"><tspan class="cls-2">L</tspan><tspan x="5.5" y="0">o</tspan><tspan class="cls-3" x="12.08" y="0">r</tspan><tspan class="cls-4" x="15.89" y="0">em ipsum</tspan></text></g><g id="Trees_Textured" data-name="Trees Textured"><polygon class="cls-5" points="1690.02 349.75 1721.56 375.55 1748.43 402.3 1774.02 430.43 1801.58 456.62 1827.15 484.74 1856.13 509.62 1880.85 537.67 1852.81 562.41 1831.43 594.76 1802.64 619.65 1777.89 648.66 1746.4 671 1717.39 695.7 1697.43 726.01 1719.79 748.01 1743.04 772.99 1766.19 802.11 1795.29 775.33 1815.7 743.69 1840.62 716.57 1866.73 690.56 1893.07 664.81 1923.25 642.89 1945.33 612.93 1977.05 592.55 2001.12 564.5 2025.9 537.67 2002.73 509.44 1976.96 483.11 1947 460.96 1922.06 433.88 1894.97 409.01 1873.21 378.57 1846.85 352.93 1816.79 330.81 1794.04 301.46 1766.01 278.81 1743.92 303.38 1721.04 329.08 1690.02 349.75"/><polygon class="cls-5" points="355.09 725.75 330.67 695.82 297.94 674.78 273.55 645.5 247.96 617.44 217.37 594.17 190.71 567.03 167.32 537.67 191.53 509.18 222.33 486.3 249.68 459.96 277.04 433.58 298.36 401.16 328.95 377.96 354.97 349.6 330.23 325.61 305.36 302.24 282.22 281.91 253.01 300.26 229.18 328.52 205.38 356.74 178.65 382.12 150.89 406.43 127.47 435.18 99.71 459.4 73.42 485.2 46.06 509.91 25.9 537.72 49.64 561.79 75.56 587.89 102.99 612.5 124.27 643.25 150.44 669.19 177.43 694.23 202.97 720.82 232.17 743.72 256.32 771.8 282.11 797.45 307.74 775.63 331.15 750.82 355.09 725.75"/><polygon class="cls-5" points="1627.71 953.92 1610.41 925.42 1597.61 889.66 1571.55 861.86 1556.82 827.23 1532.49 798.32 1513.22 766.39 1496.93 732.68 1477.75 699.75 1530.51 701.3 1514.65 665.79 1494.4 634.46 1473.74 603.44 1453.67 571.98 1432.76 540.95 1418.48 506.11 1392.03 478.42 1373.82 442.29 1430.15 447.51 1411.91 410.2 1388.85 380.58 1369.03 349.02 1350.4 316.75 1332.23 284.19 1313.32 252.12 1293.44 220.46 1273.73 190.59 1251.82 219.1 1234.02 251.87 1213.84 283.23 1201.25 319.08 1176.39 347.75 1157.04 379.54 1136.38 410.59 1122.63 442.15 1168.62 447.39 1151.36 475.97 1136.02 510.19 1112.35 539.52 1096.62 573.58 1079.33 606.62 1057.87 637.26 1038.14 668.89 1015.7 702.61 1071.68 697.21 1054.56 730.18 1030.89 754.66 1017.94 788.78 1003.37 755.76 986.33 727.23 970.03 704.14 1018.36 700.72 994.61 670.88 982.97 634.31 961.12 604 938.08 574.31 921.14 541.02 898.49 511.1 883.94 476.37 863.61 443.65 915.61 444.52 899.9 410.42 881.56 378.08 857.57 348.94 834.86 319.11 815.36 287.35 804.4 250.44 783.14 219.73 762.11 189.37 739.75 218.76 724.63 253.16 708.31 286.86 685.26 316.45 669.71 350.59 645.54 379.59 625.83 411.23 608.41 444.86 660.44 444 642.58 477.68 625.92 511.05 606.74 543.02 587.41 574.92 565.12 604.94 547.71 638.05 525.61 668.34 509.59 697.16 554.18 703.71 542.46 734.73 515.08 761.69 499.39 795.79 478.9 826.96 460.96 859.67 440.78 891.03 427.49 926.58 400.71 957.88 440.31 960.24 476.54 956.23 512.68 957.01 548.94 959.38 585.09 959.06 621.35 953.6 657.59 960.55 697.16 952.64 689.81 991.97 696.97 1027.95 693.94 1063.85 727.95 1067.89 762.11 1059.3 796.34 1063.54 829.54 1063.06 835.04 1028.04 831.38 991.97 827.5 952.44 873.09 958.12 915.63 954.15 949.75 952.86 983.82 956.32 1017.93 954.28 1052.01 959.12 1086.13 954.34 1120.21 951.53 1162.8 952 1207.9 953.03 1205.07 991.97 1202.51 1027.95 1205.71 1063.63 1239.51 1060.89 1273.67 1066.02 1307.88 1059.94 1340.46 1062.48 1344.83 1028.04 1344.72 991.97 1340.03 954.1 1378.28 954.34 1414.49 952.2 1450.71 958.34 1486.89 952.03 1523.1 957.39 1559.27 955.19 1595.56 957.01 1627.71 953.92"/><path class="cls-5" d="M1872,322.66a24.49,24.49,0,0,0,24.36-24.49V298a24.36,24.36,0,1,0-48.71.14v.14A24.28,24.28,0,0,0,1872,322.66Zm-21.55-24.49a21.56,21.56,0,1,1,43.11-.14v.14a21.56,21.56,0,1,1-43.11.14Z"/><path class="cls-5" d="M1867.24,301.53h5.18l5.87,8.54H1884l-6.58-9.38a7.45,7.45,0,0,0,5.74-7.56c0-5.18-4.06-7.84-9.51-7.84h-11.2v24.78h4.76Zm0-12h6c3.21,0,5,1.4,5,4.06,0,2.38-1.82,4.06-5,4.06h-6Z"/></g></svg>