<svg xmlns="http://www.w3.org/2000/svg" viewBox="0 0 2048 2048"><title>ThatConference-Full Logo - Black</title><g id="Full_Logo_Navy_Textured" data-name="Full Logo Navy Textured"><g id="Registration_Mark" data-name="Registration Mark"><path d="M1872,324.66a24.49,24.49,0,0,0,24.36-24.49V300a24.36,24.36,0,1,0-48.71.14v.14A24.28,24.28,0,0,0,1872,324.66Zm-21.55-24.49a21.56,21.56,0,1,1,43.11-.14v.14a21.56,21.56,0,1,1-43.11.14Z"/><path d="M1867.24,303.53h5.18l5.87,8.54H1884l-6.58-9.38a7.45,7.45,0,0,0,5.74-7.56c0-5.18-4.06-7.84-9.51-7.84h-11.2v24.78h4.76Zm0-12h6c3.21,0,5,1.4,5,4.06,0,2.38-1.82,4.06-5,4.06h-6Z"/></g><polygon points="1690.02 351.75 1721.56 377.55 1748.43 404.3 1774.02 432.43 1801.58 458.62 1827.15 486.74 1856.13 511.62 1880.85 539.67 1852.81 564.41 1831.43 596.76 1802.64 621.65 1777.89 650.66 1746.4 673 1717.39 697.7 1697.43 728.01 1719.79 750.01 1743.04 774.99 1766.19 804.11 1795.29 777.33 1815.7 745.69 1840.62 718.57 1866.73 692.56 1893.07 666.81 1923.25 644.89 1945.33 614.93 1977.05 594.55 2001.12 566.5 2025.9 539.67 2002.73 511.44 1976.96 485.11 1947 462.96 1922.06 435.88 1894.97 411.01 1873.21 380.57 1846.85 354.93 1816.79 332.81 1794.04 303.46 1766.01 280.81 1743.92 305.38 1721.04 331.08 1690.02 351.75"/><polygon points="355.09 727.75 330.67 697.82 297.94 676.78 273.55 647.5 247.96 619.44 217.37 596.17 190.71 569.03 167.32 539.67 191.53 511.18 222.33 488.3 249.68 461.96 277.04 435.58 298.36 403.16 328.95 379.96 354.97 351.6 330.23 327.61 305.36 304.24 282.22 283.91 253.01 302.26 229.18 330.52 205.38 358.74 178.65 384.12 150.89 408.43 127.47 437.18 99.71 461.4 73.42 487.2 46.06 511.91 25.9 539.72 49.64 563.79 75.56 589.89 102.99 614.5 124.27 645.25 150.44 671.19 177.43 696.23 202.97 722.82 232.17 745.72 256.32 773.8 282.11 799.45 307.74 777.63 331.15 752.82 355.09 727.75"/><polygon points="1627.71 955.92 1610.41 927.42 1597.61 891.66 1571.55 863.86 1556.82 829.23 1532.49 800.32 1513.22 768.39 1496.93 734.68 1477.75 701.75 1530.51 703.3 1514.65 667.79 1494.4 636.46 1473.74 605.44 1453.67 573.98 1432.76 542.95 1418.48 508.11 1392.03 480.42 1373.82 444.29 1430.15 449.51 1411.91 412.2 1388.85 382.58 1369.03 351.02 1350.4 318.75 1332.23 286.19 1313.32 254.12 1293.44 222.46 1273.73 192.59 1251.82 221.1 1234.02 253.87 1213.84 285.23 1201.25 321.08 1176.39 349.75 1157.04 381.54 1136.38 412.59 1122.63 444.15 1168.62 449.39 1151.36 477.97 1136.02 512.19 1112.35 541.52 1096.62 575.58 1079.33 608.62 1057.87 639.26 1038.14 670.89 1015.7 704.61 1071.68 699.21 1054.56 732.18 1030.89 756.66 1017.94 790.78 1003.37 757.76 986.33 729.23 970.03 706.14 1018.36 702.72 994.61 672.88 982.97 636.31 961.12 606 938.08 576.31 921.14 543.02 898.49 513.1 883.94 478.37 863.61 445.65 915.61 446.52 899.9 412.42 881.56 380.08 857.57 350.94 834.86 321.11 815.36 289.35 804.4 252.44 783.14 221.73 762.11 191.37 739.75 220.76 724.63 255.16 708.31 288.86 685.26 318.45 669.71 352.59 645.54 381.59 625.83 413.23 608.41 446.86 660.44 446 642.58 479.68 625.92 513.05 606.74 545.02 587.41 576.92 565.12 606.94 547.71 640.05 525.61 670.34 509.59 699.16 554.18 705.71 542.46 736.73 515.08 763.69 499.39 797.79 478.9 828.96 460.96 861.67 440.78 893.03 427.49 928.58 400.71 959.88 440.31 962.24 476.54 958.23 512.68 959.01 548.94 961.38 585.09 961.06 621.35 955.6 657.59 962.55 697.16 954.64 689.81 993.97 696.97 1029.95 693.94 1065.85 727.95 1069.89 762.11 1061.3 796.34 1065.54 829.54 1065.06 835.04 1030.04 831.38 993.97 827.5 954.44 873.09 960.12 915.63 956.15 949.75 954.86 983.82 958.32 1017.93 956.28 1052.01 961.12 1086.13 956.34 1120.21 953.53 1162.8 954 1207.9 955.03 1205.07 993.97 1202.51 1029.95 1205.71 1065.63 1239.51 1062.89 1273.67 1068.02 1307.88 1061.94 1340.46 1064.48 1344.83 1030.04 1344.72 993.97 1340.03 956.1 1378.28 956.34 1414.49 954.2 1450.71 960.34 1486.89 954.03 1523.1 959.39 1559.27 957.19 1595.56 959.01 1627.71 955.92"/><path d="M36.89,1224.69q.59,8.73,1.12,17.45c-.21,5.79-.39,11.6-.6,17.43s-.33,11.65-.49,17.45c.42,5.78.79,11.63,1.18,17.41v15.42l13.58,0c5.25,1.31,10.5,2.66,15.75,4,5.29-.2,10.54-.39,15.83-.62,5.25.46,10.53.89,15.77,1.31,5.81-.42,11.67-.89,17.5-1.34.13-6.18.32-12.39.49-18.61-1.08-5.68-2.14-11.39-3.25-17.13q0-8.51-.08-17.12c1.13-5.4,2.28-10.83,3.4-16.23l14.43.4c5.14-.63,10.33-1.24,15.46-1.9,5.12,0,10.24-.06,15.39-.07,5.13.73,10.25,1.49,15.4,2.23,5.61-1,11.22-1.91,16.84-2.89-1.56,6-3.07,11.93-4.6,17.93-.1,5.54-.21,11-.33,16.56,1.72,5.52,3.41,11,5.12,16.53-.93,5.49-1.83,11-2.78,16.48-.48,5.51-1,11-1.5,16.49s-1.05,10.93-1.56,16.43c1.53,5.43,3,10.91,4.58,16.32-.09,5.42-.19,10.89-.21,16.31-.85,5.41-1.66,10.85-2.41,16.25.27,5.41.59,10.79.9,16.17-.33,5.38-.66,10.73-1,16.11.55,5.38,1.14,10.7,1.75,16-.29,5.34-.61,10.68-.87,16,.33,5.71.66,11.38,1,17q-8.1-.09-16.12-.16c-4.92.58-9.83,1.15-14.72,1.77-4.43-.15-8.85-.26-13.29-.38-.78,5.36-1.56,10.71-2.25,16.12,1.08,5.66,2.23,11.32,3.36,17-.35,5.68-.74,11.38-1.07,17.11.42,5.41.93,10.85,1.44,16.27l16.16,2.29c5.57-.36,11.08-.73,16.67-1.08,5.44-1.78,10.93-3.5,16.41-5.24,5.55-.08,11.09-.18,16.63-.25,5.61,1.09,11.21,2.1,16.82,3.18,5.46-2,10.91-4,16.4-6,5.6,1.35,11.2,2.66,16.85,4,5.51-1,11-2,16.51-3.1,5.52-.4,11.06-.87,16.57-1.29l16.57-2.43c5.58.77,11.16,1.49,16.73,2.2,5.88-.18,11.76-.34,17.6-.54-.69-5.42-1.39-10.88-2-16.38.54-5.28,1.12-10.57,1.68-15.9.09-5.34.18-10.67.31-16.06-.91-5.28-1.84-10.6-2.74-16-4.88.67-9.8,1.35-14.69,2-5,0-9.94-.07-14.87-.11q-7.62-.35-15.22-.73c-.47-5.19-.88-10.41-1.3-15.67q1.8-7.85,3.65-15.67c-.3-5.21-.64-10.45-.94-15.69-.72-5.24-1.44-10.53-2.14-15.78.94-5.31,1.84-10.62,2.74-16-1.44-5.33-2.92-10.62-4.42-16,0-5.35,0-10.71-.07-16.13.48-5.36,1-10.77,1.42-16.21s.66-10.81,1-16.25c.55-5.45,1.09-10.88,1.67-16.36v-16.38q-1.56-8.22-3.06-16.44c.07-5.49.07-11,.13-16.5.51-6.19,1-12.4,1.47-18.59,6.91.35,13.83.76,20.76,1.13,6.33.09,12.69.17,19,.22s12.65-.17,19-.29c5.85.81,11.7,1.67,17.51,2.51-.51,5.17-1.05,10.32-1.6,15.5,0,5.7.1,11.33.1,17,.36,5.64.76,11.29,1.12,16.92.66,5.35,1.32,10.69,2,16,5-.72,9.94-1.47,14.88-2.15,5.27,1.34,10.55,2.61,15.79,3.92,5.28.3,10.55.63,15.79,1l15.83-4.51c5.69,1.2,11.42,2.41,17.11,3.63-1.2-6.07-2.38-12.22-3.58-18.29,0-5.73.11-11.43.18-17.18,1-5.76,2-11.51,2.95-17.27-.7-5.74-1.39-11.52-2.11-17.29.63-5.78,1.27-11.58,1.94-17.36-.83-5.79-1.57-11.57-2.38-17.39,1.46-5.78,2.89-11.59,4.35-17.42-1.29-5.09-2.55-10.18-3.84-15.31q-7.38-.9-14.74-1.75c-5.61.75-11.24,1.44-16.89,2.14-5.63-1-11.23-2.06-16.87-3.12l-16.87,1.8-16.85.86c-5.63-1.41-11.27-2.82-16.88-4.25-5.63,1-11.24,1.89-16.87,2.86-5.64-.79-11.23-1.55-16.88-2.35-5.6-.35-11.24-.73-16.84-1.12-5.64,1.62-11.25,3.26-16.88,4.91-5.61-1.13-11.24-2.23-16.84-3.33-5.64.52-11.24,1-16.89,1.5-5.59-.46-11.23-.88-16.87-1.35l-16.86,2-16.85-2.9c-5.64,1.51-11.25,3-16.86,4.55l-16.87-.78c-5.61-1.18-11.24-2.28-16.87-3.45-5.61.92-11.25,1.79-16.85,2.66-5.63-1.22-11.24-2.41-16.84-3.61-5.65.51-11.27,1.1-16.88,1.62-5.6,1.37-11.24,2.68-16.88,4.06q-8.4-2.07-16.84-4.08c-5.64.33-11.24.63-16.85,1-6.11-.42-12.23-.86-18.32-1.31.9,6.29,1.75,12.59,2.65,18.87q-1.53,8.73-3.13,17.45C36.29,1213.09,36.63,1218.89,36.89,1224.69Z"/><path d="M547.47,1524.75c6.1-.73,12.15-1.53,18.27-2.26,5.79-.62,11.57-1.28,17.36-1.89,5.81.92,11.65,1.89,17.47,2.81,5.82.07,11.6.21,17.39.31l17.3-4.07,17.47,3c5.79-1.28,11.55-2.51,17.33-3.72l17.39-.37c5.79.6,11.6,1.24,17.39,1.85,5.33-.58,10.67-1.12,16-1.68.36-4.26.68-8.59,1-13-.9-4.74-1.77-9.48-2.64-14.3,1.39-4.89,2.76-9.77,4.15-14.77-1.32-4.33-2.67-8.71-4-13.14-4.81-.84-9.61-1.7-14.46-2.51-5.58.35-11.14.7-16.69,1.09-.34-4.63-.64-9.31-.93-14.06-.67-4.72-1.31-9.46-1.93-14.28,1.5-4.8,3-9.62,4.55-14.5-.43-4.85-.85-9.75-1.31-14.65.19-4.66.31-9.32.49-14,5.15.61,10.34,1.23,15.49,1.86,5.51-1.15,11-2.33,16.46-3.49l16.42,2.26c5.45-.33,10.94-.58,16.39-.92,5.49-.19,10.94-.43,16.43-.6,5.45.06,10.94.13,16.39.17,5.48.25,11,.5,16.41.73l16.41-3.35q8.18,1.9,16.4,3.78c6.05-1.16,12.14-2.36,18.23-3.55q-.57,8.31-1.19,16.46c.41,4.88.81,9.75,1.19,14.55-.31,4.8-.62,9.59-.92,14.32.54,4.71,1,9.41,1.54,14-1,4.51-2,8.92-3.08,13.35l-15.23.87c-5.74-.4-11.49-.77-17.23-1.2.3,5.37.65,10.65,1,15.89-.7,4.88-1.43,9.71-2.16,14.54.73,4.77,1.49,9.43,2.2,14.14-.2,5-.42,10-.61,14.84q9.4-.75,18.84-1.52c5.79-.62,11.64-1.26,17.46-1.91q8.73.58,17.45,1.08,8.7,1.4,17.48,2.73c5.82-1.15,11.61-2.3,17.43-3.48l17.42.48c5.82.66,11.6,1.31,17.42,1.93,5.82-1,11.65-2,17.47-2.93l17.44-.39c5.91.58,11.78,1.23,17.68,1.87.84-4.55,1.65-9.17,2.5-13.84-.11-4.6-.2-9.27-.31-14q-2-7.11-3.93-14.34c-.15-4.41-.27-8.87-.43-13.38-4.58-.33-9.17-.67-13.74-1L966,1458.88c.39-4.22.74-8.49,1.14-12.76q-1.77-7.18-3.47-14.44c-.56-4.87-1.21-9.77-1.75-14.71q1.1-7.4,2.2-14.92-.44-7.53-.86-15.18c-.46-5.09-.94-10.18-1.42-15.37.92-5.16,1.83-10.33,2.77-15.55.61-5.21,1.16-10.45,1.78-15.73-.12-5.26-.22-10.6-.31-15.92-1.14-5.32-2.31-10.63-3.49-16,1.33-5.34,2.56-10.76,3.86-16.18.11-5.39.25-10.87.37-16.28q-1.92-8.19-3.9-16.41c.42-5.51.81-11.06,1.24-16.63,5.24-.44,10.48-.94,15.72-1.41,4.55-.07,9.06-.11,13.57-.19q1.5-7.89,3-15.84c-.87-5.86-1.79-11.72-2.66-17.64,1.27-5.88,2.58-11.78,3.87-17.68q-.5-9.36-1.06-18.73c-6.17-.54-12.33-1-18.52-1.58-5.8.42-11.66.83-17.44,1.29-5.86.23-11.65.44-17.49.72l-17.4,1.8c-5.8-.92-11.6-1.8-17.42-2.69-5.82-.08-11.61-.19-17.43-.23-5.82,1.31-11.68,2.66-17.46,4l-17.4-.32c-5.82.36-11.67.71-17.45,1.09-6-1.15-11.95-2.33-17.93-3.5v18.18q-.81,8.87-1.61,17.69c-.18,5.88-.35,11.78-.58,17.63,1.31,5.5,2.63,10.95,3.93,16.43,4.81,1.31,9.64,2.66,14.49,4l16.46-3.47c.08,5.55.18,11.11.23,16.65-.77,5.32-1.65,10.62-2.46,15.94q1.5,7.95,3,15.86c-.19,5.28-.34,10.48-.5,15.73-.82,4.82-1.64,9.62-2.46,14.36l-15.09,1.48c-5.48-.19-11-.38-16.43-.54-5.45-.44-10.92-.9-16.38-1.31-5.46-.15-10.91-.33-16.4-.46-5.45.71-11,1.47-16.39,2.16-5.47-.64-11-1.33-16.4-2-5.44,0-10.91-.12-16.35-.16-5.5.68-11,1.31-16.41,2s-11,1.62-16.42,2.38l-17-1.48c-.76-5.41-1.54-10.82-2.34-16.28.3-5.25.6-10.49.9-15.81-.25-5.26-.48-10.56-.76-15.88.7-5.28,1.36-10.62,2-15.94,0-5.8-.09-11.6-.15-17.41,6,0,12-.11,18-.11,5.57.5,11.15,1,16.69,1.54,1-5.9,2-11.77,3-17.67-1.46-5.88-2.87-11.74-4.35-17.66Q722,1198.89,723,1190c-.54-5.55-1.09-11.13-1.6-16.69q-8.22-.91-16.39-1.77c-5.82-.42-11.6-.81-17.39-1.24s-11.63-.59-17.41-.92c-5.79.54-11.58,1.14-17.36,1.7q-8.7-.06-17.36-.16c-5.82.7-11.6,1.47-17.39,2.2-5.78,0-11.56.08-17.39.08-5.78-.15-11.57-.33-17.35-.5s-11.58-.43-17.36-.66c-6-.08-12-.15-18-.25q-.84,9.11-1.74,18.28c.84,5.91,1.68,11.77,2.53,17.65.54,5.88,1,11.81,1.57,17.63-.3,5.6-.63,11.14-.93,16.7q6.81.29,13.64.5c5.28-.18,10.55-.31,15.86-.54-1.21,5.84-2.36,11.68-3.55,17.5.26,5.47.53,11,.83,16.46q1,8.24,2,16.38c-.94,5.45-1.9,10.86-2.84,16.27,1.48,5.43,3,10.84,4.44,16.19q.07,8,.11,16.06c-.43,5.33-.9,10.66-1.33,15.92s-.57,10.54-.87,15.78c-.49,5.25-1,10.45-1.51,15.66.06,5.16.16,10.29.21,15.43,1.1,5.09,2.17,10.2,3.26,15.25,0,5,0,10.06.1,15.11-.1,4.94-.19,9.93-.29,14.84-.62,5.09-1.28,10.18-1.92,15.23-5.18.05-10.34.17-15.49.27-4.67,0-9.37.11-14,.19-1,5-1.81,10-2.71,14.92-.19,5.11-.37,10.14-.54,15.18.17,5,.35,9.93.6,14.85C546.09,1514.66,546.78,1519.73,547.47,1524.75Z"/><path d="M1224.05,1169.34c-5.55,2-11.14,4-16.69,6-5.59-1.85-11.18-3.74-16.73-5.61-5.9.58-11.76,1.2-17.62,1.79.39,6.1.81,12.14,1.27,18.16-.73,5.78-1.42,11.56-2.15,17.3,1.38,5.75,2.73,11.49,4.12,17.24-.27,5.11-.58,10.21-.81,15.33,6.63.84,13.18,1.75,19.78,2.62-1.12,5.41-2.17,10.81-3.28,16.22-2.2,5.38-4.36,10.78-6.56,16.15-1.35,5.61-2.66,11.24-4,16.8l-7.9,15.53c-.54,5.78-1.12,11.53-1.69,17.23q-3,8-6,15.8c-1,5.56-1.92,11.11-2.93,16.58q-3.46,7.63-6.94,15.15c-2.31,5.05-4.66,10-7,15-.78,5.38-1.55,10.78-2.36,16.08-2.73,4.76-5.39,9.52-8.13,14.22-1.85,5-3.74,9.88-5.63,14.75-.89,5.1-1.77,10.18-2.66,15.21-2.23,4.65-4.43,9.21-6.63,13.8-6,.63-12.07,1.23-18.11,1.85-6.33-.79-12.69-1.58-19-2.39-.31,5.13-.7,10.18-1,15.21.92,4.84,1.81,9.57,2.7,14.28.38,4.68.77,9.33,1.23,13.87-.08,4.09-.15,8.07-.24,12,5-.1,10-.24,15-.36,5.71.65,11.38,1.32,17,1.93,5.7-.19,11.45-.36,17.12-.54s11.41-.15,17-.24c5.7,1,11.44,2,17.07,3,5.67,0,11.42.09,17.08.15,5.71-.11,11.37-.21,17.07-.29,5.64-.72,11.38-1.49,17-2.22l17.11,1.16c5-.25,10.14-.54,15.23-.81,0-4.09.11-8.21.15-12.41.74-4.65,1.47-9.29,2.24-14.08-.58-4.76-1.16-9.56-1.78-14.45q1.21-7.66,2.47-15.53c-7.32-.58-14.5-1.18-21.82-1.74q-10.86,1.42-21.74,2.81,4.63-7.59,9.33-15.34c1.35-5,2.74-10.08,4.09-15.18,5.31-.93,10.64-1.88,16-2.8,5.7,1,11.49,2.08,17.23,3.1,5.71.39,11.45.77,17.23,1.2,5.74-1.58,11.45-3.13,17.19-4.67,5.74.31,11.49.58,17.19.85,5.75.5,11.49,1,17.28,1.42l17.15.24q8.69,1,17.23,2.1l17.23-1.23c5.78-.21,11.53-.45,17.31-.68,2.78,5.24,5.48,10.45,8.25,15.63.11,5.19.27,10.27.39,15.36-4.9.16-9.75.25-14.61.39-5.67.48-11.34,1-17.05,1.45-5.5-.21-11-.45-16.49-.69-.89,4.91-1.81,9.69-2.74,14.47.89,4.93,1.81,9.83,2.7,14.67,0,4.83,0,9.6.08,14.32-.89,5.06-1.81,10.09-2.74,15,6,.31,12,.64,18,.9,5.55-.84,11.1-1.65,16.66-2.53,5.51,1,11,1.92,16.53,2.85,5.52-1,11.07-2,16.58-3l16.54,1.74c5.47.58,11,1.08,16.5,1.66,5.54-.52,11.1-1,16.57-1.55,5.55,1.35,11,2.7,16.5,4.06l16.58.36c5.51-.94,11.06-1.91,16.61-2.87,5.51.7,11,1.43,16.54,2.12s11,1.5,16.42,2.31c6.09,0,12.22.08,18.31.12.35-5.32.66-10.72,1-16.15-.54-5-1.12-10-1.69-15-.74-5.09-1.43-10.18-2.17-15.32.58-4.94,1.16-9.89,1.78-14.9-6.09.6-12.22,1.19-18.31,1.81l-20-1.42c-2.19-5-4.4-10.08-6.59-15.17-1-5-2-10-3.08-15-1.93-4.78-3.86-9.64-5.79-14.46-1.53-4.89-3.08-9.89-4.62-14.88-1.2-5.13-2.39-10.22-3.55-15.38-.73-5.28-1.54-10.56-2.31-15.88-3-4.64-6.17-9.29-9.26-14-1.11-5.28-2.15-10.58-3.27-15.93-2.31-4.9-4.7-9.83-7.06-14.81-1-5.4-2-10.75-2.92-16.18-1.39-5.33-2.7-10.65-4-16s-2.82-10.65-4.24-16c-2.24-5-4.47-10.17-6.75-15.26-1.61-5.32-3.28-10.64-4.93-16-2.35-5-4.78-10.16-7.17-15.27q-2.6-7.92-5.21-15.91c-1.46-5.37-3-10.74-4.55-16.12s-2.92-10.83-4.39-16.23q-2.49-8.29-4.86-16.57c-5.7.59-11.48,1.15-17.19,1.76s-11.18,1.26-16.81,1.89l-16.69-4.68q-8.38.46-16.73.87l-16.73-.27c-5.59,1.06-11.18,2.16-16.73,3.24-5.59,0-11.14,0-16.73,0s-11.14-.28-16.73-.47l-16.76-3.2-16.66,2.43-16.8-3.55c-5.52-.08-11.11-.13-16.7-.19S1229.64,1169.37,1224.05,1169.34ZM1253,1356.12c1.85-5.14,3.78-10.31,5.63-15.51,2.54-5,5.09-10,7.59-15,1.39-5.42,2.74-10.81,4.13-16.3,1.54-5.37,3-10.82,4.59-16.23,1-5.61,2-11.26,3-16.93,3.67-4.74,7.29-9.52,10.91-14.3,1.16-5.49,2.24-11,3.36-16.46,5.55-.59,11.21-1.17,16.81-1.77,5.78.12,11.49.23,17.34.33q8,1.17,16.08,2.42c2.12,4.83,4.31,9.6,6.44,14.4q2.42,8.1,4.77,16.11c.58,5.66,1.12,11.26,1.63,16.85,1.42,5.36,3,10.68,4.47,16,2.73,5,5.39,10,8.09,14.94.5,5.53,1,11,1.55,16.51,2.84,4.86,5.74,9.72,8.59,14.6.88,5.61,1.85,11.16,2.69,16.73-5.78-.36-11.6-.72-17.42-1.06-5.51.75-11,1.46-16.5,2.23-5.55-1.38-11.06-2.81-16.57-4.2-5.52,0-11,.08-16.58.1-5.48,1.27-11,2.57-16.54,3.84-5.47-.64-11-1.24-16.5-1.89l-16.57-2-14.57.81Q1251.13,1363.25,1253,1356.12Z"/><path d="M1589.65,1224.63q2.13,8.71,4.27,17.37c-.61,5.76-1.18,11.53-1.76,17.28s-1.35,11.53-2,17.26c0,5.72,0,11.45.08,17.15.66,5.87,1.27,11.73,1.93,17.58,5.47-1.06,10.87-2.08,16.3-3.12l15.85,3c5.31.88,10.55,1.77,15.8,2.7,5.32-1.12,10.56-2.26,15.77-3.36,5-.06,10.14-.12,15.1-.2.54-5.39,1.2-10.83,1.7-16.22-.15-5.68-.26-11.34-.46-17,.31-5.63.61-11.3.93-17q-1.45-8.76-2.78-17.6c5.28,1,10.72,1.93,16,2.89,5.13-1.77,10.22-3.58,15.35-5.36,5.12,1.62,10.25,3.24,15.45,4.86q7.69-.24,15.39-.45c5.78-1.09,11.64-2.15,17.38-3.21-1.11,6.16-2.31,12.26-3.5,18.42-.19,5.52-.39,11-.62,16.5,1.23,5.52,2.58,11,3.85,16.47-.5,5.5-1,11-1.53,16.44q1.61,8.14,3.23,16.34c0,5.45,0,10.85.08,16.25s-.11,10.83-.24,16.22c.43,5.41.86,10.76,1.24,16.12-.27,5.36-.46,10.68-.7,16-1.11,5.32-2.34,10.6-3.5,15.86,1.23,5.3,2.51,10.59,3.7,15.83-.31,5.28-.58,10.52-.89,15.72.11,5.2.31,10.41.47,15.62-.85,5-1.74,9.93-2.59,14.88-4.7,0-9.41.11-14.14.15-4.9-.19-9.84-.39-14.69-.62l-13.27,1.16c.12,5,.16,10.06.16,15.11.27,5.4.5,10.74.81,16.07-1.31,5.29-2.62,10.53-4,15.75-.23,5.42-.46,10.82-.81,16.17,5.9-.61,11.68-1.23,17.5-1.82,5.55.17,11.07.32,16.66.51,5.47,1.12,11,2.28,16.49,3.43,5.56.43,11.07.87,16.62,1.34q8.39-1.31,16.76-2.65c5.56.73,11.07,1.47,16.58,2.14s11.06,1.27,16.58,1.93l16.5,2.73c5.55.06,11.14.1,16.65.18,5.59-.25,11.18-.42,16.69-.67,5.52.74,11,1.48,16.54,2.26,6.17.51,12.33,1,18.5,1.49-.8-6.24-1.62-12.52-2.54-18.79,1.66-5.57,3.28-11.2,4.9-16.84-1.55-5.77-3.16-11.55-4.75-17.29.69-5.44,1.31-10.87,2-16.35-4.67-.27-9.33-.58-13.91-.83-5,.65-10,1.31-15,2-4.89-1.12-9.75-2.26-14.56-3.35.77-5.24,1.5-10.43,2.31-15.66,0-5.35-.12-10.67-.16-16s-.22-10.67-.34-16c.15-5.38.23-10.73.38-16.13-1.12-5.42-2.19-10.79-3.39-16.23,1.2-5.38,2.39-10.81,3.51-16.23-.58-5.41-1.12-10.87-1.77-16.32-.2-5.44-.47-10.87-.74-16.35-.49-5.5-1-10.93-1.46-16.44.31-5.47.65-10.93,1-16.42-.82-5.48-1.7-11-2.55-16.5.81-5.48,1.58-11,2.35-16.52-.5-5.51-1-11-1.5-16.54-.12-5.8-.27-11.52-.39-17.31,6.52.68,13.11,1.35,19.66,2,6.32.13,12.69.23,19,.36,6.36-.21,12.65-.38,19-.55,6.67-.8,13.38-1.59,20.08-2.33-1.11,6.12-2.23,12.29-3.39,18.42,1.08,5.7,2.2,11.41,3.24,17.14.39,5.72.77,11.4,1.23,17.13-.46,5.78-.88,11.57-1.31,17.39,5.36.79,10.83,1.63,16.19,2.47,5.28-.49,10.53-.94,15.81-1.39,5.28.3,10.56.57,15.84.84,5.21-1.23,10.49-2.43,15.69-3.62,5.43.61,10.8,1.26,16.19,1.87-.3-5.88-.62-11.81-.92-17.71s-.54-11.63-.77-17.43c-.66-5.84-1.28-11.64-1.85-17.46,1.19-5.82,2.42-11.64,3.65-17.44-.61-5.81-1.23-11.63-1.8-17.45.08-5.82.11-11.62.19-17.44q-.59-8.7-1.16-17.44c.77-6.44,1.5-12.92,2.28-19.4-6.25,1.2-12.53,2.36-18.86,3.57-5.66-1.14-11.25-2.29-17-3.41-5.6-.42-11.3-.79-16.89-1.19-5.63,1.77-11.18,3.56-16.85,5.35-5.58-.26-11.25-.58-16.84-.84-5.67-.51-11.26-1-17-1.49-5.56,0-11.19,0-16.81-.1l-16.89-2.19c-5.59.48-11.25,1-16.84,1.5s-11.26.65-16.88,1c-5.6.92-11.23,1.77-16.81,2.67-5.63-1.9-11.26-3.81-16.89-5.68-5.63.65-11.25,1.34-16.88,2s-11.22,1.27-16.88,1.93c-5.56-.13-11.27-.23-16.82-.34-5.66-1-11.29-1.89-16.92-2.86l-16.84,2.82c-5.63.11-11.23.19-16.89.29l-16.85-3.07c-5.62,0-11.21,0-16.84,0-5.63,1.21-11.25,2.45-16.85,3.66-5.66-1-11.26-2-16.88-3.07-5.63,1.39-11.26,2.82-16.85,4.21-5.66-.54-11.21-1.12-16.88-1.62s-11.42-.92-17.12-1.39c.78,5.9,1.58,11.84,2.35,17.75-1.42,5.82-2.88,11.6-4.35,17.41C1589.49,1213.05,1589.57,1218.83,1589.65,1224.63Z"/><path d="M409.58,1686.36l1.11-18.78-7.21-12.41-12.29-6.71-13.61,6.17-8,12.95.36,19.1-.61,19.1.58,19.1,1.18,19.11-1.64,19.11-.29,19.13.17,19.12,8,13.26,13.92,4.84,13.09-5,5.72-13.14-.7-19.09,21.64,1.2,21.41-1-1.49,18.84-2.68,17.28-9.32,14.91-13.34,11.58-16.91,5.14-17.42,3.2-18.13-1.86L356.2,1845l-15.58-9.54-9.46-15.78-3.14-18,1.31-19.11-.54-19.16-1.55-19.16v-19.16l.73-19.16,1.56-19.16-2.23-19.16,4.83-17.71,8.19-16.49,15.58-9.82,17.23-5.56,18.06-1.38,17.51,1.66,17.08,5,14.06,11.2,9.33,15.4,3.23,17.67-.49,18.35-21-.08Z"/><path d="M594.07,1667.26l.9,19.1-1.25,19.08.86,19.11.75,19.13-1.26,19.08,1.32,19.12-.93,19.14-3,17.46-9.55,14.87-13.74,10.78-15.73,8.45-17.94.46-17.9-2.49-17.41-4.87-14.11-11.34-8.26-15.88L472.13,1801l.68-19.1-.56-19.11,1.25-19.1-.58-19.12-1.5-19.11.05-19.12.49-19.1,3-18,9.71-15.46,14.82-10.29,16.85-6.59,18.1-1.08,17.76.81,16.12,7.42,14.28,10.43,9.68,15.07Zm-40.69.32-6.39-13-12.51-7.23-14,6.12-5.63,13.45-1.3,19,1.33,19.06-.9,19,.17,19.07-.66,19-.51,19.09,2.17,19.06,4.7,14.45,14.58,6.5,12.91-7.46,5.88-13.49,1-18.95-1.6-19,.65-18.94-.56-19,1.27-19-.6-19Z"/><path d="M748.27,1619l1.5,17.44-2.2,17.83-.15,17.84,2.08,17.8-2,17.83.06,17.83,1.87,17.81-.09,17.83.06,17.83-1.6,17.81-.12,17.85.55,17.84-.27,17.16-20.07-.06-20.76.83-5.28-16.6-3.83-17-5.24-16.54-6-16.3-3.86-17-6.6-16.12-3.64-17.07-5.76-16.43-.45.18-.46,19-1.12,19,2,18.93-1.65,19-.17,19,.69,19,.2,19.15H645.11l-20.36-.58-.17-17.43,0-17.82-.18-17.81.24-17.85-.72-17.82.91-17.8-.64-17.84-.27-17.8,0-17.85.41-17.81-.62-17.85-.46-17.83.7-18.48,22.39,1.36,21.67-.41,5.78,18,4.26,18.69,7,17.89,5.28,18.45,4.18,18.73,5.7,18.29,5.3,18.47,1.63-.39V1728.7l.55-18.35-.18-18.35-.37-18.37.51-18.35L706,1636.94l1.42-18,20.42.76Z"/><path d="M822.28,1652.29l-.71,18.37.23,19,.43,18.39,20.27-.54,20.66,1.39-.17,16.32,0,16.13-20.51-.69-21.09.77-.08,18.43.78,18.1-.58,18.11.42,18.08-.42,18.12.17,18.14-20.71-.52-20.18-.15-.87-17.2.21-17.82.78-17.81L779.16,1779l2.32-17.82-1.15-17.8.64-17.84-1.66-17.8.39-17.85.78-17.81,1-17.85-.82-17.83-.45-17.94,16.7.25,16.59.89,16.62-1.72,16.61,1.25,16.58.58,17.07-1.58.29,17,.07,17.46-20.21-1.92-19.43.36Z"/><path d="M945.67,1652l-1.28,18.69,1.57,19-.22,18.64,20.68-.31,20.45,1.37-.31,15.86.13,15.64-20.27-.29-20.32,2,.25,18.12v18.87l-2.15,18.87,1.84,18.33,15.15-.56,15.81.61,15.79,1.67,15.72-1.09-.4,16.47,1.23,17.31-18.15-1.45-17.45,1.12-17.39-.16-17.44-1.23-17.46,2.14-16.88-1.7-.23-17.31L903,1814.69l-.15-17.81.39-17.85-.08-17.82,1.73-17.8-.69-17.84-1.16-17.8,1.35-17.85,0-17.81-.48-17.85-1-17.83,2-17,15.77-1.84,16.65,1.3,16.66.26,16.65-.92,16.69,1,16.3-.24,1.45,16.17-1.71,15.81-18.87.38-19.57-.73Z"/><path d="M1126.13,1850.82l-6.59-15.91-7-15.35L1105.9,1804l-5.78-15.9-7.64-15.1-5.2-16.24-12.68.27.22,18.59-1,18.67-.55,18.66.81,18.7-1.12,17.84-19.77,1.08-20-.9-1.77-17.18,1.87-17.82-.6-17.81-.37-17.85.9-17.82-1.8-17.8.42-17.84.73-17.8,1-17.85-1.55-17.81-.41-17.85.43-17.83.87-17.53h17l17.27-1.05,17.35,1.75,17.26-1.6,16.39,3.09,16,4.94,12.84,11.08,7.47,15.09,4.28,16,2.32,16.55-2.2,19.76-7.13,18.37-11.14,15.86-15,12.57,6.32,16.92L1141,1784l6.91,16.65,7.55,16.38,5.94,17.12,8.71,16.67-22.13.35Zm-52-129.27,12.84,0,20-2.41,11.6-14.3,2.43-20.07-4.35-21.22-16.08-12.22-13.45,1.2-12.56-.19-.73,16.86-.55,17.54.81,17.56Z"/><path d="M1230.25,1651.31l1.55,19.35-.31,19-1.58,19.74,21.7.19,20.43-.19,1.81,15.82-1.31,16.44-20.93-.15-21.36-.16.54,19.3-.38,18.87,1.35,18.87-.74,18.48,15.38-.3,15.81-.38,15.81,1.57,16.42-1.08-.46,17.14.12,16.86-17.7.6-17.42-1.31-17.43-.23-17.46.07-17.43,1-17.77-.13.85-18.14-1.78-17.82.9-17.81,1-17.85.24-17.82-.58-17.8-1.27-17.84,2.12-17.8-1.2-17.85,0-17.81-.23-17.85,1.54-17.83-.54-17.19,16-.79,16.69-.71,16.66,1.16,16.65-1.51,16.66,1.12,16.42.35-.82,16.26,1.44,17-19.86.39-19.54-.88Z"/><path d="M1441.85,1618.82l-.31,17.57.58,17.83.43,17.84.38,17.8-2,17.83,1.35,17.83-.11,17.81.42,17.83-1.77,17.83,1.38,17.81.32,17.85-.89,17.84.12,17.45-20.4-.52-21.24,1.75-5.63-17.08-4.43-16.81-3.82-17-6-16.32-4.54-16.74-4.44-16.81-5.28-16.53-5-16.66-.61.35-.94,18.93-.57,19,.19,18.93,1,19-1.77,19,2.13,19-.32,19.68-21.35-.7-20-.83-1.62-17-.15-17.82.07-17.81.47-17.85,1.35-17.82-1.47-17.8,1.31-17.84-1.85-17.8.31-17.85,1.08-17.81-1-17.85,0-17.83.32-18.43,22.36-.41,21.39,1.71,6.09,17.6,5.09,18.46,5.7,18.27,5.33,18.39,6,18.18,5.17,18.48,6.36,18.06-.23.29-.78-18.33,1.59-18.35-.19-18.35-.16-18.37.5-18.35-1.81-18.34.35-18.88,21.16,1.42Z"/><path d="M1553.33,1686.43l1.05-18.85-5.71-13.73-13.68-5.74-14,6.13-6.09,13.34.23,19.1.19,19.1v19.1l-.73,19.11.31,19.11-.16,19.13-1.27,19.12,7.83,13,13.65,5.49,12.8-5.63,5.47-12.83.54-18.33,20.93.46,20.28.37,1.31,17.5-4.51,17.23-9.57,14.57-13.14,11.66-16.5,6.15-17.61,2.18-18.12-1.54-16.61-7-15.74-9.24-10-15.52-3.62-18.22,1.58-19.11.5-19.16-.81-19.16-.27-19.16.65-19.16-1.54-19.16,1.58-19.16,2-18.25,10.59-15,14-12,17.93-3.93,18-2,17.61,1.53,17.27,4.87,14.07,11.41,7.52,16.24,3.16,17.1.42,17.56-20.31,1.33Z"/><path d="M1664.51,1651.85l-.19,18.81-.92,19L1664,1709l21.4.09,21.16-.73-.11,16.79-.43,16.09-20.62.28-21.82-.69.38,19.75-.62,18.87,1.93,18.87-1.69,19.5,16.57-.67,15.8-.79,15.85.88,16.11-.34.58,16.85-1.16,16.26-17.15.11-17.43-.59-17.46.52-17.42.1-17.42-.08-16.88-.36.61-17.24-.16-17.82-1.5-17.81L1624,1779l-.19-17.82-1-17.8v-17.84l.31-17.8.31-17.85-1.47-17.81-.07-17.85,1.16-17.83-.17-18,16.82-1,16.65.77,16.65-.39,16.69,1,16.65-1.23,17,.66-1.16,16.87.15,15.77-18.84,2-19.55-.86Z"/></g></svg>