<svg id="Layer_1" data-name="Layer 1" xmlns="http://www.w3.org/2000/svg" viewBox="0 0 288 144"><defs><style>.cls-1{fill:#fff;}</style></defs><title>That Conference - Logo - Text - Reverse</title><path class="cls-1" d="M9.13,32.9q.08,1.19.15,2.38c0,.79-.05,1.58-.08,2.38s0,1.59-.07,2.38.11,1.59.16,2.37v2.1h1.85l2.15.54L15.45,45l2.15.18L20,45c0-.84,0-1.69.07-2.54-.15-.78-.29-1.55-.44-2.34s0-1.55,0-2.33l.46-2.21,2,.05,2.11-.26h2.1l2.1.3,2.3-.39L30,37.68c0,.76,0,1.51,0,2.26l.7,2.25c-.13.75-.25,1.5-.38,2.25s-.14,1.5-.2,2.25-.14,1.49-.21,2.24c.21.74.41,1.49.62,2.23,0,.74,0,1.49,0,2.22s-.23,1.48-.33,2.22.08,1.47.12,2.2-.09,1.46-.13,2.2.16,1.46.24,2.19-.08,1.46-.12,2.18.09,1.55.14,2.32l-2.2,0-2,.24-1.81-.05c-.11.73-.21,1.46-.31,2.2.15.77.3,1.54.46,2.32,0,.78-.1,1.55-.15,2.33s.13,1.48.2,2.22l2.2.31L29,76.09l2.24-.71,2.27,0,2.29.43L38.08,75l2.3.54,2.25-.42,2.26-.18,2.26-.33,2.28.3,2.4-.07c-.09-.74-.19-1.48-.28-2.23.07-.72.15-1.44.23-2.17s0-1.45,0-2.19-.25-1.45-.37-2.19l-2,.27-2,0-2.08-.1c-.06-.71-.12-1.42-.18-2.14q.25-1.07.5-2.14c0-.71-.09-1.43-.13-2.14s-.2-1.44-.29-2.15c.13-.72.25-1.45.37-2.18-.2-.73-.4-1.45-.6-2.18,0-.73,0-1.46,0-2.2s.13-1.47.19-2.21.09-1.47.13-2.22.15-1.48.23-2.23V42.16q-.21-1.12-.42-2.24c0-.75,0-1.5,0-2.25s.13-1.69.2-2.53l2.83.15,2.6,0,2.59,0,2.39.34c-.07.71-.14,1.41-.22,2.11s0,1.54,0,2.32.1,1.54.15,2.31.18,1.46.28,2.19l2-.29,2.15.53,2.15.13,2.16-.62,2.33.49c-.16-.83-.32-1.67-.49-2.49,0-.78,0-1.56,0-2.34s.27-1.57.4-2.35c-.1-.78-.19-1.57-.29-2.36.09-.79.17-1.58.26-2.37-.11-.79-.21-1.58-.32-2.37L67,28.14l-.52-2.09-2-.24-2.3.29-2.3-.43-2.3.25-2.3.12L53,25.46l-2.3.39-2.3-.32-2.3-.15-2.3.67-2.3-.45-2.3.21-2.3-.18-2.3.27-2.3-.39-2.3.62L27.66,26l-2.3-.47-2.3.36-2.3-.49-2.3.22-2.3.55-2.3-.56-2.3.13-2.5-.18c.12.86.24,1.72.36,2.57Q9.22,29.34,9,30.53C9,31.32,9.09,32.11,9.13,32.9Z"/><path class="cls-1" d="M78.76,73.82l2.49-.31,2.37-.26,2.38.38,2.37,0,2.36-.55,2.38.41L95.47,73,97.84,73l2.37.25L102.4,73c0-.58.09-1.17.14-1.77-.12-.65-.24-1.29-.36-2l.57-2-.55-1.79-2-.34L98,65.28c0-.63-.09-1.27-.13-1.92s-.18-1.29-.26-1.95l.62-2c-.06-.66-.12-1.33-.18-2s0-1.27.07-1.92l2.11.25,2.24-.48,2.24.31,2.23-.13,2.24-.08,2.24,0,2.24.1,2.24-.46,2.24.52,2.49-.48q-.08,1.13-.16,2.24c.06.67.11,1.33.16,2l-.13,2c.07.64.14,1.28.21,1.91-.14.62-.28,1.22-.42,1.82l-2.08.12L115.81,65c0,.73.09,1.45.13,2.17s-.2,1.32-.29,2c.1.65.2,1.29.3,1.93s-.06,1.36-.08,2l2.57-.21,2.38-.26,2.38.15,2.38.37,2.38-.48,2.38.07,2.38.26,2.38-.4,2.38-.05,2.41.25c.12-.62.23-1.25.34-1.89s0-1.26,0-1.91l-.54-2c0-.6,0-1.21-.06-1.82l-1.87-.13-1.88-.24c.05-.58.1-1.16.15-1.74q-.24-1-.47-2c-.08-.66-.17-1.33-.24-2l.3-2c0-.69-.08-1.37-.12-2.07s-.13-1.39-.19-2.1l.38-2.12c.08-.71.16-1.43.24-2.15s0-1.45,0-2.17-.31-1.45-.48-2.18c.18-.73.35-1.47.53-2.21,0-.74,0-1.48.05-2.22q-.26-1.12-.53-2.24c.06-.75.11-1.51.17-2.27l2.14-.19,1.85,0c.14-.72.27-1.44.4-2.16-.12-.8-.24-1.6-.36-2.41.17-.8.35-1.61.53-2.41q-.07-1.28-.14-2.55l-2.53-.21-2.38.18-2.38.1-2.37.25L128,25.56l-2.38,0-2.38.55-2.37,0-2.38.15L116,25.7v2.48l-.22,2.41c0,.8,0,1.61-.08,2.4l.54,2.24,2,.55,2.24-.47c0,.76,0,1.52,0,2.27s-.23,1.45-.34,2.17q.21,1.08.42,2.16c0,.72,0,1.43-.07,2.15s-.22,1.31-.34,2l-2.06.2-2.24-.07L113.63,46l-2.24-.06-2.23.29-2.24-.27-2.23,0-2.24.27-2.24.33-2.31-.2c-.1-.74-.21-1.48-.32-2.22l.12-2.16c0-.72-.07-1.44-.1-2.17s.19-1.45.28-2.17,0-1.58,0-2.37l2.45,0,2.28.21c.14-.8.28-1.61.41-2.41-.2-.8-.39-1.6-.59-2.41.09-.8.19-1.61.28-2.41-.07-.76-.15-1.52-.22-2.28l-2.23-.24-2.37-.17-2.37-.13-2.37.23-2.37,0-2.37.3H86l-2.37-.07-2.37-.09-2.45,0q-.12,1.24-.24,2.49l.34,2.41c.07.8.14,1.61.21,2.4s-.09,1.52-.13,2.28l1.86.07L83,35.27c-.16.8-.32,1.59-.48,2.39,0,.75.07,1.5.11,2.24s.18,1.49.28,2.23c-.13.74-.26,1.48-.39,2.22l.61,2.21q0,1.1,0,2.19c-.06.73-.12,1.45-.18,2.17s-.08,1.44-.12,2.15-.14,1.42-.21,2.13,0,1.4,0,2.11l.44,2.08c0,.69,0,1.37,0,2.06s0,1.35,0,2-.18,1.39-.26,2.08l-2.11,0-1.91,0c-.13.68-.25,1.36-.37,2s-.05,1.38-.07,2.07,0,1.35.08,2S78.66,73.14,78.76,73.82Z"/><path class="cls-1" d="M171,25.35l-2.28.81-2.28-.77-2.4.24q.08,1.25.17,2.48c-.1.79-.19,1.58-.29,2.36l.56,2.35c0,.7-.08,1.39-.11,2.09l2.7.36c-.15.74-.29,1.47-.45,2.21l-.89,2.2c-.18.77-.36,1.53-.55,2.29l-1.08,2.12c-.07.79-.15,1.57-.23,2.35l-.82,2.16c-.14.76-.26,1.51-.4,2.26l-.95,2.07-1,2.05c-.11.73-.21,1.47-.32,2.19-.37.65-.74,1.3-1.11,1.94s-.51,1.35-.77,2l-.36,2.07-.9,1.88-2.47.25L152.25,65c0,.7-.1,1.39-.14,2.07l.37,1.95c.05.64.11,1.27.17,1.89s0,1.1,0,1.64l2,0,2.32.26,2.33-.07,2.32,0,2.33.4,2.33,0,2.33,0,2.32-.3,2.33.16,2.08-.11c0-.56,0-1.12,0-1.69s.2-1.27.3-1.92c-.08-.65-.16-1.3-.24-2l.34-2.12-3-.24-3,.38,1.27-2.09c.18-.68.37-1.37.56-2.07l2.18-.38,2.35.42,2.35.16,2.35-.64,2.34.12,2.36.19,2.34,0,2.35.29,2.35-.17L195,61c.38.71.75,1.43,1.12,2.13,0,.71,0,1.4.05,2.1l-2,.05-2.32.2-2.25-.09c-.12.67-.25,1.32-.37,2,.12.67.25,1.34.37,2s0,1.31,0,2-.25,1.38-.37,2l2.46.12,2.27-.35,2.26.39,2.26-.41,2.26.24,2.25.23,2.26-.21,2.25.55,2.26.05L212,73.6l2.26.29,2.24.32,2.5,0c0-.73.09-1.46.14-2.2s-.15-1.36-.23-2-.19-1.39-.29-2.09c.08-.67.16-1.35.24-2l-2.5.25-2.73-.19-.9-2.07c-.14-.68-.28-1.36-.42-2l-.79-2-.63-2c-.16-.7-.33-1.39-.48-2.1s-.21-1.44-.32-2.17l-1.26-1.91c-.15-.72-.29-1.44-.45-2.17l-1-2c-.13-.74-.27-1.47-.4-2.21s-.37-1.45-.55-2.18l-.58-2.18L205,38.78c-.22-.73-.45-1.45-.67-2.18l-1-2.08-.71-2.17c-.2-.73-.42-1.46-.62-2.2l-.6-2.21q-.34-1.13-.66-2.26l-2.34.24-2.29.26-2.28-.64-2.28.12-2.28,0-2.28.44h-2.28L182.43,26l-2.29-.44-2.27.33-2.29-.48-2.28,0ZM175,50.82c.25-.7.51-1.41.77-2.12l1-2c.19-.74.37-1.47.56-2.22s.42-1.47.63-2.21.27-1.53.4-2.31l1.49-2c.16-.75.3-1.5.46-2.24l2.29-.24,2.36,0,2.19.33c.29.66.59,1.31.88,2l.65,2.2c.08.77.15,1.53.22,2.3s.4,1.46.61,2.18l1.1,2c.07.75.14,1.51.21,2.25l1.17,2c.12.77.25,1.52.37,2.28L190,52.91l-2.25.3-2.26-.57h-2.26l-2.26.52-2.25-.26-2.26-.27-2,.11C174.63,52.12,174.8,51.47,175,50.82Z"/><path class="cls-1" d="M220.88,32.89l.58,2.37q-.12,1.18-.24,2.36c-.1.78-.18,1.57-.27,2.35s0,1.56,0,2.34.17,1.6.26,2.4l2.22-.43,2.16.41,2.16.37,2.15-.46,2.06,0c.07-.74.16-1.48.23-2.21s0-1.55-.06-2.32.08-1.54.13-2.32q-.2-1.19-.38-2.4l2.19.39,2.09-.73,2.11.66,2.1-.06,2.37-.44c-.15.84-.32,1.67-.48,2.51s-.05,1.5-.08,2.25c.17.75.35,1.5.53,2.25-.07.75-.13,1.5-.21,2.24l.44,2.23c0,.74,0,1.48,0,2.22s0,1.48,0,2.21.12,1.47.17,2.2-.06,1.46-.1,2.19-.32,1.45-.48,2.16c.17.72.34,1.44.5,2.16,0,.72-.08,1.44-.12,2.14s0,1.42.06,2.13l-.35,2-1.93,0-2-.08-1.81.16c0,.69,0,1.37,0,2.06s.07,1.46.11,2.19c-.18.72-.36,1.44-.54,2.15,0,.74-.06,1.47-.11,2.2l2.39-.25,2.27.07,2.25.47,2.27.18,2.29-.36,2.26.29,2.26.26,2.25.37,2.27,0,2.28-.09,2.26.31,2.52.2c-.11-.85-.22-1.71-.35-2.56.23-.76.45-1.53.67-2.3-.21-.79-.43-1.57-.65-2.36.09-.74.18-1.48.27-2.23l-1.9-.11-2,.27-2-.46c.11-.71.21-1.42.32-2.13s0-1.46,0-2.19,0-1.46,0-2.19,0-1.46.05-2.2c-.15-.74-.3-1.47-.46-2.21.16-.73.33-1.47.48-2.21-.08-.74-.15-1.48-.24-2.23s-.06-1.48-.1-2.23-.14-1.49-.2-2.24.09-1.49.13-2.24c-.11-.75-.23-1.5-.35-2.25.11-.75.22-1.5.32-2.25l-.21-2.26c0-.79,0-1.57-.05-2.36l2.68.27,2.59,0,2.59-.08,2.74-.32c-.15.84-.3,1.68-.46,2.51.15.78.3,1.56.44,2.34s.11,1.56.17,2.34-.12,1.58-.18,2.37l2.21.34,2.16-.19,2.16.12,2.14-.49,2.21.25-.13-2.42q-.06-1.19-.11-2.38c-.09-.8-.17-1.59-.25-2.38.16-.79.33-1.59.5-2.38-.08-.79-.17-1.59-.25-2.38s0-1.58,0-2.38l-.16-2.38c.11-.88.21-1.76.31-2.64l-2.57.49L274,25.51l-2.3-.16-2.3.73-2.3-.12-2.31-.2h-2.29l-2.3-.3-2.3.21-2.3.13-2.29.37-2.3-.78-2.3.27-2.3.26-2.29,0-2.31-.39-2.3.38-2.3,0-2.3-.42h-2.3l-2.3.5-2.3-.42-2.3.57-2.3-.22-2.33-.19c.11.8.21,1.61.32,2.42-.19.79-.39,1.58-.59,2.37C220.86,31.31,220.87,32.1,220.88,32.89Z"/><path class="cls-1" d="M60,95.86l.15-2.56-1-1.69-1.68-.92-1.86.84L54.49,93.3l0,2.6-.08,2.6.08,2.61.16,2.6-.22,2.61,0,2.61,0,2.61,1.09,1.81,1.9.66,1.78-.68.78-1.79-.1-2.6,3,.16,2.92-.13-.2,2.57-.37,2.36-1.27,2-1.82,1.58-2.31.7-2.38.44L55,118.39l-2.3-.9-2.12-1.3L49.26,114l-.43-2.46L49,109l-.07-2.61-.21-2.61v-2.61l.1-2.61L49,95.91l-.3-2.61.66-2.42,1.12-2.25,2.12-1.34L55,86.54l2.46-.19,2.39.23,2.33.69,1.92,1.53,1.27,2.1.44,2.41-.07,2.5H62.86Z"/><path class="cls-1" d="M85.11,93.25l.12,2.6-.17,2.6.12,2.61.1,2.61-.17,2.6.18,2.61-.13,2.61-.41,2.38-1.3,2-1.87,1.47-2.15,1.15-2.45.06-2.44-.34-2.37-.66L70.24,116l-1.13-2.17-.64-2.38.09-2.6-.08-2.6.17-2.6-.08-2.61-.21-2.61V95.86l.07-2.6.42-2.46,1.32-2.11,2-1.4,2.3-.9L77,86.24l2.42.11,2.2,1,1.95,1.42,1.32,2.06Zm-5.55,0-.87-1.77-1.71-1-1.9.83-.77,1.83-.18,2.6.18,2.6-.12,2.6,0,2.6-.09,2.6-.07,2.6.3,2.6.64,2,2,.89,1.76-1,.8-1.84.13-2.58-.22-2.58.09-2.58-.08-2.59.17-2.59-.08-2.59Z"/><path class="cls-1" d="M106.14,86.67l.2,2.38-.3,2.43,0,2.43.28,2.43L106,98.77v2.43l.26,2.43v4.86l-.22,2.43,0,2.43.07,2.43,0,2.34h-2.74l-2.83.11L99.81,116l-.52-2.32-.71-2.26-.82-2.22-.53-2.31-.9-2.2-.5-2.33L95,100.1l-.06,0-.06,2.58-.15,2.59.28,2.58-.23,2.59,0,2.59.09,2.59,0,2.61H92.07l-2.78-.08,0-2.38v-2.43l0-2.43,0-2.43-.1-2.43.12-2.43-.09-2.43,0-2.43V96.35l.06-2.43-.09-2.43-.06-2.43.09-2.52,3.05.19,3-.06L96,89.11l.58,2.55,1,2.44.72,2.52.57,2.55.78,2.49.72,2.52.22-.05v-2.5l.08-2.5,0-2.5-.05-2.51.07-2.5-.21-2.5.19-2.46,2.79.1Z"/><path class="cls-1" d="M116.23,91.21l-.1,2.51,0,2.59.06,2.51,2.77-.07,2.82.19,0,2.23v2.2l-2.8-.09-2.88.11v2.51l.11,2.47-.08,2.47.06,2.47-.06,2.47,0,2.47-2.83-.07-2.75,0-.12-2.35,0-2.43.11-2.43-.24-2.43.32-2.43-.16-2.43.09-2.43-.23-2.43.05-2.43.11-2.43.13-2.43-.11-2.43-.06-2.45,2.28,0,2.26.12,2.27-.23,2.27.17,2.26.08,2.33-.22,0,2.31v2.38L121.44,91l-2.65,0Z"/><path class="cls-1" d="M133.06,91.17l-.18,2.55.21,2.59,0,2.54,2.82,0,2.79.19,0,2.16,0,2.13-2.77,0-2.77.27,0,2.47v2.57l-.29,2.57.25,2.5,2.07-.08,2.16.08,2.15.23,2.14-.15-.05,2.25.17,2.36-2.48-.2-2.38.15-2.37,0-2.38-.17-2.38.29-2.3-.23,0-2.36-.18-2.43,0-2.43.05-2.43v-2.43l.24-2.43-.09-2.43-.16-2.43.18-2.43V93.92l-.07-2.43-.14-2.43.27-2.32,2.15-.25,2.27.18,2.27,0,2.27-.13,2.28.13,2.22,0,.2,2.2L140.93,91l-2.57.05-2.67-.1Z"/><path class="cls-1" d="M157.67,118.29l-.9-2.17-1-2.09-.9-2.12-.79-2.17-1-2.06-.71-2.21-1.73,0,0,2.53-.13,2.55-.07,2.54.11,2.55-.15,2.43-2.7.15-2.72-.12-.24-2.34.26-2.43-.08-2.43,0-2.43.12-2.43-.25-2.43.06-2.43.1-2.43.14-2.43-.21-2.43-.06-2.43.06-2.43.12-2.39h2.32l2.36-.14,2.36.24,2.36-.22,2.23.42,2.18.67,1.75,1.51,1,2.06.58,2.19.32,2.26-.3,2.69-1,2.51L159.66,103l-2,1.71.86,2.31,1.22,2.15.94,2.27,1,2.23.81,2.33,1.19,2.27-3,0Zm-7.09-17.63h1.75l2.73-.33,1.58-2,.33-2.74-.59-2.89-2.19-1.67-1.83.16-1.71,0-.1,2.3-.07,2.39.11,2.39Z"/><path class="cls-1" d="M171.87,91.08l.21,2.64,0,2.59L171.82,99l3,0,2.79,0,.25,2.16-.18,2.24-2.85,0-2.91,0,.07,2.63-.05,2.57.18,2.57-.1,2.52,2.1,0,2.16-.05,2.16.21,2.24-.15-.06,2.34,0,2.3-2.41.08-2.38-.18-2.38,0H171l-2.38.14-2.42,0,.12-2.47-.24-2.43.12-2.43.14-2.43,0-2.43-.08-2.43-.17-2.43.29-2.43-.16-2.43V93.92l0-2.43.21-2.43-.07-2.34,2.18-.11,2.28-.1,2.27.16,2.27-.21,2.27.15,2.24,0-.11,2.22.2,2.31-2.71.05-2.67-.12Z"/><path class="cls-1" d="M200.72,86.65l0,2.4.08,2.43.06,2.43.05,2.43-.27,2.43.18,2.43,0,2.43.06,2.43-.24,2.43.19,2.43,0,2.43-.12,2.43,0,2.38-2.78-.07-2.9.24-.77-2.33-.6-2.29-.52-2.31-.83-2.22-.62-2.28-.61-2.29-.72-2.25-.69-2.27-.08,0-.13,2.58-.08,2.59,0,2.58.13,2.59-.24,2.59.29,2.59,0,2.68-2.91-.1-2.73-.11-.22-2.32,0-2.43v-2.43l.06-2.43.18-2.43-.2-2.43.18-2.43-.25-2.43,0-2.43.15-2.43-.13-2.43V89.05l0-2.51,3-.06,2.92.23.83,2.4.69,2.52.78,2.49.73,2.51.82,2.48.7,2.52.87,2.46,0,0-.11-2.5.22-2.5,0-2.5,0-2.51.07-2.5-.25-2.5,0-2.57,2.89.19Z"/><path class="cls-1" d="M215.93,95.87l.14-2.57-.78-1.87-1.87-.78-1.9.84-.83,1.82,0,2.6,0,2.6v2.61l-.1,2.6,0,2.61,0,2.61-.17,2.61,1.07,1.77,1.86.75,1.75-.77.75-1.75L216,109l2.85.06,2.77.05.18,2.39-.62,2.35-1.3,2-1.79,1.59-2.25.84-2.4.3-2.47-.21-2.27-.95-2.15-1.26-1.37-2.12-.49-2.48.22-2.61.07-2.61-.11-2.61,0-2.61.09-2.61-.21-2.61.22-2.61.27-2.49,1.45-2,1.9-1.63L211,86.6l2.45-.27,2.4.21,2.36.66,1.92,1.56,1,2.22.43,2.33.06,2.39-2.77.18Z"/><path class="cls-1" d="M231.09,91.15l0,2.57-.13,2.59L231,99h2.92l2.89-.1,0,2.29-.06,2.19-2.81,0-3-.09L231,106l-.08,2.57.26,2.57-.23,2.66,2.26-.09,2.16-.11,2.16.12,2.2,0,.08,2.3-.16,2.22-2.34,0-2.38-.08-2.38.07h-4.75l-2.3,0,.08-2.35,0-2.43-.21-2.43.2-2.43,0-2.43-.14-2.43v-2.43l0-2.43,0-2.43-.2-2.43V91.48l.16-2.43,0-2.45,2.29-.14,2.27.11,2.27-.05,2.28.13,2.27-.17,2.32.09-.16,2.3L239,91l-2.57.27-2.67-.12Z"/></svg>