<svg id="Layer_1" data-name="Layer 1" xmlns="http://www.w3.org/2000/svg" viewBox="0 0 288 180"><title>That Conference - Logo - Trees - Black</title><polygon points="233.66 52.35 237.91 55.83 241.54 59.45 245 63.24 248.72 66.78 252.17 70.58 256.08 73.93 259.42 77.72 255.63 81.06 252.75 85.43 248.86 88.79 245.52 92.7 241.27 95.72 237.35 99.05 234.66 103.15 237.67 106.11 240.81 109.49 243.94 113.42 247.87 109.8 250.62 105.53 253.99 101.87 257.51 98.36 261.07 94.88 265.14 91.92 268.12 87.88 272.4 85.13 275.65 81.34 279 77.72 275.87 73.91 272.39 70.35 268.35 67.36 264.98 63.71 261.32 60.35 258.39 56.24 254.83 52.78 250.77 49.79 247.7 45.83 243.91 42.77 240.93 46.09 237.84 49.56 233.66 52.35"/><polygon points="53.44 103.11 50.14 99.07 45.73 96.23 42.43 92.28 38.98 88.49 34.85 85.35 31.25 81.68 28.09 77.72 31.36 73.87 35.52 70.78 39.21 67.23 42.9 63.67 45.78 59.29 49.91 56.16 53.42 52.33 50.08 49.09 46.73 45.94 43.6 43.19 39.66 45.67 36.44 49.48 33.23 53.29 29.62 56.72 25.87 60 22.71 63.88 18.96 67.15 15.41 70.64 11.72 73.97 9 77.73 12.21 80.98 15.7 84.5 19.41 87.82 22.28 91.97 25.81 95.47 29.46 98.86 32.9 102.44 36.85 105.54 40.11 109.33 43.59 112.79 47.05 109.84 50.21 106.5 53.44 103.11"/><polygon points="225.25 133.91 222.91 130.07 221.18 125.24 217.66 121.49 215.67 116.81 212.39 112.91 209.79 108.6 207.59 104.05 205 99.6 212.12 99.81 209.98 95.02 207.25 90.79 204.46 86.6 201.75 82.35 198.93 78.16 197 73.46 193.43 69.72 190.97 64.84 198.57 65.55 196.11 60.51 193 56.51 190.32 52.25 187.81 47.9 185.35 43.5 182.8 39.17 180.12 34.9 177.46 30.86 174.5 34.71 172.1 39.14 169.37 43.37 167.67 48.21 164.32 52.08 161.7 56.37 158.91 60.56 157.06 64.82 163.27 65.53 160.94 69.39 158.87 74.01 155.67 77.97 153.55 82.57 151.21 87.03 148.31 91.17 145.65 95.43 142.62 99.99 150.18 99.26 147.87 103.71 144.67 107.01 142.93 111.62 140.96 107.16 138.66 103.31 136.46 100.19 142.98 99.73 139.78 95.7 138.2 90.77 135.25 86.67 132.14 82.67 129.86 78.17 126.8 74.13 124.83 69.44 122.09 65.03 129.11 65.14 126.99 60.54 124.51 56.17 121.28 52.24 118.21 48.21 115.58 43.93 114.1 38.94 111.23 34.8 108.39 30.7 105.37 34.67 103.33 39.31 101.13 43.86 98.01 47.85 95.92 52.46 92.65 56.38 89.99 60.65 87.64 65.19 94.66 65.07 92.25 69.62 90 74.13 87.41 78.44 84.8 82.75 81.79 86.8 79.44 91.27 76.46 95.36 74.3 99.25 80.32 100.14 78.74 104.32 75.04 107.96 72.92 112.57 70.16 116.77 67.73 121.19 65.01 125.42 63.21 130.22 59.6 134.45 64.94 134.77 69.84 134.22 74.72 134.33 79.61 134.65 84.49 134.61 89.39 133.87 94.28 134.81 99.62 133.74 98.63 139.05 99.59 143.91 99.19 148.75 103.78 149.3 108.39 148.14 113.01 148.71 117.49 148.65 118.23 143.92 117.74 139.05 117.22 133.71 123.37 134.48 129.11 133.94 133.72 133.77 138.32 134.24 142.92 133.96 147.53 134.62 152.13 133.97 156.73 133.59 162.48 133.65 168.57 133.79 168.19 139.05 167.84 143.91 168.27 148.72 172.84 148.35 177.45 149.05 182.07 148.23 186.47 148.57 187.06 143.92 187.04 139.05 186.41 133.94 191.57 133.97 196.46 133.68 201.35 134.51 206.23 133.66 211.12 134.38 216 134.09 220.9 134.33 225.25 133.91"/></svg>