<svg id="Layer_1" data-name="Layer 1" xmlns="http://www.w3.org/2000/svg" viewBox="0 0 288 288"><defs><style>.cls-1{fill:#bc4627;}</style></defs><title>That Conference - Logo - Full - Red</title><polygon class="cls-1" points="233.66 53.46 237.91 56.94 241.54 60.55 245 64.35 248.72 67.89 252.17 71.68 256.08 75.04 259.42 78.83 255.63 82.17 252.75 86.54 248.86 89.9 245.52 93.81 241.27 96.83 237.35 100.16 234.66 104.25 237.67 107.22 240.81 110.6 243.94 114.53 247.87 110.91 250.62 106.64 253.99 102.98 257.51 99.47 261.07 95.99 265.14 93.03 268.12 88.99 272.4 86.24 275.65 82.45 279 78.83 275.87 75.02 272.39 71.46 268.35 68.47 264.98 64.82 261.32 61.46 258.39 57.35 254.83 53.89 250.77 50.9 247.7 46.94 243.91 43.88 240.93 47.2 237.84 50.67 233.66 53.46"/><polygon class="cls-1" points="53.44 104.22 50.14 100.18 45.73 97.34 42.43 93.39 38.98 89.6 34.85 86.46 31.25 82.79 28.09 78.83 31.36 74.98 35.52 71.89 39.21 68.34 42.9 64.78 45.78 60.4 49.91 57.27 53.42 53.44 50.08 50.2 46.73 47.05 43.6 44.3 39.66 46.78 36.44 50.59 33.23 54.4 29.62 57.83 25.87 61.11 22.71 64.99 18.96 68.26 15.41 71.75 11.72 75.08 9 78.83 12.21 82.09 15.7 85.61 19.41 88.93 22.28 93.08 25.81 96.58 29.46 99.97 32.9 103.55 36.85 106.65 40.11 110.44 43.59 113.9 47.05 110.95 50.21 107.61 53.44 104.22"/><polygon class="cls-1" points="225.25 135.02 222.91 131.18 221.18 126.35 217.66 122.59 215.67 117.92 212.39 114.02 209.79 109.71 207.59 105.16 205 100.71 212.12 100.92 209.98 96.13 207.25 91.89 204.46 87.71 201.75 83.46 198.93 79.27 197 74.57 193.43 70.83 190.97 65.95 198.57 66.66 196.11 61.62 193 57.62 190.32 53.36 187.81 49.01 185.35 44.61 182.8 40.28 180.12 36.01 177.46 31.97 174.5 35.82 172.1 40.25 169.37 44.48 167.67 49.32 164.32 53.19 161.7 57.48 158.91 61.67 157.06 65.93 163.27 66.64 160.94 70.5 158.87 75.12 155.67 79.08 153.55 83.68 151.21 88.14 148.31 92.27 145.65 96.54 142.62 101.1 150.18 100.37 147.87 104.82 144.67 108.12 142.93 112.73 140.96 108.27 138.66 104.42 136.46 101.3 142.98 100.84 139.78 96.81 138.2 91.88 135.25 87.78 132.14 83.78 129.86 79.28 126.8 75.24 124.83 70.55 122.09 66.14 129.11 66.25 126.99 61.65 124.51 57.28 121.28 53.35 118.21 49.32 115.58 45.03 114.1 40.05 111.23 35.91 108.39 31.81 105.37 35.78 103.33 40.42 101.13 44.97 98.01 48.96 95.92 53.57 92.65 57.49 89.99 61.76 87.64 66.3 94.66 66.18 92.25 70.73 90 75.23 87.41 79.55 84.8 83.86 81.79 87.91 79.44 92.38 76.46 96.47 74.3 100.36 80.32 101.24 78.74 105.43 75.04 109.07 72.92 113.68 70.16 117.88 67.73 122.3 65.01 126.53 63.21 131.33 59.6 135.56 64.94 135.88 69.84 135.33 74.72 135.44 79.61 135.76 84.49 135.72 89.39 134.98 94.28 135.92 99.62 134.85 98.63 140.16 99.59 145.02 99.19 149.86 103.78 150.41 108.39 149.25 113.01 149.82 117.49 149.76 118.23 145.03 117.74 140.16 117.22 134.82 123.37 135.59 129.11 135.05 133.72 134.88 138.32 135.35 142.92 135.07 147.53 135.72 152.13 135.08 156.73 134.7 162.48 134.76 168.57 134.9 168.19 140.16 167.84 145.02 168.27 149.83 172.84 149.46 177.45 150.16 182.07 149.34 186.47 149.68 187.06 145.03 187.04 140.16 186.41 135.05 191.57 135.08 196.46 134.79 201.35 135.62 206.23 134.77 211.12 135.49 216 135.19 220.9 135.44 225.25 135.02"/><path class="cls-1" d="M10.48,171.31q.08,1.18.15,2.36c0,.78-.05,1.57-.08,2.35s0,1.57-.07,2.36.11,1.57.16,2.35v2.08h1.83l2.13.54,2.14-.08,2.13.18,2.36-.18c0-.83,0-1.67.07-2.51-.15-.77-.29-1.54-.44-2.31s0-1.54,0-2.31l.46-2.19,1.95.05,2.09-.26h2.08l2.08.3,2.27-.39L31.15,176c0,.75,0,1.49,0,2.24l.69,2.23c-.13.74-.25,1.49-.37,2.23s-.14,1.49-.2,2.23-.14,1.47-.21,2.22c.21.73.41,1.47.62,2.2,0,.73,0,1.47,0,2.2s-.22,1.46-.33,2.19.08,1.46.12,2.18-.09,1.45-.13,2.18.15,1.44.24,2.16-.08,1.44-.12,2.16.09,1.54.14,2.3l-2.18,0-2,.24-1.79-.05c-.11.72-.21,1.45-.31,2.18.15.76.3,1.53.45,2.29,0,.77-.1,1.54-.15,2.31s.13,1.46.2,2.2l2.18.31,2.25-.15,2.22-.71,2.25,0,2.27.43,2.21-.81,2.27.54,2.23-.42,2.24-.17,2.24-.33,2.26.3,2.38-.07c-.09-.73-.19-1.47-.28-2.21.07-.71.15-1.43.23-2.15s0-1.44,0-2.17-.25-1.43-.37-2.16l-2,.27-2,0-2.05-.1c-.06-.7-.12-1.41-.18-2.12q.24-1.06.49-2.12c0-.7-.09-1.41-.13-2.12s-.19-1.42-.29-2.13c.13-.72.25-1.43.37-2.15-.19-.72-.39-1.43-.6-2.16,0-.72,0-1.45,0-2.18s.13-1.45.19-2.19.09-1.46.13-2.19.15-1.47.22-2.21v-2.21q-.21-1.11-.41-2.22c0-.74,0-1.49,0-2.23s.13-1.67.2-2.51l2.8.15,2.57,0,2.56,0,2.36.34c-.07.7-.14,1.39-.22,2.09s0,1.53,0,2.3.1,1.52.15,2.28.18,1.44.27,2.17l2-.29,2.13.53,2.13.13,2.14-.61,2.31.49c-.16-.82-.32-1.65-.48-2.47,0-.77,0-1.54,0-2.32s.27-1.55.4-2.33c-.09-.77-.19-1.56-.29-2.33.09-.78.17-1.56.26-2.34-.11-.78-.21-1.56-.32-2.35l.59-2.35-.52-2.07-2-.24-2.28.29-2.28-.42-2.28.24-2.27.12-2.28-.57-2.28.39L49.32,164,47,163.86l-2.28.66-2.27-.45-2.28.2-2.28-.18-2.28.27L33.38,164l-2.27.61-2.28-.11L26.55,164l-2.27.36L22,163.88l-2.28.22-2.28.55-2.27-.55-2.27.13-2.47-.18c.12.85.24,1.7.36,2.55q-.21,1.18-.42,2.36C10.4,169.74,10.45,170.52,10.48,171.31Z"/><path class="cls-1" d="M79.41,211.82l2.47-.31,2.34-.26,2.36.38,2.35,0,2.34-.55,2.36.41L96,211l2.35,0,2.35.25,2.16-.23c0-.58.09-1.16.14-1.75-.12-.64-.24-1.28-.36-1.93l.56-2-.54-1.77-2-.34-2.25.15c0-.63-.09-1.26-.13-1.9s-.18-1.28-.26-1.93l.61-2c-.06-.66-.11-1.32-.18-2s0-1.26.07-1.9l2.09.25,2.22-.47,2.22.3,2.21-.12,2.22-.08,2.21,0,2.22.1,2.22-.45,2.21.51,2.46-.48q-.08,1.12-.16,2.22c.06.66.11,1.32.16,2l-.12,1.93c.07.63.14,1.27.21,1.9-.14.61-.28,1.2-.42,1.8l-2.06.12-2.33-.16c0,.72.09,1.44.13,2.14s-.19,1.31-.29,2c.1.64.2,1.27.3,1.91s-.06,1.35-.08,2l2.54-.21,2.36-.26,2.36.15,2.36.37,2.35-.47,2.35.07,2.35.26,2.36-.39,2.35-.05,2.39.25c.11-.61.22-1.24.34-1.87s0-1.25,0-1.89l-.53-1.94c0-.6,0-1.2-.06-1.81l-1.85-.13-1.87-.23c.05-.57.1-1.14.15-1.72q-.24-1-.47-1.95c-.08-.66-.16-1.32-.24-2l.3-2c0-.68-.08-1.36-.12-2.05s-.13-1.37-.19-2.07l.37-2.1c.08-.7.16-1.41.24-2.12s0-1.43,0-2.15-.31-1.44-.47-2.16c.18-.72.35-1.45.52-2.18,0-.73,0-1.47,0-2.2q-.26-1.11-.53-2.22c.06-.74.11-1.49.17-2.25l2.12-.19,1.83,0c.13-.71.27-1.42.4-2.14-.12-.79-.24-1.58-.36-2.38.17-.79.35-1.59.52-2.39q-.07-1.26-.14-2.53l-2.5-.21-2.35.17-2.36.1-2.35.24-2.35-.36-2.35,0-2.36.54-2.35,0-2.36.15-2.42-.47v2.45l-.22,2.39c0,.79,0,1.59-.08,2.38l.53,2.22,2,.54,2.22-.47c0,.75,0,1.5,0,2.25s-.22,1.43-.33,2.15q.2,1.07.41,2.14c0,.71,0,1.42-.07,2.12s-.22,1.3-.33,1.94l-2,.2-2.22-.07-2.21-.18-2.21-.06-2.21.29-2.21-.27-2.21,0-2.22.26-2.22.32-2.29-.2c-.1-.73-.21-1.46-.32-2.2l.12-2.13c0-.71-.07-1.43-.1-2.14s.18-1.43.28-2.15,0-1.57,0-2.35l2.43,0,2.25.21c.14-.8.27-1.59.4-2.39-.2-.79-.39-1.58-.59-2.38.09-.79.19-1.59.28-2.39-.07-.75-.15-1.5-.22-2.25l-2.21-.24L98.33,164,96,163.84l-2.34.23-2.34,0-2.35.3H86.6l-2.34-.07-2.34-.09-2.43,0q-.11,1.23-.23,2.47l.34,2.38c.07.79.14,1.59.21,2.38s-.08,1.5-.12,2.25l1.84.07,2.14-.07c-.16.79-.32,1.58-.48,2.36,0,.74.07,1.49.11,2.22s.18,1.48.27,2.21c-.13.74-.26,1.47-.38,2.2l.6,2.19q0,1.09,0,2.17c-.06.72-.12,1.44-.18,2.15s-.08,1.42-.12,2.13-.13,1.41-.2,2.11,0,1.39,0,2.08l.44,2.06c0,.68,0,1.36,0,2s0,1.34,0,2-.17,1.37-.26,2.06l-2.09,0-1.89,0c-.13.68-.24,1.35-.37,2s0,1.37-.07,2.05,0,1.34.08,2S79.32,211.14,79.41,211.82Z"/><path class="cls-1" d="M170.75,163.83l-2.25.81-2.26-.76-2.38.24q.08,1.23.17,2.45c-.1.78-.19,1.56-.29,2.34l.56,2.33c0,.69-.08,1.38-.11,2.07l2.67.35c-.15.73-.29,1.46-.44,2.19l-.88,2.18c-.18.76-.36,1.52-.54,2.27l-1.07,2.1c-.07.78-.15,1.56-.23,2.33l-.81,2.13c-.13.75-.26,1.5-.4,2.24l-.94,2-.94,2c-.1.73-.21,1.46-.32,2.17-.37.64-.73,1.28-1.1,1.92s-.5,1.33-.76,2l-.36,2.05-.9,1.86-2.45.25-2.57-.32c0,.69-.09,1.37-.14,2.05l.36,1.93c.05.63.1,1.26.17,1.87s0,1.09,0,1.62l2,0,2.3.26,2.31-.07,2.3,0,2.31.4,2.31,0,2.31,0,2.3-.3,2.31.16,2.06-.11c0-.55,0-1.11,0-1.67s.2-1.25.3-1.9c-.08-.64-.16-1.29-.24-2l.33-2.1-2.95-.23-2.93.38,1.26-2.07c.18-.68.37-1.36.55-2.05l2.15-.38,2.33.42,2.33.16,2.32-.63,2.32.12,2.33.19,2.32,0,2.33.28,2.33-.17,2.34-.09c.37.71.74,1.41,1.11,2.11,0,.7,0,1.39.05,2.07l-2,.05-2.3.2-2.23-.09c-.12.66-.24,1.31-.37,2,.12.67.24,1.33.36,2s0,1.3,0,1.93-.24,1.36-.37,2l2.44.12,2.25-.34,2.23.39,2.24-.4,2.23.23,2.23.22,2.24-.21,2.23.55,2.24,0,2.24-.39,2.23.29,2.22.31,2.47,0c0-.72.09-1.45.14-2.18s-.15-1.34-.23-2-.19-1.37-.29-2.07c.08-.67.16-1.34.24-2l-2.47.24L213,204l-.89-2c-.14-.67-.28-1.35-.42-2l-.78-2-.62-2c-.16-.69-.32-1.38-.48-2.08s-.21-1.43-.31-2.14l-1.25-1.89c-.15-.71-.29-1.43-.44-2.15l-1-2c-.13-.73-.27-1.45-.4-2.18s-.36-1.44-.55-2.16l-.57-2.16-.91-2.06c-.22-.72-.44-1.44-.67-2.15l-1-2.06-.7-2.15c-.2-.72-.41-1.45-.61-2.18l-.59-2.19q-.34-1.12-.66-2.24l-2.32.24-2.27.26-2.25-.63-2.26.12-2.26,0-2.26.44H184.3l-2.26-.06-2.26-.43-2.25.33-2.27-.48-2.25,0Zm3.9,25.22c.25-.69.51-1.39.76-2.09l1-2c.19-.73.37-1.46.56-2.2s.41-1.46.62-2.19.26-1.52.4-2.28l1.47-1.93c.16-.74.3-1.48.45-2.22l2.27-.24,2.34,0,2.17.33c.29.65.58,1.3.87,1.94l.64,2.18c.08.76.15,1.52.22,2.27s.4,1.44.6,2.16l1.09,2c.07.75.13,1.49.21,2.23l1.16,2c.12.76.25,1.51.36,2.26l-2.35-.14-2.23.3-2.24-.57h-2.24l-2.23.52-2.23-.26-2.24-.27-2,.11C174.32,190.33,174.49,189.69,174.65,189.05Z"/><path class="cls-1" d="M220.11,171.3l.58,2.34q-.12,1.17-.24,2.33c-.09.78-.18,1.56-.27,2.33s0,1.55,0,2.32.17,1.58.26,2.37l2.2-.42,2.14.41,2.13.36,2.13-.45,2,0c.07-.73.16-1.46.23-2.19s0-1.53-.06-2.3.08-1.52.12-2.29q-.2-1.18-.37-2.38l2.16.39,2.07-.72,2.09.66,2.08-.06,2.35-.43c-.15.83-.31,1.66-.47,2.49s-.05,1.49-.08,2.23c.17.74.35,1.49.52,2.22-.07.74-.13,1.48-.21,2.22l.44,2.21c0,.74,0,1.46,0,2.19s0,1.46,0,2.19.12,1.45.17,2.18-.06,1.44-.09,2.16-.32,1.43-.47,2.14c.17.72.34,1.43.5,2.14,0,.71-.08,1.42-.12,2.12s0,1.41.06,2.11l-.35,2-1.91,0-2-.08-1.79.16c0,.68,0,1.36,0,2s.07,1.45.11,2.17c-.18.71-.35,1.42-.54,2.13,0,.73-.06,1.46-.11,2.18l2.36-.25,2.25.07,2.23.46,2.24.18,2.26-.36,2.24.29,2.24.26,2.23.37,2.25,0,2.25-.09,2.23.3,2.5.2c-.11-.84-.22-1.69-.34-2.54.22-.75.44-1.51.66-2.27-.21-.78-.43-1.56-.64-2.33.09-.73.18-1.47.27-2.21l-1.88-.11-2,.27-2-.45c.1-.71.2-1.41.31-2.11s0-1.44,0-2.17,0-1.44,0-2.17,0-1.45.05-2.18c-.15-.73-.3-1.46-.46-2.19.16-.73.32-1.46.47-2.19-.08-.73-.15-1.47-.24-2.2s-.06-1.47-.1-2.21-.14-1.48-.2-2.22.09-1.48.13-2.22c-.11-.74-.23-1.48-.34-2.23.11-.74.21-1.48.32-2.23l-.2-2.23c0-.78,0-1.56-.05-2.34l2.65.27,2.57,0,2.57-.07,2.71-.31c-.15.83-.3,1.66-.46,2.49.15.77.3,1.54.44,2.31s.1,1.54.17,2.31-.12,1.56-.18,2.35l2.19.33,2.13-.19,2.14.11,2.12-.49,2.19.25-.12-2.39q-.06-1.18-.1-2.35c-.09-.79-.17-1.57-.25-2.36.16-.79.33-1.57.49-2.36-.08-.78-.17-1.57-.24-2.36s0-1.57,0-2.35l-.16-2.36c.1-.87.2-1.74.31-2.62l-2.55.48-2.29-.46-2.28-.16-2.27.72-2.27-.11-2.29-.2h-2.27l-2.28-.3-2.27.2-2.28.13-2.27.36-2.28-.77-2.28.27-2.28.26-2.27,0-2.28-.39-2.27.38-2.28,0L234,164h-2.27l-2.27.49L227.2,164l-2.27.57-2.28-.22-2.31-.19c.1.8.21,1.6.32,2.4-.19.79-.39,1.57-.59,2.35C220.09,169.74,220.09,170.52,220.11,171.3Z"/><path class="cls-1" d="M60.8,233.63l.15-2.53-1-1.68-1.66-.91-1.84.83-1.08,1.75,0,2.58-.08,2.58.08,2.58.16,2.58L55.38,244l0,2.58,0,2.58,1.07,1.79,1.88.65,1.77-.67.77-1.77-.09-2.58,2.92.16,2.89-.13-.2,2.54L66,251.49l-1.26,2-1.8,1.56-2.28.69-2.35.43-2.45-.25L53.59,255l-2.1-1.29-1.28-2.13-.42-2.43.18-2.58L49.89,244l-.21-2.59v-2.59l.1-2.59.21-2.59-.3-2.59.65-2.39,1.11-2.23,2.1-1.33,2.33-.75,2.44-.19,2.36.22,2.31.68,1.9,1.51,1.26,2.08.44,2.39-.07,2.48H63.68Z"/><path class="cls-1" d="M85.7,231.05l.12,2.58-.17,2.58.12,2.58.1,2.58-.17,2.58.18,2.58-.13,2.58-.41,2.36-1.29,2-1.85,1.46-2.12,1.14-2.42.06-2.42-.34-2.35-.66L71,253.61l-1.11-2.14-.63-2.36.09-2.58L69.26,244l.17-2.58-.08-2.58-.2-2.58v-2.58l.07-2.58.41-2.43,1.31-2.09,2-1.39,2.27-.89,2.44-.15,2.4.11,2.18,1,1.93,1.41,1.31,2Zm-5.49,0-.86-1.75-1.69-1-1.88.82L75,231l-.18,2.57.18,2.57-.12,2.57,0,2.57-.09,2.57-.07,2.58.29,2.57.63,2,2,.88,1.74-1,.79-1.82.13-2.56-.22-2.56.09-2.56-.07-2.56.17-2.57-.08-2.56Z"/><path class="cls-1" d="M106.52,224.53l.2,2.35-.3,2.41,0,2.41.28,2.4-.27,2.41v2.41l.25,2.4v4.81l-.22,2.4,0,2.41.07,2.41,0,2.32h-2.71l-2.8.11-.71-2.24-.52-2.29L99,249l-.81-2.2-.52-2.29-.89-2.18L96.31,240l-.78-2.22-.06,0-.06,2.56L95.26,243l.28,2.55-.22,2.56,0,2.56.09,2.56,0,2.59H92.59l-2.75-.08,0-2.35V251l0-2.4,0-2.41-.1-2.41.12-2.4-.09-2.41,0-2.4v-2.41l.06-2.4-.08-2.41-.06-2.41.09-2.5,3,.18,2.93-.06.78,2.43.57,2.52.94,2.41.71,2.49.56,2.53.77,2.47.72,2.49.22-.05v-2.47l.07-2.48,0-2.48,0-2.48.07-2.48-.21-2.48.19-2.44,2.76.1Z"/><path class="cls-1" d="M116.51,229l-.1,2.48,0,2.56.06,2.48,2.74-.07,2.79.19,0,2.2v2.18l-2.77-.09-2.85.1v2.49l.1,2.44-.08,2.45.06,2.44-.06,2.45,0,2.45-2.8-.07-2.72,0-.12-2.32,0-2.41.1-2.4-.24-2.41.31-2.41-.16-2.4.09-2.41-.22-2.4.05-2.41.11-2.4.13-2.41-.11-2.41-.06-2.42,2.25,0,2.24.12,2.24-.23,2.24.17,2.24.08,2.31-.21,0,2.29v2.36l-2.73-.26-2.62,0Z"/><path class="cls-1" d="M133.17,229l-.17,2.52.21,2.56,0,2.52,2.79,0,2.76.18,0,2.14,0,2.11-2.74,0-2.74.26,0,2.45v2.55l-.29,2.55.25,2.47,2-.07,2.13.08,2.13.22,2.12-.15-.05,2.22.17,2.34-2.45-.2-2.36.15-2.35,0-2.35-.17-2.36.29-2.28-.23,0-2.34-.18-2.41,0-2.4.05-2.41v-2.41l.23-2.4-.09-2.41-.16-2.4.18-2.41v-2.4l-.07-2.41-.14-2.41.27-2.29,2.13-.25,2.25.17,2.25,0,2.25-.12,2.25.13,2.2,0,.2,2.18-.23,2.13-2.55.05-2.64-.1Z"/><path class="cls-1" d="M157.53,255.83l-.89-2.15-.95-2.07-.9-2.1-.78-2.15-1-2-.7-2.19-1.71,0,0,2.51-.13,2.52-.07,2.52.11,2.52-.15,2.41-2.67.15-2.69-.12-.24-2.32L145,251l-.08-2.4,0-2.41.12-2.41-.24-2.4.06-2.41.1-2.4.14-2.41-.21-2.4-.06-2.41.06-2.41.12-2.37h2.29l2.33-.14,2.34.24,2.33-.22,2.21.42,2.16.67,1.73,1.5,1,2,.58,2.17.31,2.23-.3,2.67-1,2.48-1.5,2.14-2,1.7.85,2.28,1.21,2.13.93,2.25,1,2.21.8,2.31,1.18,2.25-3,0Zm-7-17.45h1.73l2.7-.33,1.57-1.93.33-2.71-.59-2.86-2.17-1.65-1.82.16-1.7,0-.1,2.28-.07,2.37.11,2.37Z"/><path class="cls-1" d="M171.59,228.9l.21,2.61,0,2.56-.21,2.66,2.93,0,2.76,0,.24,2.14-.18,2.22-2.83,0-2.88,0,.07,2.6-.05,2.55.18,2.55-.1,2.5,2.08,0,2.13-.05,2.13.21,2.22-.15-.06,2.31,0,2.28-2.39.08-2.35-.18-2.35,0h-2.36l-2.35.14-2.4,0,.12-2.45-.24-2.41.12-2.4.13-2.41,0-2.41-.08-2.4-.17-2.41.29-2.4-.16-2.41v-2.4l0-2.41.21-2.41-.07-2.32,2.15-.11,2.25-.1,2.25.16,2.25-.2,2.25.15,2.22,0-.11,2.2.19,2.29-2.68.05-2.64-.12Z"/><path class="cls-1" d="M200.15,224.51l0,2.37.08,2.41.06,2.41.05,2.4-.27,2.41.18,2.41,0,2.4.06,2.41-.24,2.41.19,2.4,0,2.41-.12,2.41,0,2.36-2.75-.07-2.87.24-.76-2.31-.6-2.27-.52-2.29-.82-2.2-.61-2.26-.6-2.27-.71-2.23-.68-2.25-.08,0-.13,2.56-.08,2.56,0,2.55.13,2.56-.24,2.56.29,2.56,0,2.66-2.88-.09-2.7-.11-.22-2.3,0-2.41v-2.4l.06-2.41.18-2.41-.2-2.4.18-2.41-.25-2.4,0-2.41.15-2.4-.13-2.41v-2.41l0-2.49,3-.06,2.89.23.82,2.38.69,2.49.77,2.47.72,2.48.82,2.45.7,2.5.86,2.44,0,0-.1-2.47.21-2.48,0-2.48,0-2.48.07-2.48-.24-2.48,0-2.55,2.86.19Z"/><path class="cls-1" d="M215.2,233.64l.14-2.54-.77-1.85-1.85-.77-1.88.83-.82,1.8,0,2.58,0,2.58v2.58l-.1,2.58,0,2.58,0,2.58-.17,2.58,1.06,1.75,1.84.74,1.73-.76.74-1.73.07-2.47,2.83.06,2.74.05.18,2.36-.61,2.33-1.29,2L217.33,255l-2.23.83-2.38.29-2.45-.21L208,255l-2.12-1.25-1.35-2.09-.49-2.46.21-2.58.07-2.59-.11-2.59,0-2.59.09-2.59-.21-2.59.21-2.59.27-2.46,1.43-2,1.88-1.62,2.42-.53,2.42-.27,2.38.21,2.33.66,1.9,1.54,1,2.19.43,2.31.06,2.37-2.74.18Z"/><path class="cls-1" d="M230.21,229l0,2.54-.12,2.56.08,2.62H233l2.86-.1,0,2.27-.06,2.17-2.78,0-2.95-.09.05,2.67-.08,2.55.26,2.55-.23,2.63,2.24-.09,2.13-.11,2.14.12,2.18,0,.08,2.27-.16,2.2-2.32,0-2.35-.08-2.36.07H227l-2.28,0,.08-2.33,0-2.41-.2-2.4.19-2.41,0-2.41-.14-2.4v-2.41l0-2.4,0-2.41-.2-2.4V229.3l.16-2.41,0-2.42,2.27-.14,2.25.1,2.25-.05,2.25.13,2.25-.17,2.3.09-.16,2.28,0,2.13-2.54.27-2.64-.12Z"/></svg>